<svg xmlns="http://www.w3.org/2000/svg" width="2048" height="2048" style="shape-rendering:geometricPrecision;text-rendering:geometricPrecision;image-rendering:optimizeQuality;fill-rule:evenodd;clip-rule:evenodd"><path d="M987.3 223.6c-7.6 0-15.2.2-22.8.4a365.3 365.3 0 0 0-101 22.5 339.1 339.1 0 0 0-67 31 311.2 311.2 0 0 0-90 82l-14 24a18.7 18.7 0 0 0-3 5 275 275 0 0 0-130 23 273.3 273.3 0 0 0-75 52 200.5 200.5 0 0 0-36 48 151.6 151.6 0 0 0-18 36c-6.6 18.3-11.2 37-14 56a351 351 0 0 0 1 62 247 247 0 0 0 14 50V711a41 41 0 0 1 0 4.5v2a393 393 0 0 0 16 34 403.9 403.9 0 0 0 35 49 344 344 0 0 0 77 62v1a349.7 349.7 0 0 0 90 34v3a584.8 584.8 0 0 0-7 27 95 95 0 0 0-2 13c-2.5 7.7-4.2 15.7-5 24a437.5 437.5 0 0 0-7 35 293.3 293.3 0 0 1-5 27 345.7 345.7 0 0 1-4 29c-1.4 9.7-3 19.3-4.5 29-2.7 3.2-5.2 6.5-7.5 10a21.9 21.9 0 0 0-6 9 156.4 156.4 0 0 0-26 59v5a8.8 8.8 0 0 0-1.5 4c-.5 74.7-.7 149.3-.5 224v268a79.6 79.6 0 0 0 2 11v5a383.3 383.3 0 0 0 5 24 145 145 0 0 1 7 18l4 6a99.2 99.2 0 0 0 20 32 7 7 0 0 0 2 4 394.3 394.3 0 0 0 35 32 304.6 304.6 0 0 0 55 28v-.8a5 5 0 0 1 0 .8 451 451 0 0 0 60 16h7c11 2.5 22.4 4 34 4.5 86.4 5.2 172.8 6.7 259 4.5h8a2550 2550 0 0 0 184-8v-1h8a95.6 95.6 0 0 1 10-2 525.2 525.2 0 0 0 40-10.5 234.4 234.4 0 0 0 66-32.5 94.7 94.7 0 0 0 21-19c4.4-3.7 8.4-7.7 12-12 3.4-5.2 7.1-10.2 11-15v-1c4.2-6.3 7.8-13 11-20 9.6-20.1 15-41.5 16-64v-496c-1.8-5-3.2-10.4-4-16a154 154 0 0 0-5-13 31.8 31.8 0 0 1-2-6 129.7 129.7 0 0 0-18-29l-4-8c-.7-.4-1.2-1-1.5-2a665 665 0 0 0-8.5-62v-8a12472 12472 0 0 1-16-112 405.4 405.4 0 0 0 40-3 263 263 0 0 0 127-61 537.7 537.7 0 0 0 29-32 270.3 270.3 0 0 0 40-81c7.8-32.3 10.1-65 7-98-1.6-14-4.6-27.8-9-41a138 138 0 0 0-10-29 250.7 250.7 0 0 0-16-33l-13.5-21a267.7 267.7 0 0 0-66.5-65 454.7 454.7 0 0 0-62-32c-42-15-85.3-22.2-130-21.5a725 725 0 0 0-24-37.5 490.2 490.2 0 0 1-16.5-20 526.8 526.8 0 0 0-45.5-41 338.7 338.7 0 0 0-42-26 279.8 279.8 0 0 0-80-32 44.4 44.4 0 0 0-11-3 336 336 0 0 0-53-9.5c-22.7-1.1-45.5-1.6-68.2-1.4zm15.2 21.9a441.2 441.2 0 0 1 79 7 118.5 118.5 0 0 0 15 3 441.5 441.5 0 0 1 55 18l19 8a134.8 134.8 0 0 0 12 6c0 .7.3 1 1 1a376.8 376.8 0 0 1 48 30c0 .7.3 1 1 1a405.7 405.7 0 0 1 25 23l10 9 25 32a19 19 0 0 0 3 5v1a435.1 435.1 0 0 1 16 23 375.6 375.6 0 0 1 18 32 59.7 59.7 0 0 1 5.5 7 128 128 0 0 0-5.5-33c25.8-1.2 51.1 1.2 76 7a481.3 481.3 0 0 1 24 6 314 314 0 0 1 57 26h1a3 3 0 0 0 2 2c2.3 1 4.3 2.3 6 4a181.7 181.7 0 0 1 36 26l10 9a211.2 211.2 0 0 1 22 27c8.2 9.6 14.8 20.3 20 32l10 18a83.6 83.6 0 0 0 6 16c1.3 4.6 2.3 9.3 3 14a239.3 239.3 0 0 1 8 34 382 382 0 0 1-1 64c-.9.7-1.2 1.7-1 3a286 286 0 0 1-18 57l-3 4a137 137 0 0 1-29 43 205.2 205.2 0 0 1-39 37 332 332 0 0 0-21 13 68.9 68.9 0 0 0-14 7 283 283 0 0 1-61 18 194 194 0 0 1-37 4c-3-24.9-6.7-49.6-11-74v-5c-1.3-9-3-18-5-27v-6c17.6 2 35.3 2.5 53 1.5 17.2-2.4 33.2-8 48-16.5a6.3 6.3 0 0 0-1.2-1.1 5.1 5.1 0 0 0-3-1 7.4 7.4 0 0 0-1.8.1c-2 0-4 .4-6 1h-4c-4.1 1.2-8.5 2-13 2.5a458 458 0 0 1-31 .5 299 299 0 0 1-36-5l-32-10a319 319 0 0 1-32-14 81.2 81.2 0 0 1-16-6 586.7 586.7 0 0 0-37-17 2904.3 2904.3 0 0 0-65-31c-7.8-3-15.5-6.3-23-10 14.9-7 28.5-15.6 41-26a194.5 194.5 0 0 0 25-22l11-14a71.7 71.7 0 0 0 9-11 60.3 60.3 0 0 0 7-11l2-1a201.1 201.1 0 0 0 21.5-49 98.1 98.1 0 0 0 2-14 190 190 0 0 1-12.5 23 217 217 0 0 1-24 36l-5 6-12 11a175.2 175.2 0 0 1-39 31 285.8 285.8 0 0 1-45 23 311.2 311.2 0 0 1-71 18c-27.7 4-55.4 5-83 3a927.4 927.4 0 0 1-54-6v-1a856.1 856.1 0 0 1-40-8 141.4 141.4 0 0 1-11-4 498 498 0 0 1-29-9 3653.2 3653.2 0 0 0-16-7l-24-12a279.7 279.7 0 0 1-55-42 321.9 321.9 0 0 1-33-43 83.5 83.5 0 0 1-7.5-10 204 204 0 0 0 10.5 28 294 294 0 0 0 29 41 579.6 579.6 0 0 0 5 6l13 14a157.4 157.4 0 0 0 23 18 266.8 266.8 0 0 0 26 17 185 185 0 0 0 23 11.5 407.3 407.3 0 0 0-34 11.5 424 424 0 0 0-33 15 504.1 504.1 0 0 0-27 13 35.7 35.7 0 0 0-7 4 37.8 37.8 0 0 0-9 5 61841.6 61841.6 0 0 1-42 19h-2a455.6 455.6 0 0 1-29 9h-1a77 77 0 0 1-10 1 182.3 182.3 0 0 1-19 3.5 319 319 0 0 1-53-1.5 241.9 241.9 0 0 1-46-15c-1.7-.2-3-.8-4-2a57.7 57.7 0 0 0-10-3.5 128.2 128.2 0 0 0 12 8.5l12 7a65 65 0 0 0 14 6c2.3 1.8 5 2.8 8 3 14.7 5.8 30 9.3 46 10.5a598.2 598.2 0 0 0 53-.5 261 261 0 0 1-5 27 253 253 0 0 1-4 25 276.4 276.4 0 0 1-4 23l-4 21v1c-2.2 4.3-3.2 9-3 14a50.5 50.5 0 0 1-15-1.5 717.4 717.4 0 0 1-34-11.5 27.2 27.2 0 0 0-5-3 195.5 195.5 0 0 1-24-11 317.8 317.8 0 0 1-35-22c-1-1.7-2.4-3-4-4a283.5 283.5 0 0 1-56-57l-8-13a251.9 251.9 0 0 1-26-54 225.4 225.4 0 0 1-7-104 236.7 236.7 0 0 1 3-11 116.2 116.2 0 0 1 6-20 253.7 253.7 0 0 1 14-33 243 243 0 0 1 156-112h6c6.4-1.6 13.1-2.8 20-3.5 13-.5 26-.7 39-.5.3 2 0 3.6-1 5a249 249 0 0 0-7 68l2 9v-1a270 270 0 0 1 26-87 386.8 386.8 0 0 0 13-23 335.2 335.2 0 0 1 40-47 265.2 265.2 0 0 1 30-25 396 396 0 0 1 74-40 990.6 990.6 0 0 1 48-15 128.7 128.7 0 0 0 11-2 137.2 137.2 0 0 1 23-3c18.7-3.8 37.7-5.4 57-5zm463 515a9 9 0 0 1 1.8-.1 6.2 6.2 0 0 1 1.6.2 5.1 5.1 0 0 1 2.6 1.9l16-9c.1-.7 0-1.4-.5-2a980 980 0 0 1-21.5 9zm-145-339a8.4 8.4 0 0 1 0 1v-1zM457 536.5a48 48 0 0 1-2.5 12 48 48 0 0 0 2.5-12zm-5.5 12a31.3 31.3 0 0 1 0 2.2 31.3 31.3 0 0 0 0-2.2zm0 2.3a31.3 31.3 0 0 1-.1 1 31.3 31.3 0 0 0 0-1zm-.2 1.2a31.3 31.3 0 0 1 0 .9 31.3 31.3 0 0 0 0-.9zm0 1.1a31.3 31.3 0 0 1-.2 1 31.3 31.3 0 0 0 .1-1zm-.2 1.1a31.3 31.3 0 0 1-.2 1 31.3 31.3 0 0 0 .2-1zm-.3 1.1a31.3 31.3 0 0 1-.2 1 31.3 31.3 0 0 0 .2-1zm-.2 1a31.3 31.3 0 0 1-.3 1.1 31.3 31.3 0 0 0 .3-1zm-.3 1.1a31.3 31.3 0 0 1-.3 1.1 92.6 92.6 0 0 1-6.5 14.5 21.7 21.7 0 0 1 1 4 18 18 0 0 0-1-4 92.6 92.6 0 0 0 6.5-14.5 31.3 31.3 0 0 0 .3-1zm-10.8 43.1c.1 1.8 0 3.5-.5 5a13 13 0 0 0 .5-5zm1176 38a8.4 8.4 0 0 1 0 1v-1zm-751.5 11zm11.6 4zm47.9 18a72.4 72.4 0 0 1 4 0 72.4 72.4 0 0 0-12 .5 72.4 72.4 0 0 1 8-.6zm-42 6.8zm252.2.1zm-61.2 4zm-168.5 0c8 0 15.7 1 23.5 3.1 9 1.4 18 2.8 27 4 27.3 5.3 55 8 83 8l22-.5a420.6 420.6 0 0 0 44-6.5 845.9 845.9 0 0 1-40 4.5 723.6 723.6 0 0 1-26.9.3c9 0 18 0 26.9-.3a845.9 845.9 0 0 0 40-4.5 212.2 212.2 0 0 0 18-3 11 11 0 0 1 5.5-2c7 2.3 14.2 4.3 21.5 6a1701 1701 0 0 0 44 16 100.5 100.5 0 0 0 15 6 651.4 651.4 0 0 0 31 13l18 9a2609.8 2609.8 0 0 0 63 27l8 4a213.3 213.3 0 0 1 19 6.5c1 .5 1.7 1.4 2 2.5 6.2 45.4 12.5 90.7 19 136l2 5a100 100 0 0 0 2 17.5l-1 2.5a56 56 0 0 1-11-6l-16-7c-1.9-.8-3.5-1.8-5-3l-48-19a809.4 809.4 0 0 0-27-8 620.2 620.2 0 0 0-60-16h-1a277.5 277.5 0 0 0-13-4 562.5 562.5 0 0 0-38-6c-.3-.8-1-1.2-2-1-18-2.7-36-5-54-7h-2c-38-3.4-76-4.7-114-4h-2a1012.6 1012.6 0 0 0-98 8h-2l-8 2a18.5 18.5 0 0 1 6 .5 18.5 18.5 0 0 0-6-.5 46.2 46.2 0 0 0-17.5 6c-1-.7-1.8-1-2.5-.8-.8.1-1.4.8-2 1.8.6-1 1.2-1.7 2-1.8.7-.2 1.6 0 2.5.8a48.4 48.4 0 0 1 17.5-6 657 657 0 0 0-184 52l-16 10-4 1a509.3 509.3 0 0 1 6-26 3546.4 3546.4 0 0 1 14-73 85.2 85.2 0 0 1 2-14v-2a576.8 576.8 0 0 0 8-43 112.2 112.2 0 0 1 2-12 34.3 34.3 0 0 1 11-3 444 444 0 0 0 43-20l40-18a339.3 339.3 0 0 1 70-26l24-7c6.2-1.3 12.4-2 18.5-2zm82.3 5.2zm16.7 6.9c9 .4 18 .7 26.9.8a723.6 723.6 0 0 1-26.9-.8zm257.5 20.5a54.8 54.8 0 0 1 16 8 54.8 54.8 0 0 0-16-8zm-39 2.5a55.9 55.9 0 0 0 13 5.5 55.9 55.9 0 0 1-13-5.5zm161 45.5a655.5 655.5 0 0 1 31 4 655.5 655.5 0 0 0-31-4zm73 4a53.5 53.5 0 0 1-11.5 4.5 4 4 0 0 1-2-1 4 4 0 0 0 2 1 53.5 53.5 0 0 0 11.5-4.5zm-77.5 6.5zm6.5 3.5a462.3 462.3 0 0 0 43 0c-14.3.7-28.7.7-43 0zm-857 40a41 41 0 0 1 0 4.5V817zm142 14.2zM974 856.3a50.5 50.5 0 0 1-9.7.9c-4.3.8-8.4 2.3-12.4 4.3a22.4 22.4 0 0 0-9.5-2 809 809 0 0 0-47 6 66.2 66.2 0 0 0-18.5 2 66.2 66.2 0 0 1 18.5-2 809 809 0 0 1 47-6 23 23 0 0 1 9.5 2 46.9 46.9 0 0 1 22.1-5.2zm-297.6 7.2a270.8 270.8 0 0 1-6 32 49.4 49.4 0 0 1-5 11.5 49.4 49.4 0 0 0 5-11.5 270.8 270.8 0 0 0 6-32zm-57 4.2a55.5 55.5 0 0 1 8 .3 55.5 55.5 0 0 0-12 0 55.5 55.5 0 0 1 4-.3zm372.6 7.6c75-.6 149.4 7.5 223.4 24.2a1061.5 1061.5 0 0 1 39 12 446.4 446.4 0 0 1 39 13 234.2 234.2 0 0 1 23 8 195.3 195.3 0 0 0 17 7 293.9 293.9 0 0 1 26 14 131.8 131.8 0 0 1 16.5 9 1996.5 1996.5 0 0 0 5.5 47l7.5 51a17 17 0 0 1-.5 10 313.2 313.2 0 0 0-19-13c-1.5-1-3.2-1.6-5-2a6.6 6.6 0 0 0-5-3c-15-9.4-31-16.8-48-22a304 304 0 0 0-32-12c-11.5-3.8-23.2-7.5-35-11a1334 1334 0 0 0-61-12 257.2 257.2 0 0 1-24-4h-6a512.5 512.5 0 0 0-50-6c-8-.7-16-1-24-1a387.2 387.2 0 0 0-32-3 1205 1205 0 0 0-230 15.5 547.2 547.2 0 0 0-135 42 193.4 193.4 0 0 0-28 16.5l-5 2-4 4a4 4 0 0 0-3.5 2c-.4-.2-.6-.6-.5-1 .6-8 2-15.6 4-23v-1a472.5 472.5 0 0 0 5-33c2.3-8.4 4-17.1 5-26a1884.9 1884.9 0 0 1 5.5-26 364.9 364.9 0 0 1 47.5-26c1 .2 1.7-.2 2-1a384 384 0 0 1 43-15 390.5 390.5 0 0 1 80-20c10-2.8 20.4-4.8 31-6 4.1-1.2 8.5-1.9 13-2h2l10-2a984 984 0 0 1 102.6-6.2zM804.5 880zm-31 8a74.8 74.8 0 0 0-22 11.5 189.5 189.5 0 0 0-32 6 187.9 187.9 0 0 0-22 10 187.9 187.9 0 0 1 22-10 189.5 189.5 0 0 1 32-6 74.1 74.1 0 0 1 22-11.5zm-84 31.5zm701 40a53.7 53.7 0 0 1 0 2v-2zm-447.2 27.9zm-132.1 15.9zm-46.6 8c1 0 1.9 0 2.9.2a11.2 11.2 0 0 0-2.9-.1zm682.4 673.2c-2 10-5.3 19.7-9.5 29a137.5 137.5 0 0 0 9.5-29zm-182.5 147.9zm-408.9 10.2c-.7.4-1.3 1-2 1.8a5747.8 5747.8 0 0 0 89.9 3.6c-30-1-60-2.1-90-3.5l.1-.1c.7-.8 1.3-1.4 2-1.8zm-24.1.9a5747.8 5747.8 0 0 0 19.5.8h1.2a135.8 135.8 0 0 1 1 .2l-21.7-1z" style="opacity:1;fill:#320c23;fill-opacity:1"/><path d="M995.3 245.4a258 258 0 0 0-49.8 5.1 137.2 137.2 0 0 0-23 3 128.7 128.7 0 0 1-11 2 990.6 990.6 0 0 0-48 15 396 396 0 0 0-74 40 265.2 265.2 0 0 0-30 25 335.2 335.2 0 0 0-40 47 386.8 386.8 0 0 1-13 23 270 270 0 0 0-26 87c2.2-.4 3.5-1.7 4-4 2.2 3 3.2 2.6 3-1a3 3 0 0 0 3-1 19 19 0 0 1 3-5c-.2-.6-.5-1-1-1.5a8.4 8.4 0 0 1 4-.5c-.3-5.2 1.9-8.8 6.5-11a1910.3 1910.3 0 0 1 8-20c1-.8 2.2-1.2 3.5-1a174.2 174.2 0 0 0 11.5-23 25.3 25.3 0 0 0 6.5-8 3 3 0 0 1 3-1 3 3 0 0 1 1-3 15 15 0 0 0 4-3.5 37.5 37.5 0 0 1 9-16c-.8-1.7-.3-1.8 1.5-.5a16 16 0 0 1 8.5-9 3 3 0 0 1 1-3 25 25 0 0 0 6.5-5 601 601 0 0 1 13.5-15.5 5 5 0 0 1 3-.5c0-1 .2-1.8 1-2.5a1496.9 1496.9 0 0 0 17-15c4.4-3 9.1-5.2 14-6.5v-5a35 35 0 0 0 12-6.5 4.6 4.6 0 0 0 2-4.5h7c1.3-4.1 4.1-6.8 8.5-8a4 4 0 0 1 2 1 10.3 10.3 0 0 1 1.5-4 3.6 3.6 0 0 1 1.5 1 5.7 5.7 0 0 1 5.5-3v-3h8c3.4-2.7 7.3-5 11.5-7 1.4-.6 3-1 4.5-1v-3a585.7 585.7 0 0 1 23-5.5 43.2 43.2 0 0 1 16-7c.8-1 1.2-2.2 1-3.5a403.4 403.4 0 0 0 38-8.5c44.8-7.7 89.8-9.9 135-6.5 1.3.2 2.5-.2 3.5-1l1 2c1-.8 2.3-1.5 3.5-2 1.7 1.4 3.3 1.7 5 1a359.2 359.2 0 0 1 43.5 13 11 11 0 0 0 2.5-1 441.5 441.5 0 0 0-55-18c-5-.7-10-1.7-15-3a441.2 441.2 0 0 0-79-7h-7.2zm4.2 2.1a219.1 219.1 0 0 0-28.5 4 219.1 219.1 0 0 1 28.5-4zm45 2c-2.1.7-4.2 1.3-6.4 1.6a36.5 36.5 0 0 0 6.4-1.6zm-6.4 1.6a37 37 0 0 1-6.6.4 36.5 36.5 0 0 0 6.6-.4zm23.4 1.4a228 228 0 0 0 15 1.5c-5-.3-10-.8-15-1.5z" style="opacity:1;fill:#fbfdef;fill-opacity:1"/><path d="M1058.6 260c-33.8-.4-67.5 2.2-101.1 8a403.4 403.4 0 0 1-38 8.5c.2 1.3-.2 2.5-1 3.5a43.2 43.2 0 0 0-16 7 585.7 585.7 0 0 0-23 5.5v3c-1.6 0-3 .4-4.5 1a63 63 0 0 0-11.5 7h-8v3c-2.4-.1-4.2.9-5.5 3a3.6 3.6 0 0 0-1.5-1 10.3 10.3 0 0 0-1.5 4 4 4 0 0 0-2-1 11.6 11.6 0 0 0-8.5 8h-7c.2 1.9-.5 3.4-2 4.5a35 35 0 0 1-12 6.5v5a44.2 44.2 0 0 0-14 6.5l-17 15c-.8.7-1 1.5-1 2.5a5 5 0 0 0-3 .5 601 601 0 0 0-13.5 15.5 25 25 0 0 1-6.5 5 3 3 0 0 0-1 3 16 16 0 0 0-8.5 9c-1.8-1.3-2.3-1.2-1.5.5a37.5 37.5 0 0 0-9 16 15 15 0 0 1-4 3.5 3 3 0 0 0-1 3 3 3 0 0 0-3 1 25.3 25.3 0 0 1-6.5 8 174.2 174.2 0 0 1-11.5 23c-1.3-.2-2.5.2-3.5 1a1910.3 1910.3 0 0 0-8 20 10.5 10.5 0 0 0-6.5 11 8.4 8.4 0 0 0-4 .5 3.6 3.6 0 0 1 1 1.5 19 19 0 0 0-3 5 3 3 0 0 1-3 1c.2 3.6-.8 4-3 1-.5 2.3-1.8 3.6-4 4v1c.1.9-.2 1.5-1 2a7.1 7.1 0 0 1-1-5 74 74 0 0 1-2-17.5 3741.2 3741.2 0 0 1 4-47.5 126 126 0 0 1-28 0 239.5 239.5 0 0 1-45 12v3a212 212 0 0 0-18 7.5 99.5 99.5 0 0 0-10 6.5c-3.6.6-7 1.7-10 3.5a8 8 0 0 0-2 5.5 41.5 41.5 0 0 0-8 1c.2 1.3-.2 2.5-1 3.5a1941.5 1941.5 0 0 1-24 16 24 24 0 0 0-7 11.5c-2.3 0-4.3.8-6 2.5a20.9 20.9 0 0 0-5.5 8.5 63 63 0 0 0-12 11c-.4 3.4-2.1 6.1-5 8a22.5 22.5 0 0 1-2 7 146.5 146.5 0 0 0-10.5 12c-1 4.7-3.1 8.7-6.5 12a61 61 0 0 0-.5 11c-2 0-3.6 1-4.5 3a53.4 53.4 0 0 0-4.5 21h-3a155.7 155.7 0 0 0-6.5 22 615.2 615.2 0 0 0-4.5 45.5 1261.5 1261.5 0 0 1 7 50.5 81.2 81.2 0 0 0 3.5 17c2.8 3.5 3.6 7 2.5 10.5a52.7 52.7 0 0 0 7 10c-.8.7-1 1.5-1 2.5l8 13c16 21.6 34.6 40.6 56 57 .6-.1 1.1-.4 1.5-1a9 9 0 0 0 5.5 3 81 81 0 0 0 29 9c.8.8 1.8 1.3 3 1.5 9.7.7 19.3.7 29 0a31 31 0 0 0 25.5-16.5c4-13.2.2-23.2-11.5-30l-1-2a677.4 677.4 0 0 0-31-16l-14-9-11-6a550 550 0 0 0-8-7 3 3 0 0 1-1-3l-12-7a128.2 128.2 0 0 1-12-8.5c3.4.8 6.7 2 10 3.5h3a241 241 0 0 0 15 2.5 217.5 217.5 0 0 0 145-32.5 200.6 200.6 0 0 0 21.5-21 107.8 107.8 0 0 0 20-48c1.2-22.1-1-43.8-6.5-65a19.2 19.2 0 0 1-1-6 204 204 0 0 1-10.5-28 83.5 83.5 0 0 0 7.5 10 285.1 285.1 0 0 0 19 13l5 4a473.8 473.8 0 0 0 130 56.5 379.7 379.7 0 0 0 208-8.5 229 229 0 0 0 26-12c4.3-1.5 8.3-3.5 12-6a183.2 183.2 0 0 0 96-121c6.7-29 6.7-58 0-87a239 239 0 0 0-34.5-69l-16-18c-.7-1-.7-2 0-3a3.8 3.8 0 0 0 2.5-3c-.7 0-1-.3-1-1-4.1-1.8-8.1-3.8-12-6l-19-8c-.8.4-1.6.8-2.5 1a359.2 359.2 0 0 0-43.5-13c-1.7.7-3.3.4-5-1-1.3.5-2.4 1.2-3.5 2l-1-2c-1 .8-2.2 1.2-3.5 1-11.3-.8-22.6-1.3-33.9-1.5zm96.4 22.5a15 15 0 0 1-6.5 2 14.8 14.8 0 0 0 6.5-2zm-261 10a189.7 189.7 0 0 0 17.5 1.5 189.7 189.7 0 0 1-17.5-1.5zm248.5 3.3zm-280.1 19.6a9.3 9.3 0 0 1-1 0 5.9 5.9 0 0 0-3.6 1.5c-.5.4-1 1-1.3 1.6a42.8 42.8 0 0 0 9 1.5 14.5 14.5 0 0 0 4 5 14.5 14.5 0 0 1-4-5 42.8 42.8 0 0 1-9-1.5c.4-.6.8-1.2 1.3-1.6a5.7 5.7 0 0 1 3.5-1.5h1zm290.6 1.1a5 5 0 0 1 .5 1.4l-.5-1.4zm.5 1.5a5 5 0 0 1 0 1.5V318zm20 6c.7.4 1.3.8 1.6 1.4-.3-.6-.9-1-1.6-1.4zm-308 2.5a5 5 0 0 1 2.5 1 5 5 0 0 0-2.5-1zm0 0c-3.6.7-7.3 1.2-11 1.5a111.6 111.6 0 0 0 11-1.5zm-4.5 2.9 2.5.1c2.9 0 5.6.9 8 2.5 1.3 2.1 3.1 3.6 5.5 4.5a38.7 38.7 0 0 0 2.5 5 64.9 64.9 0 0 1-1 16 50.9 50.9 0 0 0-6 9.5 8.4 8.4 0 0 1-4 .5c.2 1.9-.5 3.4-2 4.5a15.4 15.4 0 0 1-7 2.5 110 110 0 0 0-16 2 63.4 63.4 0 0 1-11-2 14.4 14.4 0 0 0-11-7.5 48.3 48.3 0 0 0 2-15.5c2.6-3.5 5.6-6.9 9-10a153 153 0 0 0 12-8.5 36.5 36.5 0 0 1 16.5-3.6zM807.6 348zm0 0zm-1.1.6zm9 2.9a9.6 9.6 0 0 1 .7 3.3 8 8 0 0 1-.2-1.6l-.5-1.7zm-24.3 10.2zm0 0a11.3 11.3 0 0 0-4.5.7 14.2 14.2 0 0 0 2.2-.6l2.3-.1zm429.3 69.8zm-605.5 28a8.4 8.4 0 0 1 .2.5 8.4 8.4 0 0 0-.2-.5zm10.5.4zm0 0zm-10.3.3a8.4 8.4 0 0 1 .1.4 8.4 8.4 0 0 0 0-.4zm.2.5a8.4 8.4 0 0 1 0 .4 8.4 8.4 0 0 0 0-.4zm0 .6a8.4 8.4 0 0 1 .1.3 8.4 8.4 0 0 0 0-.3zm.1.5a8.4 8.4 0 0 1 0 .4 8.4 8.4 0 0 0 0-.4zm0 .6a8.4 8.4 0 0 1 0 .4 8.4 8.4 0 0 0 0-.4zm0 .6a8.4 8.4 0 0 1 0 .5 8.4 8.4 0 0 0 0-.5zm612 5.5a345 345 0 0 1-2.5 17 350.2 350.2 0 0 0 2.5-17zm-7 21a8.1 8.1 0 0 1 0 3.9c-.1.6-.4 1.2-.7 1.8a7.9 7.9 0 0 0 1-3.7 7 7 0 0 0-.3-2zm-1 8.5a25.5 25.5 0 0 1-3.5 5.5 25.5 25.5 0 0 0 3.5-5.5zm-532 2c-.7.5-1 1-1 1.5s.3 1 1 1.5c-.7-.5-1-1-1-1.5s.3-1 1-1.5zm-14.3 1c.4.1.6 1 .8 2.5-.2-1.5-.4-2.4-.8-2.5zm498.3 6.3a20 20 0 0 1 11 3.7 21.5 21.5 0 0 0-7.1-3.2 20 20 0 0 0-3.9-.5zm0 0zm-644 11.2c-2.6 1-5.3 1.3-8 1a16.9 16.9 0 0 0 8-1zm-11.3 15.1c-.6.6-.8 1-.7 1.4.1.3.6.5 1.4.6-.8 0-1.3-.3-1.4-.6-.1-.3.1-.8.7-1.4zm189.3 2.4zm70 5.5a146.1 146.1 0 0 1-24 2 146.1 146.1 0 0 0 24-2zm-45 2a31.8 31.8 0 0 0 1.5 12 31.8 31.8 0 0 1-1.5-12zm21 2c0 .5-.2.8-.5 1-.2 0-.6 0-1-.2.4.2.8.3 1 .1.3-.1.4-.4.5-.9zm48 5c-5.3.2-8 .3-8 .5 0-.2 2.7-.3 8-.5zm-287.9 11.3a25.9 25.9 0 0 1 0 .3 25.9 25.9 0 0 0 0-.3zm177.9 1.2zm-178 .6a25.9 25.9 0 0 1 0 .3 25.9 25.9 0 0 0 0-.3zm0 .8a25.9 25.9 0 0 1 0 .3 25.9 25.9 0 0 0 0-.3zm0 .8a25.9 25.9 0 0 1-.1.3 25.9 25.9 0 0 0 0-.3zm-.5 2.5a25.9 25.9 0 0 1-.1.4 25.9 25.9 0 0 0 0-.4zm-.2.7a25.9 25.9 0 0 1-.1.4 25.9 25.9 0 0 0 .1-.4zm212.7 7.6a30.9 30.9 0 0 1-9.5 4 28.8 28.8 0 0 1 9.5-4zm411 1.6h.4c.3 0 .5.3.7.6.1.3.3.8.3 1.4 0-.6-.2-1-.3-1.4-.2-.3-.4-.5-.7-.6-.2-.1-.5 0-.8.1l-1.2.9 1.2-.9.4-.1zm-293 3.4zm-135.7 10.4 2.1.3a12.7 12.7 0 0 1 7 3.7 12.7 12.7 0 0 0-7-3.7 16.8 16.8 0 0 0-2.1-.3zm365.7 16.1a96.9 96.9 0 0 0-16 1c5.3-.8 10.6-1.1 16-1zm-136 3zm-32.5 1.4zm0 0zm122.5 2.1a978.8 978.8 0 0 1-82 1 978.8 978.8 0 0 0 82-1zM908 615.5a18.5 18.5 0 0 0 8 3c.4-.6.5-1.1.4-1.6.1.5 0 1-.4 1.6a19.6 19.6 0 0 1-8-3zm0 0zM704.3 618h.6c-.5-.1-.9 0-1.1.1-.3.2-.5.6-.7 1.2.2-.6.4-1 .7-1.2l.5-.1zm-1.3 34.5a25 25 0 0 1 .5 3.5 25 25 0 0 1 0 3.5 25 25 0 0 0-.5-7zM634.5 711zm-169 1zm86.5 9.5zm55.5 1a9.9 9.9 0 0 1 0 .8 9.9 9.9 0 0 0 0-.8zm0 1a9.9 9.9 0 0 1 .1.7 9.9 9.9 0 0 0 0-.8zm.1.8a9.9 9.9 0 0 1 0 .8 9.9 9.9 0 0 0 0-.8zm0 1a9.9 9.9 0 0 1-.2.6 9.9 9.9 0 0 0 .1-.7zm-.2.7a9.9 9.9 0 0 1-.2.8 9.9 9.9 0 0 0 .2-.8zm-.3 1a9.9 9.9 0 0 1-.2.6 9.9 9.9 0 0 0 .2-.7zm-.3.8a9.9 9.9 0 0 1-.3.7 9.9 9.9 0 0 0 .3-.7zm-79.3.7zm4.5 5a7.2 7.2 0 0 0 2.5 2 7.2 7.2 0 0 1-2.5-2zm0 0zm-20 8a13 13 0 0 0-.5 5 13 13 0 0 1 .5-5zm15.5 1-1.4 1 1.4-1zm16 31a17.6 17.6 0 0 0-5.3 2.1 13.5 13.5 0 0 0-4.9 5.5 18.8 18.8 0 0 0 2.2-3 13.7 13.7 0 0 1 6-4c.7-.3 1.3-.5 2-.6zm32.1 11.8a31.1 31.1 0 0 0 0 1.3 31.1 31.1 0 0 1 0-1.3zm38.7 10.7a13.1 13.1 0 0 0-.2.7 13.1 13.1 0 0 1 .2-.7zm-39.3.5a5 5 0 0 1 .3.7 5 5 0 0 1 .2.7 4.9 4.9 0 0 0-.5-1.4zm0 0a10.5 10.5 0 0 1-2 2 5 5 0 0 1-1 .5 4 4 0 0 1-3.2 0l-1.1-.6a10.1 10.1 0 0 1 1.1.6l1.1.3a4 4 0 0 0 2.1-.3 5 5 0 0 0 1-.5l1-.9 1-1.1zm.5 1.5a5 5 0 0 1 0 .7v-.7zm0 .7a5 5 0 0 1 0 .8v-.8zm-32 5.8a5.2 5.2 0 0 1-.5 2.2l-.6 1-.9.8a5.7 5.7 0 0 0 1.5-1.8 4.5 4.5 0 0 0 .5-2.2z" style="opacity:1;fill:#ecf8ec;fill-opacity:1"/><path d="M1183.5 288.5c-.3 1.4-1 2.4-2.5 3-.7 1-.7 2 0 3l16 18a239 239 0 0 1 34.5 69c6.7 29 6.7 58 0 87a183.2 183.2 0 0 1-96 121 50.4 50.4 0 0 1-12 6 229 229 0 0 1-26 12 379.7 379.7 0 0 1-208 8.5 473.8 473.8 0 0 1-130-56.5l-5-4a285.1 285.1 0 0 1-19-13 321.9 321.9 0 0 0 33 43 4.5 4.5 0 0 1 1.2-1.6l.8-.5 1-.4a29 29 0 0 1-4-1.5 29 29 0 0 0 4 1.5 5.2 5.2 0 0 0-1.8 1 4 4 0 0 0-1.2 1.5c16.6 16.3 35 30.3 55 42l24 12a3653.2 3653.2 0 0 1 16 7 498 498 0 0 0 29 9 319 319 0 0 1 48.5 10c1.4.2 2.2.9 2.5 2a79.5 79.5 0 0 0 17.5-1 14 14 0 0 0 7.5 2c2 1.5 4.3 2.3 7 2.5a323.9 323.9 0 0 0 48 2.5v-4a224 224 0 0 0 34-4c16.5-2.5 32.8-5.8 49-10 .3-.8 1-1.2 2-1a71 71 0 0 1 9-3c48.8-15.4 92.2-40 130-74a405.1 405.1 0 0 0 25.5-29 4 4 0 0 1 3.5-2 190 190 0 0 0 12.5-23 98.1 98.1 0 0 1-2 14c-5 17.4-12.2 33.7-21.5 49-.5 3.4-1.9 6.4-4 9 1.1 1.1 1.3 2.4.5 4a183.4 183.4 0 0 0-9 24 47 47 0 0 0 15.5 48 18.3 18.3 0 0 0 2 3.5c38.3 32.1 82 53.6 131 64.5a186.7 186.7 0 0 0 27 3c22.8 1.3 45.1-1.2 67-7.5a126.4 126.4 0 0 0 19-9.5l2 .5a113.6 113.6 0 0 1-13 17.5 254.7 254.7 0 0 1-69 55 57.5 57.5 0 0 1-12 8 31.2 31.2 0 0 1-4.5 5c-1.3 8.1 0 15.8 4 23 3.8 6.4 9.5 9 17 8a144 144 0 0 0 73.5-32c24.7-20.4 43.9-45 57.5-74a272.4 272.4 0 0 0 13.5-179 131.7 131.7 0 0 0-20-32 211.2 211.2 0 0 0-22-27l-10-9a181.7 181.7 0 0 0-36-26 449 449 0 0 1-10-.5 408.8 408.8 0 0 1 27 32.5 168.5 168.5 0 0 1 11 22 57 57 0 0 1 5.5 13c3 9.6 5.2 19.3 6.5 29 1.6 51-21 86.2-68 105.5a177.6 177.6 0 0 1-123-1 26 26 0 0 1-6-3.5 76 76 0 0 1-11-4c-.3-.8-1-1.2-2-1-12-6.9-23-15.6-32.5-26a29 29 0 0 1-7-16 287.8 287.8 0 0 1 0-34 2783.3 2783.3 0 0 1 11-89 290.6 290.6 0 0 0-.5-41 19.6 19.6 0 0 0 1-5.5 566 566 0 0 0-11.5-65.5l8 11c.4-.6.9-.9 1.5-1a19 19 0 0 1-3-5l-25-32-10-9a405.7 405.7 0 0 0-25-23c-.7 0-1-.3-1-1a376.8 376.8 0 0 0-48-30zm65.5 48-1 1.3c-.2.4-.4.9-.4 1.4 0 .4 0 .9.2 1.4l.7 1.4a37 37 0 0 1-3.4 1.4 38 38 0 0 0 3.4-1.4l-.8-1.4a3.5 3.5 0 0 1 .3-2.8l1-1.3zm-7.5 8a7.2 7.2 0 0 0 2 2.5c-1 0-1.8.1-2.3.3-.6 0-1 .2-1 .4 0-.2.4-.3 1-.4.5-.2 1.3-.3 2.3-.3a7.2 7.2 0 0 1-2-2.5zm-1.1 4 1.6 1a8.4 8.4 0 0 1 .3 1c0-.4-.2-.7-.3-1l-1.6-1zm2 2a8.4 8.4 0 0 1 0 1v-1zm0 1a8.4 8.4 0 0 1 .2 1l-.1-1zm.2 1a8.4 8.4 0 0 1-.1 1 14 14 0 0 0-3.6.8l-1.3.8a4.5 4.5 0 0 0-1.5 2.3l-.2 1.4.1 1.8a14.1 14.1 0 0 0-.1-1.8c0-.5 0-1 .2-1.4a4.5 4.5 0 0 1 1.5-2.3l1.3-.8 1.6-.5a14 14 0 0 1 2-.3v-1zm-9.6 1zm336 189-.8.9a2.9 2.9 0 0 0-.5 2 2.8 2.8 0 0 1 .5-2l.8-.9zm1.5 4zm-1.5 1.5zm.3 1.7zm-23.8 9.8zm-2.5 1 .8 2 .4.4c.1.1.2.2.3.1l.3-.3c0 .2-.2.3-.3.3h-.3l-.4-.5-.8-2zm-787.5 3a13 13 0 0 0 .5 5 13 13 0 0 1-.5-5zm791 60.4a97.7 97.7 0 0 1 0 1.2 97.7 97.7 0 0 0 0-1.2zm0 2a97.7 97.7 0 0 1 0 .3 97.7 97.7 0 0 0 0-.3zm-507 .6a136.3 136.3 0 0 1-32 1 129.9 129.9 0 0 0 32-1zm507 .2a97.7 97.7 0 0 1 0 .6 97.7 97.7 0 0 0 0-.6zm0 1.2a97.7 97.7 0 0 1 0 .4 97.7 97.7 0 0 0 0-.4zm0 2.6a97.7 97.7 0 0 1 0 .4 97.7 97.7 0 0 0 0-.4zm-510 .3c-.7 0-1 .1-1 .2 0 0 .3.2 1 .3-.7-.1-1-.2-1-.3 0 0 .3-.2 1-.3zm510 .6a97.7 97.7 0 0 1 0 .3 97.7 97.7 0 0 0 0-.3zm0 .6a97.7 97.7 0 0 1 0 .4 97.7 97.7 0 0 0 0-.4zm-507 2.5a29.9 29.9 0 0 0-11.5 2.6 28.9 28.9 0 0 0 11.5-2.6zm506.6 2.3a97.7 97.7 0 0 1-.1.7 97.7 97.7 0 0 0 0-.7zm-568.6.2a34.8 34.8 0 0 1-10 2 34.8 34.8 0 0 0 10-2zm120.8 3c-.5.1-.7.3-.7.5 0 .1.2.3.7.5-.5-.2-.7-.4-.7-.5 0-.2.2-.4.7-.5zm-106.8.5a17 17 0 0 1-8 1 16.9 16.9 0 0 0 4 0 16.9 16.9 0 0 0 4-1zm-19 4.5a9 9 0 0 1-2.3 1.7 7.9 7.9 0 0 1 2.3-1.7zm123 1.5a34.2 34.2 0 0 0 8 1.5c-2.7-.2-5.4-.7-8-1.5zm-68 3.5zm277 5a40.9 40.9 0 0 1-9 .5 40.9 40.9 0 0 0 9-.5zm-355 3a94.5 94.5 0 0 1 14.5 3.5 94 94 0 0 1 11.5-1 94 94 0 0 0-11.5 1 94.5 94.5 0 0 0-14.5-3.5zm387 9a66.9 66.9 0 0 0 6 2.5c-2-.7-4-1.6-6-2.5zm-41 2.5a26.1 26.1 0 0 0-6.1.5c2-.4 4-.6 6.1-.5zm-6.2.5a26.1 26.1 0 0 0-5.8 2c.4.5.6 1 .7 1.3.2.5.2.9.1 1.2 0 .4-.3.8-.6 1a4 4 0 0 1-1.2 1c.5-.3 1-.6 1.2-1 .3-.2.5-.6.6-1v-1.2l-.8-1.3c1.9-.9 3.8-1.5 5.8-2zm57.8.6zm108.4 4.4zm8 4.5a91.7 91.7 0 0 0-7.5.4c2.5-.2 5-.4 7.5-.4zm-7.5.4a91.7 91.7 0 0 0-7.5 1.1c2.5-.5 5-.8 7.5-1zm19.5 15.1zm55 24.5zm5 32a8.4 8.4 0 0 0-4 .5 8.4 8.4 0 0 1 4-.5zm-2 25a17 17 0 0 1 .1.2 17 17 0 0 0 0-.3zm.1.3a17 17 0 0 1 0 .3 17 17 0 0 0 0-.3zm0 1a17 17 0 0 1 0 .3 17 17 0 0 0 0-.2zm0 .7a17 17 0 0 1 0 .3 17 17 0 0 0 0-.3zm-.1 1a17 17 0 0 1 0 .2 17 17 0 0 0 0-.2zm-.1.9a17 17 0 0 1 0 .2 17 17 0 0 0 0-.2zm-.3 1a17 17 0 0 1 0 .4 17 17 0 0 0 0-.3zm0 .5a17 17 0 0 1-.2.3 17 17 0 0 0 .1-.3zm-.2.5a17 17 0 0 1 0 .2 17 17 0 0 0 0-.2z" style="opacity:1;fill:#a6c7c6;fill-opacity:1"/><path d="M859.8 329.4c-5.3 0-10.4 1.3-15.3 3.6a153 153 0 0 1-12 8.5 70.3 70.3 0 0 0-9 10 48.3 48.3 0 0 1-2 15.5c4.9.7 8.5 3.2 11 7.5a63.4 63.4 0 0 0 11 2 110 110 0 0 1 16-2c2.5-.3 4.8-1 7-2.5a4.6 4.6 0 0 0 2-4.5 8.4 8.4 0 0 0 4-.5c1.4-3 3.4-6.2 6-9.5a64.9 64.9 0 0 0 1-16 38.7 38.7 0 0 1-2.5-5c-2.4-.9-4.2-2.4-5.5-4.5a14.8 14.8 0 0 0-8-2.5l-3.7-.1zm-183.1 82c-9.7 0-19.5.2-29.2.6-6.9.7-13.6 1.9-20 3.5a175.3 175.3 0 0 1 24.7-1 4.2 4.2 0 0 1 2.8 2 20.4 20.4 0 0 1 5.5-1.5 20.4 20.4 0 0 0-5.5 1.5 5 5 0 0 0-.8-1 4.2 4.2 0 0 0-2-1H651a171.7 171.7 0 0 0-23.5 1h-6a243 243 0 0 0-156 112 253.7 253.7 0 0 0-14 33 9 9 0 0 0 2 7.5c-.8 1.5-1.6 1.7-2.5.5a98.6 98.6 0 0 0-5.5 12l-3 11a225.4 225.4 0 0 0 7 104 251.9 251.9 0 0 0 26 54c0-1 .2-1.8 1-2.5a52.7 52.7 0 0 1-7-10c1.1-3.5.3-7-2.5-10.5a81.2 81.2 0 0 1-3.5-17 1261.5 1261.5 0 0 0-7-50.5 615.2 615.2 0 0 1 4.5-45.5 155.7 155.7 0 0 1 6.5-22h3a53.4 53.4 0 0 1 4.5-21c1-2 2.4-3 4.5-3a61 61 0 0 1 .5-11c3.4-3.3 5.6-7.3 6.5-12a146.5 146.5 0 0 1 10.5-12 22.5 22.5 0 0 0 2-7c2.9-1.9 4.6-4.6 5-8a63 63 0 0 1 12-11c1.2-3.3 3-6.2 5.5-8.5a8.2 8.2 0 0 1 6-2.5 24 24 0 0 1 7-11.5 1941.5 1941.5 0 0 0 24-16c.8-1 1.2-2.2 1-3.5a41.5 41.5 0 0 1 8-1c0-2 .6-4 2-5.5 3-1.8 6.4-3 10-3.5a99.5 99.5 0 0 1 10-6.5 212 212 0 0 1 18-7.5v-3a239.5 239.5 0 0 0 45-12 126 126 0 0 0 28 0 3741.2 3741.2 0 0 0-4 47.5c0 6.2.7 12 2 17.5v-6a249 249 0 0 1 7-68 5.6 5.6 0 0 0-1-3 99.8 99.8 0 0 0-14-.8 99.8 99.8 0 0 1 14 .8 5.6 5.6 0 0 1 1 3c1-1.4 1.3-3 1-5h-9.8zm-7.3 1.3a99.8 99.8 0 0 0-13.9 1.3 99.8 99.8 0 0 1 14-1.3zm674.6 5.5c-4.9 0-9.7 0-14.5.3a128 128 0 0 1 5.5 33 59.7 59.7 0 0 0-5.5-7c.1 1.6-.5 2.8-2 3.5a26 26 0 0 0 4 5.5h5a86 86 0 0 0-2-22 7.3 7.3 0 0 1 0-2.4 6.3 6.3 0 0 1 1-2.1 6.8 6.8 0 0 0-1 3.3v1.2a24.5 24.5 0 0 1 11.5 2c9.7-1.9 19.5-2.5 29.5-2v3a120 120 0 0 1 48 7.5c1.3.7 1.3 1.3 0 2 4.3-1.4 8-.4 11 3 8 .1 15 2.8 21 8a579 579 0 0 1 20 6.5 21 21 0 0 0 5.5-1l1 2c1.5-.8 1.7-1.6.5-2.5l7-.5a3 3 0 0 1-2-2h-1a314 314 0 0 0-57-26 481.3 481.3 0 0 0-24-6 275.5 275.5 0 0 0-61.6-7.3zm-6.3 1.5a11.7 11.7 0 0 1 5.3 1l1.5.8a16.3 16.3 0 0 0-4.5-1.6 12 12 0 0 0-2.3-.2zm33.6 2.7zm0 0z" style="opacity:1;fill:#fbfdef;fill-opacity:1"/><path d="M1286 378.5a566 566 0 0 1 11.5 65.5c0 2-.4 3.8-1 5.5 1.1 13.6 1.3 27.3.5 41-4.2 29.6-7.8 59.3-11 89a287.8 287.8 0 0 0 0 34c.7 6 3 11.4 7 16a134.4 134.4 0 0 0 32.5 26c1-.2 1.7.2 2 1a76 76 0 0 0 11 4 26 26 0 0 0 6 3.5c40.9 15 81.9 15.3 123 1 47-19.3 69.6-54.5 68-105.5-1.3-9.7-3.5-19.4-6.5-29a57 57 0 0 0-5.5-13 186.1 186.1 0 0 0 3.5 19c-1.5-6.3-2.7-12.6-3.5-19a168.5 168.5 0 0 0-11-22 408.8 408.8 0 0 0-27-32.5l10 .5c-1.7-1.7-3.7-3-6-4l-7 .5c1.2 1 1 1.7-.5 2.5l-1-2a21 21 0 0 1-5.5 1 579 579 0 0 0-20-6.5c-6-5.2-13-7.9-21-8a9.6 9.6 0 0 0-11-3c1.3-.7 1.3-1.3 0-2a120 120 0 0 0-48-7.5v-3a121.3 121.3 0 0 0-29.5 2 24.5 24.5 0 0 0-11.5-2 86 86 0 0 1 2 22h-5a26 26 0 0 1-4-5.5 3.3 3.3 0 0 0 2-3.5 375.6 375.6 0 0 0-18-32 435.1 435.1 0 0 0-16-23v-1c-.6.1-1.1.4-1.5 1l-8-11zm35.5 53v2.6-2.6zm80 45.9zm-86 16.1a38 38 0 0 1-5.4 1.4 37.7 37.7 0 0 0 5.4-1.4zm-5.4 1.4c-1.9.3-3.7.5-5.6.6a37.7 37.7 0 0 0 5.6-.6zm219.4 48.6zm-7.6 32.2c.2 0 .3 0 .5.4-.2-.4-.3-.5-.5-.4zm8.3 14c.2.4.2.8.1 1v-1zm-10.7 9.8a13 13 0 0 0 .5 5 13 13 0 0 1-.5-5zm-145.4 55.8zm65.4 4.2a65 65 0 0 1-8 1 64.9 64.9 0 0 0 8-1zm-8 1a65 65 0 0 1-8 0 64.9 64.9 0 0 0 8 0z" style="opacity:1;fill:#ecf8ec;fill-opacity:1"/><path fill="#89847c" d="m678.5 484.5 2 9c.1.9-.2 1.5-1 2a7.1 7.1 0 0 1-1-5v-6Z" style="opacity:1"/><path fill="#dccfcf" d="M451.5 560.5a9 9 0 0 0 2 7.5c-.8 1.5-1.6 1.7-2.5.5a98.6 98.6 0 0 0-5.5 12 116.2 116.2 0 0 1 6-20Z" style="opacity:1"/><path d="M1276.5 546.5a4 4 0 0 0-3.5 2 405.1 405.1 0 0 1-25.5 29 350.4 350.4 0 0 1-130 74 71 71 0 0 0-9 3c-1-.2-1.7.2-2 1a490.6 490.6 0 0 1-49 10 232.4 232.4 0 0 1-34 4v4a323.9 323.9 0 0 1-48-2.5c-2.7-.2-5-1-7-2.5a14 14 0 0 1-7.5-2 79.5 79.5 0 0 1-17.5 1v1a927.4 927.4 0 0 0 54 6c27.6 2 55.3 1 83-3a311.2 311.2 0 0 0 71-18 285.8 285.8 0 0 0 45-23 175.2 175.2 0 0 0 39-31l12-11a567.1 567.1 0 0 1 5-6 217 217 0 0 0 24-36zm-333 121c-.3-1.1-1.1-1.8-2.5-2a319 319 0 0 0-48.5-10 141.4 141.4 0 0 0 11 4 856.1 856.1 0 0 0 40 8zm142.5-1a27.2 27.2 0 0 0 3.5 1l-3.5-1zm497.5-109a272.4 272.4 0 0 1-13.5 179 212.2 212.2 0 0 1-57.5 74 143.6 143.6 0 0 1-73.5 32c-7.5 1-13.2-1.6-17-8-4-7.2-5.3-14.9-4-23a31.2 31.2 0 0 0 4.5-5 57.5 57.5 0 0 0 12-8 254.7 254.7 0 0 0 69-55 113.6 113.6 0 0 0 13-17.5l-2-.5a126.4 126.4 0 0 1-19 9.5 198.3 198.3 0 0 1-67 7.5 186.7 186.7 0 0 1-27-3 302.4 302.4 0 0 1-131-64.5 18.3 18.3 0 0 1-2-3.5 47 47 0 0 1-15.5-48 183.4 183.4 0 0 1 9-24c.8-1.6.6-2.9-.5-4 2.1-2.6 3.5-5.6 4-9l-2 1a60.3 60.3 0 0 1-7 11 71.7 71.7 0 0 1-9 11l-11 14a194.5 194.5 0 0 1-25 22 186.3 186.3 0 0 1-41 26 247.3 247.3 0 0 0 23 10 2904.3 2904.3 0 0 1 65 31 586.7 586.7 0 0 1 37 17 81.2 81.2 0 0 0 16 6 319 319 0 0 0 32 14l32 10a299 299 0 0 0 36 5c10.3.2 20.7 0 31-.5a68 68 0 0 0 13-2.5c-8.8.5-17.7.8-26.5 1a531.7 531.7 0 0 0 26.5-1h4c2-.6 4-1 6-1a980 980 0 0 0 21.5-9c.5.6.6 1.3.5 2l-16 9c-14.8 8.6-30.8 14-48 16.5-17.7 1-35.4.5-53-1.5v6a339.6 339.6 0 0 1 5 27v5a1434.6 1434.6 0 0 1 11 74 194 194 0 0 0 37-4 278.8 278.8 0 0 0 61-18 68.9 68.9 0 0 1 14-7 332 332 0 0 1 21-13 205.2 205.2 0 0 0 39-37 137 137 0 0 0 29-43l3-4a286 286 0 0 0 18-57c-.2-1.3.1-2.3 1-3a382 382 0 0 0 1-64 239.3 239.3 0 0 0-8-34c-.7-4.7-1.7-9.4-3-14a83.6 83.6 0 0 1-6-16l-10-18zm-372 98zm191 106.5a531.7 531.7 0 0 0 26.5.4c-8.8 0-17.7 0-26.5-.4zm96 74a185.8 185.8 0 0 0-21 2c7-1 14-1.7 21-2zm-88.4 50.2a155.6 155.6 0 0 0-3.3.3 155.6 155.6 0 0 1 3.3-.3zm-22.1.3a7 7 0 0 0 2.5 1.6 6.5 6.5 0 0 0-2.5-1.6z" style="opacity:1;fill:#6b99a2;fill-opacity:1"/><path d="M738.5 560.5a19.2 19.2 0 0 0 1 6c5.6 21.2 7.7 42.9 6.5 65a107.8 107.8 0 0 1-20 48 200.6 200.6 0 0 1-21.5 21 217.5 217.5 0 0 1-160 30h-3c1 1.2 2.3 1.8 4 2a241.9 241.9 0 0 0 46 15 319 319 0 0 0 53 1.5 182.3 182.3 0 0 0 19-3.5 77 77 0 0 0 10-1h1a455.6 455.6 0 0 0 29-9h2a61841.6 61841.6 0 0 0 42-19 37.8 37.8 0 0 1 9-5 35.7 35.7 0 0 1 7-4c-.1-.6-.4-1.1-1-1.5a38.5 38.5 0 0 0 5-5.5 70.8 70.8 0 0 0 10-10c19.6-20.9 22.2-43.9 8-69l-13-14a579.6 579.6 0 0 1-5-6 294 294 0 0 1-29-41zm38 122c-.2.4-.4.8-.4 1.3 0-.5.2-1 .4-1.3zm-11 5.3a5 5 0 0 1 0 .2 5 5 0 0 0 0-.2zm-5.1.2zm5.2.1a5 5 0 0 1 0 .2 5 5 0 0 0 0-.2zm-.3 1.7a5 5 0 0 1 0 .1zm-9.4 1.2zm-20.4 12.5a8.4 8.4 0 0 0-4 .5 8.4 8.4 0 0 1 4-.5zm7.5 0zm0 0a13 13 0 0 1-3.3 3.3 11.4 11.4 0 0 1 3.3-3.3zm3.5.5zm-11 15.5zm-40 3.5zm-17 2.5a13.6 13.6 0 0 0 6.6 2.1 14.4 14.4 0 0 0-2.3-.3 12.6 12.6 0 0 1-4.3-1.8zm14.5.7zm2.5.3zm-40 15a183.2 183.2 0 0 1-32 6 81.9 81.9 0 0 1-8 0 81.9 81.9 0 0 0 8 0 166.7 166.7 0 0 0 32-6zm-60 1zm10 4a81.9 81.9 0 0 0 8 .9 81.9 81.9 0 0 1-8-.9z" style="opacity:1;fill:#a6c7c6;fill-opacity:1"/><path d="M785.5 621.5c14.2 25.1 11.6 48.1-8 69a70.8 70.8 0 0 1-10 10 38.5 38.5 0 0 1-5 5.5c.6.4.9.9 1 1.5a504.1 504.1 0 0 1 27-13 424 424 0 0 1 33-15 407.3 407.3 0 0 1 34-11.5 185 185 0 0 1-23-11.5 266.8 266.8 0 0 1-26-17 157.4 157.4 0 0 1-23-18zm64 46zm54.5 15c-6.1 0-12.3.7-18.5 2l-24 7h.6a1.7 1.7 0 0 1 1 .5 1.8 1.8 0 0 0-1.6-.5 339.3 339.3 0 0 0-70 26 15.9 15.9 0 0 0 2 0h-2l-40 18a444 444 0 0 1-43 20c2.5-.2 5-.6 7.5-1 2.2.8 4.4 1.3 6.5 1.5a4800.6 4800.6 0 0 0 69-34 272.9 272.9 0 0 1 21-8.5 249.4 249.4 0 0 1 56-18 247.4 247.4 0 0 1 63 3 1080.5 1080.5 0 0 0 97 11l99 3.5a790.8 790.8 0 0 1 40 6.5c35.7 8 69 21.4 100 40.5a72.3 72.3 0 0 1 7 7.5V766a5 5 0 0 1 0 1.5l5 16c2 4.4 3.5 9 4.5 14a510 510 0 0 1 7.5 58c.6 8.7-2.8 15.4-10 20a116 116 0 0 1-38 2.5 380 380 0 0 0-44-5.5 77 77 0 0 0-10 1 277.5 277.5 0 0 1 13 4h1c20.4 4.4 40.4 9.7 60 16a809.4 809.4 0 0 1 27 8l48 19c1.5 1.2 3.1 2.2 5 3l16 7a56 56 0 0 0 11 6l1-2.5a100 100 0 0 1-2-17.5l-2-5c-6.5-45.3-12.8-90.6-19-136-.3-1.1-1-2-2-2.5a213.3 213.3 0 0 0-19-6.5l-8-4a2609.8 2609.8 0 0 1-63-27l-18-9a651.4 651.4 0 0 1-31-13 100.5 100.5 0 0 1-15-6 1701 1701 0 0 1-44-16c-7.3-1.7-14.5-3.7-21.5-6-2.1.2-4 .9-5.5 2-6 1.3-12 2.3-18 3a420.6 420.6 0 0 1-44 6.5l-22 .5c-28 0-55.7-2.7-83-8-9-1.2-18-2.6-27-4a94 94 0 0 0-23.5-3zm216.5 6.2zm-208 1.3a6.8 6.8 0 0 0-1 3.3v1.2a7.2 7.2 0 0 1 0-2.4 6.3 6.3 0 0 1 1-2.1zm228 1.5a14.8 14.8 0 0 0 3 3.5 44.7 44.7 0 0 0 8 3.5 44.7 44.7 0 0 1-8-3.5 14.8 14.8 0 0 1-3-3.5zm-49 3.5c-10 1.3-20.2 2.6-30.3 3.6a1152 1152 0 0 0 30.3-3.6zm-30.6 3.7c-10.1 1-20.3 2-30.4 2.8a1152 1152 0 0 0 30.4-2.8zm116.1 4.8a10.6 10.6 0 0 0 3.3 2.9 9.2 9.2 0 0 0-3.3-2.9zM821.5 706a244.8 244.8 0 0 0-10.6 4.4 244.8 244.8 0 0 1 10.6-4.4zm344.8 1.6c.2 0 .4 0 .5.2l-.5-.2zm0 0c-.1 0-.3 0-.5.2l.5-.2zm17.2 2.9zm-19 1c-4 1.2-8 2.2-12 3a146.5 146.5 0 0 0 12-3zm-356.2 0a244.8 244.8 0 0 0-10.3 5l-1.9.6a15.9 15.9 0 0 0 1.9-.6 244.8 244.8 0 0 1 10.3-5zm-12.8 5.7-1.4.2a15.9 15.9 0 0 0 1.4-.2zm487 32.8a11.8 11.8 0 0 1 4.4 1.1 10.9 10.9 0 0 1-4.4-1.1zm4 4-1.2.9c-.3.3-.6.6-.7 1 .1-.4.4-.7.7-1l1.2-.9zm-12.5 10.5a5 5 0 0 1 .5 1.4l-.5-1.4zm20.5 8a11.2 11.2 0 0 0 1 4.5c-.7-1.4-1-3-1-4.5zm10 10c-1.6.8-3.2 1.3-5 1.5a14.7 14.7 0 0 0 5-1.5zm-8.5 4.4.4.3a.6.6 0 0 1-.4-.3zm28 17.6zm-4 19zm35.5 24a61 61 0 0 0 .2 6.5c-.2-2.1-.3-4.3-.2-6.5zm.2 6.5a61 61 0 0 0 .8 6.5c-.4-2.1-.7-4.3-.8-6.5zm-44.7 13.5a5 5 0 0 1 .5 1.4l-.5-1.4zm.5 1.5a5 5 0 0 1 0 1.5V869zm45.5 4.5a10.3 10.3 0 0 1 2.6 2.6 9 9 0 0 1-2.6-2.6z" style="opacity:1;fill:#6b99a2;fill-opacity:1"/><path d="M913 719.5c-30.3 1-59.8 6.3-88.5 16a141.4 141.4 0 0 0-25 8 867.8 867.8 0 0 1-64 23.5 132 132 0 0 1-38 3.5c.1.6.4 1.1 1 1.5l6 1a8.6 8.6 0 0 1-6.5 1.5c-1.3 3.7-.3 6.3 3 8 .2 1.9.9 3.6 2 5l.5 6a517.4 517.4 0 0 0-3 32 8788 8788 0 0 0-8 70 3 3 0 0 0-3 1c2.6 2.5 2.6 5.8 0 10 1 2.7 2.8 4.4 5.5 5 2.7-2.6 5.7-5 9-7 1.5.8 3.2.8 5 0a51.7 51.7 0 0 1 12.5-4.5 20 20 0 0 1 14-5c4.7-3.6 10-5.1 16-4.5v-3a99.3 99.3 0 0 1 20-6 43.8 43.8 0 0 1 2 1 12 12 0 0 1 10-3v-3a517.3 517.3 0 0 1 32-3.5 234 234 0 0 1 62-9.5h2c-2.1-.8-4.5-1.3-7-1.5a43.1 43.1 0 0 1 5-1.5c3.5 1.1 6.8.6 10-1.5a164 164 0 0 1 39.5-1.5c3.6-1.7 7.4-3 11.5-3.5a79 79 0 0 1 21.5.5l14.5-2 64 2h9c8.8-1.5 17.8-2.4 27-2.5a1171.5 1171.5 0 0 1 98.5 1.5c9.2.7 18-.7 26.5-4a63.8 63.8 0 0 1 6.5-7c6-14.2 6.9-28.5 2.5-43-1.7-10-6-18.7-13-26a75.6 75.6 0 0 0-18-14.5 148.5 148.5 0 0 0-56-15c-32.7-.4-65.4-2-98-5-6.9-.7-13.5-2-20-3.5a2484.3 2484.3 0 0 1-68-14.5c-7.5-1-15-1.5-22.5-1.5zm-158.7 47zm0 0c-.5 0-1 .1-1.4.3l1.4-.3zm268.9 5zm-41.7 3.5a50.5 50.5 0 0 0 10 .5c-3.4.2-6.7 0-10-.5zm57.5 5.5a5 5 0 0 1 .5 1.4l-.5-1.4zm.5 1.5a5 5 0 0 1 0 1.5V782zm-323 1.5a448.3 448.3 0 0 0-.8 24.9 448.3 448.3 0 0 1 .8-24.9zm372 26.5zm-372.8 4.6a448.3 448.3 0 0 0 .8 24.9 448.3 448.3 0 0 1-.8-24.9zm51.8 48.9zm-15 3.5zm7.5 10.5z" style="opacity:1;fill:#ecf8ec;fill-opacity:1"/><path d="M889.6 694.7a247.4 247.4 0 0 0-21.1.8 249.4 249.4 0 0 0-56 18 272.9 272.9 0 0 0-21 8.5 4800.6 4800.6 0 0 1-69 34c-2.1-.2-4.3-.7-6.5-1.5-2.5.4-5 .8-7.5 1a34.3 34.3 0 0 0-11 3 112.2 112.2 0 0 0-2 12h2a132 132 0 0 0 38-3.5 867.8 867.8 0 0 0 64-23.5 141.4 141.4 0 0 1 25-8c28.7-9.7 58.2-15 88.5-16a175.6 175.6 0 0 1 22.5 1.5 2484.3 2484.3 0 0 0 68 14.5 144 144 0 0 0 20 3.5c32.6 3 65.3 4.6 98 5 19.7 1.3 38.4 6.3 56 15a75.6 75.6 0 0 1 18 14.5c7 7.3 11.3 16 13 26a61.4 61.4 0 0 1-2.5 43 63.8 63.8 0 0 0-6.5 7 59.9 59.9 0 0 1-26.5 4c-32.8-1.9-65.6-2.4-98.5-1.5-9.2.1-18.2 1-27 2.5h-9a871.2 871.2 0 0 0-59 1 1050 1050 0 0 1 114 4c-3.3-1-6.6-2.2-10-3.5a182.3 182.3 0 0 0 10 3.5h2a1497.3 1497.3 0 0 1 54 7c1-.2 1.7.2 2 1a562.5 562.5 0 0 1 38 6 77 77 0 0 1 10-1 380 380 0 0 1 44 5.5 116 116 0 0 0 38-2.5 20.5 20.5 0 0 0 10-20 510 510 0 0 0-7.5-58 59 59 0 0 0-4.5-14l-5-16a72.3 72.3 0 0 0-7-7.5c-31-19-64.3-32.6-100-40.5a790.8 790.8 0 0 0-40-6.5l-99-3.5a1080.5 1080.5 0 0 1-97-11 247.4 247.4 0 0 0-42-3.8zm-68.1 23.8a14.3 14.3 0 0 0 5 1 12.7 12.7 0 0 0-5-1zm-12 6.5a63.5 63.5 0 0 0 11 2.5 63.5 63.5 0 0 1-11-2.5zm259.5 13.5a57.8 57.8 0 0 0-6.3.2c2.1-.2 4.2-.3 6.3-.2zm153.5 10.5c-.5.5-1 1-1.5 1.3a6.8 6.8 0 0 1-3.5 1.3 7.1 7.1 0 0 0 5-2.6zm33.6 18zm7.9 6.5a97.7 97.7 0 0 0-.5 14 97.7 97.7 0 0 1 .5-14zm-70.5 81.5zm-86 4.3a189 189 0 0 1 .1 0h-.1zm24.1 2a189 189 0 0 1 .1 0h-.1zm41.9.7c-2 .5-4 1-6 1.3a55.9 55.9 0 0 0 6-1.3zm-25.5.5a21.5 21.5 0 0 1-4.5 1 21.5 21.5 0 0 0 4.5-1zm19.5.8c-2 .4-4 .6-6 .7a55.9 55.9 0 0 0 6-.7zm14.2 0 1.8.2a13.1 13.1 0 0 0-3.6 0 13.1 13.1 0 0 0-3.4 1 13.3 13.3 0 0 1 5.2-1.1zM555.5 742.5a3 3 0 0 0 1 3 550 550 0 0 1 8 7l11 6 14 9a677.4 677.4 0 0 1 31 16 9.9 9.9 0 0 1 2.7 0 9.9 9.9 0 0 0-2.7 0l1 2c11.7 6.8 15.5 16.8 11.5 30a31.2 31.2 0 0 1-25.5 16.5c-9.7.7-19.3.7-29 0a5.5 5.5 0 0 1-3-1.5 81.8 81.8 0 0 1-29-9 9 9 0 0 1-5.5-3c-.4.6-.9.9-1.5 1 1.6 1 3 2.3 4 4a317.8 317.8 0 0 0 35 22 195.5 195.5 0 0 0 24 11 27.2 27.2 0 0 1 5 3 717.4 717.4 0 0 0 34 11.5 50.5 50.5 0 0 0 15 1.5c-.2-5 .8-9.7 3-14v-1l4-21a276.4 276.4 0 0 0 4-23 253 253 0 0 0 4-25 261 261 0 0 0 5-27c-17.7 1-35.3 1.1-53 .5-16-1.2-31.3-4.7-46-10.5-3-.2-5.7-1.2-8-3a65 65 0 0 1-14-6zm68.4 41.1a9.9 9.9 0 0 1 2.6.9 9.9 9.9 0 0 0-2.6-.9zm12.7 32.7zm24.4 20.2zm-37.2 26.2a206 206 0 0 1 2.6 1 206 206 0 0 0-2.6-1z" style="opacity:1;fill:#a6c7c6;fill-opacity:1"/><path d="M695.5 770.5a576.8 576.8 0 0 1-8 43v2a85.2 85.2 0 0 0-2 14 3546.4 3546.4 0 0 0-14 73 509.3 509.3 0 0 0-6 26l4-1 16-10a657 657 0 0 1 184-52l8-2a234 234 0 0 0-62 9.5 517.3 517.3 0 0 0-32 3.5v3a12 12 0 0 0-10 3l-2-1a99.3 99.3 0 0 0-20 6v3c-6-.6-11.3.9-16 4.5a20 20 0 0 0-14 5 51.7 51.7 0 0 0-12.5 4.5c-1.8.8-3.5.8-5 0-3.3 2-6.3 4.4-9 7a7.4 7.4 0 0 1-5.5-5c2.6-4.2 2.6-7.5 0-10a3 3 0 0 1 3-1 8788 8788 0 0 1 8-70 517.4 517.4 0 0 1 3-32l-.5-6a9.9 9.9 0 0 1-2-5c-3.3-1.7-4.3-4.3-3-8 2.1.4 4.3 0 6.5-1.5l-6-1c-.6-.4-.9-.9-1-1.5h-2zm-6.5 45zm7 3a7.3 7.3 0 0 0-2 3 7.3 7.3 0 0 1 2-3z" style="opacity:1;fill:#fbfdef;fill-opacity:1"/><path fill="#f2f3ee" d="M1038.5 854.5c-19.8-.3-39.5 0-59 1h-2a1012.6 1012.6 0 0 0-98 8c-2.1-.8-4.5-1.3-7-1.5a43.1 43.1 0 0 1 5-1.5c3.5 1.1 6.8.6 10-1.5a164 164 0 0 1 39.5-1.5c3.6-1.7 7.4-3 11.5-3.5a79 79 0 0 1 21.5.5l14.5-2 64 2Z" style="opacity:1"/><path d="M992 875.3c-34 .3-68.2 2.4-102.5 6.2l-10 2h-2c-4.5.1-8.9.8-13 2-10.6 1.2-21 3.2-31 6a390.5 390.5 0 0 0-80 20 7.7 7.7 0 0 1 0 2.6 7 7 0 0 1 0-2.6 384 384 0 0 0-43 15c-.3.8-1 1.2-2 1a364.9 364.9 0 0 0-47.5 26 1884.9 1884.9 0 0 0-5.5 26c-1 8.9-2.7 17.6-5 26a472.5 472.5 0 0 1-5 33c2.7-4.6 4.7-9.6 6-15l-1-2c2.7-7.8 4.3-7.8 5 0h8c.3-4 .7-4 1 0 1.5.3 2.8 0 4-1 .3-3.1 1.3-5.8 3-8a187.8 187.8 0 0 1 5-30.5 8 8 0 0 1-1-3.5 76 76 0 0 0 4.5-20c.5-2 1.6-3.3 3.5-4a44.8 44.8 0 0 0 14-6.5 18.5 18.5 0 0 1 6-.5v-3a29 29 0 0 0 8-2 153.3 153.3 0 0 1 18-10 9.9 9.9 0 0 1 6-1v-4c3.2-.9 6.6-.9 10 0a466 466 0 0 0 54-16 133.6 133.6 0 0 0 16-2.5c1-.3 1.6-.8 2-1.5a62.4 62.4 0 0 1 9-3.5 62.4 62.4 0 0 0-9 3.5 1221.8 1221.8 0 0 1 79-13.5l47-2.5c45.1-4.5 90.5-5.2 136-2a791.4 791.4 0 0 0 56 6 393.7 393.7 0 0 1 34 4 749.2 749.2 0 0 1 34.5 2 4 4 0 0 1 2-1 87 87 0 0 1 24.5 6.5l-2 1a20 20 0 0 1 15 3l-2 1a10.3 10.3 0 0 0 4 1.5c2.8-1.6 5.8-2.2 9-2-13-4.3-26-8.3-39-12a975.3 975.3 0 0 0-223.4-24.2zm131 9.2a16.3 16.3 0 0 0-3.5 1.5c1.1-.6 2.3-1.1 3.5-1.5zm.5 4.5a10.3 10.3 0 0 0-4 1.5 9.7 9.7 0 0 1 4-1.5zm-385 33.8a19.4 19.4 0 0 0 .9.7 19.4 19.4 0 0 1-.9-.7zm5.8 2.3h.2l.3.2a1 1 0 0 0-.3-.2 1.2 1.2 0 0 0-.2 0z" style="opacity:1;fill:#fbfdef;fill-opacity:1"/><path d="M1028.3 887.5a797 797 0 0 0-84.8 4l-47 2.5a1221.8 1221.8 0 0 0-79 13.5c-.4.7-1 1.2-2 1.5a133.6 133.6 0 0 1-16 2.5 466 466 0 0 1-54 16c-3.4-.9-6.8-.9-10 0v4a9.9 9.9 0 0 0-6 1 153.3 153.3 0 0 0-18 10 29 29 0 0 1-8 2v3a18.5 18.5 0 0 0-6 .5 44.8 44.8 0 0 1-14 6.5c-1.9.7-3 2-3.5 4a76 76 0 0 1-4.5 20 8 8 0 0 0 1 3.5 187.8 187.8 0 0 0-5 30.5 14.5 14.5 0 0 0-3 8 4.9 4.9 0 0 1-4 1c-.3-4-.7-4-1 0h-8c-.7-7.8-2.3-7.8-5 0l1 2a51.7 51.7 0 0 1-6 15v1a19 19 0 0 0 1 6c-.4 1.6-1.1 3.1-2 4.5 1.3 1.7 1.3 3.3 0 5 .9 2.2 2.6 3 5 2.5l5-2c8.8-6.2 18.1-11.7 28-16.5a547.2 547.2 0 0 1 135-42 1206.1 1206.1 0 0 1 230-15.5c2.9.3 5.5 0 8-1 13.3-1.3 26.6-2 40-2a2336 2336 0 0 0 85-3.5 151.3 151.3 0 0 0 17-3c8-1.6 14.2-5.7 18.5-12.5a42.1 42.1 0 0 0-18.5-48c-1-1.4-2.4-2.6-4-3.5a552 552 0 0 1 104 20.5l-4-4a446.4 446.4 0 0 0-39-13c-3.2-.2-6.2.4-9 2a9.7 9.7 0 0 1-4-1.5l2-1c-4.7-3-9.7-4-15-3l2-1a87 87 0 0 0-24.5-6.5 4 4 0 0 0-2 1 749.2 749.2 0 0 0-34.5-2 393.7 393.7 0 0 0-34-4 791.4 791.4 0 0 1-56-6c-17-1.2-34.1-1.9-51.2-2zm147.2 72a21.1 21.1 0 0 1 .1 2.2l-.1-2.2zm16 .5c-1.8.7-3.6 1.2-5.5 1.5a25.7 25.7 0 0 0 5.5-1.5zm-15.9 1.8a21.1 21.1 0 0 1-.1 2.2l.1-2.2zm-.1 2.3a21.1 21.1 0 0 1-.4 2.2l.4-2.2zm-.4 2.2a21.1 21.1 0 0 1-.6 2.2l.6-2.2zm-264.6 10.2zm0 0c-6.1 2.2-12.3 4-18.5 5.8a238.8 238.8 0 0 0 18.5-5.8zm131 1c-6.8.6-13.6.9-20.5 1a285.7 285.7 0 0 0 20.5-1zm-41 .5a285.7 285.7 0 0 0 20.5.5c-6.8 0-13.7 0-20.5-.5zm-108.6 4.3a288 288 0 0 1-18.9 4.2 238.8 238.8 0 0 0 19-4.2zM671.2 1020z" style="opacity:1;fill:#ecf8ec;fill-opacity:1"/><path d="M1193.5 908c1.6 1 3 2.1 4 3.5a42.1 42.1 0 0 1 18.5 48 27.4 27.4 0 0 1-18.5 12.5 151.3 151.3 0 0 1-17 3 2336 2336 0 0 1-85 3.5 403.2 403.2 0 0 0-40 2c-2.1.8-4.4 1.2-6.8 1a387.2 387.2 0 0 1 30.8 3c8 0 16 .3 24 1a512.5 512.5 0 0 1 50 6h6a257.2 257.2 0 0 0 24 4 1334 1334 0 0 1 61 12c4.8-1.5 9.8-2.2 15-2l15-2.5a32.3 32.3 0 0 0 27.5-29.5c1.4-13.6.3-27-3.5-40-.5-1.6-.9-3.3-1-5a552 552 0 0 0-104-20.5zm-144.8 73.6a387.2 387.2 0 0 0-1.2-.1h1.2zm229.3-42.1a25.9 25.9 0 0 0 4.5 4 25.9 25.9 0 0 1-4.5-4zm-6.4 4.8zm-.6 2.2a47.1 47.1 0 0 1-3.6 3.2 46.9 46.9 0 0 0 3.6-3.2zm-3.6 3.2c-1.3 1-2.6 2-3.9 2.8a46.9 46.9 0 0 0 3.9-2.8zm-11.9 8.8zm-22.5 38a326.2 326.2 0 0 0 14.5 1c-5-.2-9.8-.6-14.5-1z" style="opacity:1;fill:#a6c7c6;fill-opacity:1"/><path d="m1293.5 924.5 4 4a20.6 20.6 0 0 0 1 5c3.8 13 5 26.4 3.5 40a32.3 32.3 0 0 1-27.5 29.5l-15 2.5c-5.3-.2-10.3.5-15 2 11.8 3.5 23.5 7.2 35 11a304 304 0 0 1 32 12c17 5.2 33 12.6 48 22a7 7 0 0 1 5 3c1.8.4 3.5 1 5 2a313.2 313.2 0 0 1 19 13 17 17 0 0 0 .5-10l-7.5-51a2411 2411 0 0 1-5.5-47 131.8 131.8 0 0 0-16.5-9c-8.4-5.1-17.1-9.8-26-14a195.3 195.3 0 0 1-17-7 234.2 234.2 0 0 0-23-8zm79.7 40a8.4 8.4 0 0 0 .5 0 8.4 8.4 0 0 1-.5 0zm-37.2 21.4-.5.1.5.1-.5-.1.5-.1zm7.5.6a127.5 127.5 0 0 0 0 8 127.5 127.5 0 0 0 .5 8 128.6 128.6 0 0 1-.5-16zm8 5.8zm-57.1 5.4a70.2 70.2 0 0 0-2 .5 70.2 70.2 0 0 1 2-.5zm53.2 0a29.7 29.7 0 0 0-.8 1 29.7 29.7 0 0 1 .8-1zm-76.1 8.8zm1.7 3v.3c-.1.1-.2.2-.4.1h.4v-.5zm-4.6.4-.7.3.7-.3zm-5.1 1.6a322.8 322.8 0 0 0 10 2.8l-10-2.8zm12.8 3.5a322.8 322.8 0 0 0 7.6 1.8l-7.6-1.8zm10.6 2.5a322.8 322.8 0 0 0 10.1 2 330 330 0 0 1-10.1-2zm40.6 0a21.1 21.1 0 0 1 0 1v-1zm0 1.2a21.1 21.1 0 0 1 .1 1v-1zm.1 1.2a21.1 21.1 0 0 1 0 1v-1zm0 1a21.1 21.1 0 0 1-.1 1.2v-1.1zm-.1 1.2a21.1 21.1 0 0 1-.2 1 21.1 21.1 0 0 1-.5 2.3 21.1 21.1 0 0 1-.3 1.1 8.1 8.1 0 0 0-2.6-2.2 7.7 7.7 0 0 0 2.6 2.2 22.4 22.4 0 0 0 1-4.4zm-18 4.9z" style="opacity:1;fill:#6b99a2;fill-opacity:1"/><path d="M959.5 1006.5a65 65 0 0 1-16 1 1778 1778 0 0 0-80 7c-16 2.6-32 5.6-48 9a618.8 618.8 0 0 0-48 10l-32 11a139 139 0 0 1 10-1.5c-2.5 1-3.5 2.8-3 5.5a29.3 29.3 0 0 1 6.5 1 969.5 969.5 0 0 0 20.5-5 61.2 61.2 0 0 0-7.5 0 61.2 61.2 0 0 0-7.5 1 61.2 61.2 0 0 1 7.5-1 61.2 61.2 0 0 1 7.5 0h3c2.3-.5 4.6-.8 7-1a1085.6 1085.6 0 0 1 132-16 1825.5 1825.5 0 0 1 176 3 1031 1031 0 0 0 40 1.5 1026.7 1026.7 0 0 1-40-1.5 813 813 0 0 1 67 11 347 347 0 0 1 64 22.5 79 79 0 0 0 15 7.5 97.5 97.5 0 0 0 21 16.5c3.5 4.5 7.3 8.6 11.5 12.5.5 1 .7 2 .5 3a3 3 0 0 1 3 1c3.3 4.5 6.8 8.8 10.5 13 21 34.9 30.9 72.9 29.5 114 .8 5.2 1.3 10.5 1.5 16l.5 64c0 39.4-.6 78.7-2 118 .5 3.2-.1 5.9-2 8a53 53 0 0 1 25.5 16c6 12.4 4.2 23.4-5.5 33-.3.8-1 1.2-2 1a46.3 46.3 0 0 1-11 8.5c-6 2.8-12 5.3-18 7.5h4a58 58 0 0 1-.5 11 536.5 536.5 0 0 0-6.5 37 305.3 305.3 0 0 1-33 79c-3 3.2-5.8 6.5-8.5 10-5.5 7.7-11.7 15-18.5 22a619.7 619.7 0 0 1-34 29l-27 15.5a8.8 8.8 0 0 1-5 1.5v3a13 13 0 0 0-5 .5 530.7 530.7 0 0 1-37 15.5 67.4 67.4 0 0 0 8-.8 67.4 67.4 0 0 0 8-1.7 67.4 67.4 0 0 1-16 2.5h-1a745 745 0 0 1-196 29.5c-48.4 1.1-96.7.3-145-2.5a537.8 537.8 0 0 1-77-13.5c-19.4-5.5-38-12.7-56-21.5a7.7 7.7 0 0 0 0 5 82.4 82.4 0 0 1 5 11 185.1 185.1 0 0 0 29 39.5c.6.5 1.3.6 2 .5v-2c-.6-.4-1-.9-1.5-1.4a6.7 6.7 0 0 1-1.5-3.5 6.8 6.8 0 0 0 3 4.9c10.3-1.4 20.6-2 31-2a3978.2 3978.2 0 0 0 45 2 41.7 41.7 0 0 1 5 1.5c26.7.4 53.4 1.6 80 3.5a3055.6 3055.6 0 0 0 176-3c10.9-.5 21.5-1.5 32-3a718 718 0 0 0 149-27.5c27.8-10 54.1-23 79-39a206.8 206.8 0 0 0 62.5-72.5 86 86 0 0 1 8.5-18 343.3 343.3 0 0 0 18-80 293 293 0 0 0 3-30v-10a11369.6 11369.6 0 0 0 1-296l-1-16a188 188 0 0 0-20.5-55 36.3 36.3 0 0 0-9.3-10.3l-1.7-1.7c-.4 1.2-1 2.2-2 3a7.4 7.4 0 0 0 2-3 15.4 15.4 0 0 0 3.5 3l-4-8c-10.3-11-21-21.7-32-32-8.4-6.4-17-12.4-26-18l-6-5a87 87 0 0 1-24-16.5c1.3-.5 2.6-.7 4-.5a349 349 0 0 0-42-12c-22-4.4-44-8.4-66-12-29.4-3.4-58.7-6-88-8h-24a805.5 805.5 0 0 0-36.7.8 805.5 805.5 0 0 1 36.7-.8v-1h-80zm34.1 2.3a805.5 805.5 0 0 0-36.6 2.7 805.5 805.5 0 0 1 36.6-2.7zm65.4.7a75 75 0 0 1-19.5.5 74.5 74.5 0 0 0 9.8.4 74.5 74.5 0 0 0 9.7-.9zm34 3zm9.8.3zm9.7 1.7c4.3.9 8.7 1.9 13 3 .3.2.6.3.7.5.2.2.3.3.3.5s0 .3-.3.5c.2-.2.3-.3.3-.5s0-.3-.3-.5a3 3 0 0 0-.7-.5c-4.3-1.1-8.7-2.1-13-3zm8.5 9zm-242.5 3a139 139 0 0 1-11.4 1.7 138.3 138.3 0 0 0 11.4-1.7zm-11.5 1.7c-3.8.4-7.6.7-11.5.8a138.3 138.3 0 0 0 11.5-.8zm-44 .3a21 21 0 0 0-6.5 3 21 21 0 0 1 6.5-3zm383.5 2zm-1.6 2zm-421.4 1c-5.3 1.1-10.6 2.1-16 3a92.3 92.3 0 0 1-7.8 3.9 92.3 92.3 0 0 1-8.2 3.1 92.3 92.3 0 0 0 8.2-3.1 92.3 92.3 0 0 0 7.8-3.9 294.4 294.4 0 0 0 16-3zm400 2zm-396.4 2.4zm404.9 5.6zm-439.3 1a7.4 7.4 0 0 0 .4.3 7.4 7.4 0 0 1-.4-.2zm521.8 18zm-5.4 4c-.3.4-.6.8-.7 1.2a3 3 0 0 0-.3 1.4c0 .4.2.9.4 1.4a53 53 0 0 0-6 9.5 53 53 0 0 1 6-9.5l-.4-1.4c0-.5.1-1 .3-1.4.1-.4.4-.8.7-1.1zm-22.6 12.5a62.3 62.3 0 0 0 9 6 62.3 62.3 0 0 1-9-6zm89 40.5c0 .9-.1 1.7-.3 2.4a8.6 8.6 0 0 1-2.2 4 8.8 8.8 0 0 0 2.5-6.4zm-5 27zm14 15zm-.5 33a8.4 8.4 0 0 1 2.8 1.7 7.3 7.3 0 0 1-2.8-1.7zm12.5 5.5a8.4 8.4 0 0 1-1.7 2.8 7.3 7.3 0 0 1 1.7-2.8zm2 14zm1 18.5a7.3 7.3 0 0 1-2 2.5l1 .6a3 3 0 0 1 1 1.8v1.1-1.1a3 3 0 0 0-1-1.8l-1-.6a7.3 7.3 0 0 0 2-2.5zm12.2 8.3zm-49.2 191.2a169.1 169.1 0 0 0 12 9.5 83 83 0 0 0 6.1 7.1 82.5 82.5 0 0 1-6.1-7.1c-4.2-3-8.2-6.2-12-9.5zm18.1 16.6a83 83 0 0 0 6.9 6.4 84 84 0 0 1-6.9-6.4zm10.9 14.9a8.4 8.4 0 0 0 .5 4 8.4 8.4 0 0 1-.5-4zm19 24a51.6 51.6 0 0 1 0 3.8v-3.8zm0 3.8a51.6 51.6 0 0 1-.4 3.8 51.6 51.6 0 0 1-.7 3.7 51.6 51.6 0 0 1-.9 3.7 52.3 52.3 0 0 0 2-11.2zm-41.1 34.6zm-9.9 1.6zm-5 .5zm28.5 1.5zm-43.5 1a50 50 0 0 1 1.5 10c-.1.8-.4 1.5-.7 2.1a4.8 4.8 0 0 1-2.8 2.5 4.8 4.8 0 0 0 2.8-2.5c.3-.6.6-1.3.7-2.1a47 47 0 0 0-1.5-10zm19.4 1.2zm19.4 1.9zm4.2 2.4a22.6 22.6 0 0 0-3.5 7.9 19.9 19.9 0 0 0 0 8.6 22.7 22.7 0 0 1 0-8.6 19.8 19.8 0 0 1 3.5-7.9zm-6.5 32.5a23.7 23.7 0 0 0 7.4 3.5 21.7 21.7 0 0 0-7.4-3.5zm-8.5 2zm-23 13zm22 16zm-32.2 3.5zm-1.6 1zm2.5.2zm19.8 7.3zm-19.5 9c.1.6 0 1.1 0 1.6 0-.5.1-1 0-1.6zm18 10 1.4 1c.5 0 1 .1 1.6 0-.6.1-1.1 0-1.6 0l-1.4-1zm-11 12.5a7.2 7.2 0 0 0-3.5 2.5 7 7 0 0 1 3.5-2.5zm-25 12.4zm-9 8.1a14.5 14.5 0 0 0 .2 5.4 11.6 11.6 0 0 0-.4-2.6c0-1 0-1.8.2-2.8zm19 1c-2.6.7-5.3 1.2-8 1.5a65.9 65.9 0 0 0 8-1.5zm-8 1.5c-2.6.3-5.3.5-8 .5a65.9 65.9 0 0 0 8-.5zm-22.8 17zm1.6 1zm-2.5.2zm-32.3 18.3 1.4 1-1.4-1zm-40 9a64.4 64.4 0 0 1 25 5 19 19 0 0 1 7.8-2.4c1.3-.1 2.7 0 4 .2a21.2 21.2 0 0 1-4-.2 16.7 16.7 0 0 0-7.8 2.4 62.4 62.4 0 0 0-25-5zm-27 8.5a52.7 52.7 0 0 0-10 1.5c3.3-.8 6.6-1.3 10-1.5zm14 0c-1 1.3-2 2.6-3.1 3.6a21.7 21.7 0 0 0 3.1-3.6zm-3.1 3.6c-1.2 1.1-2.5 2-3.9 2.9a21.7 21.7 0 0 0 3.9-2.9zm-475 25.6zm0 0a18.8 18.8 0 0 0-5.4.8 14 14 0 0 0-6.4 4.1 18 18 0 0 0 2-1.8 13.8 13.8 0 0 1 7-3h2.8zm347.4.6c.2.2.2.4.2.7 0-.3 0-.5-.2-.7zm-283 3.3a329 329 0 0 0 5.3.4 329 329 0 0 1-5.3-.4zm21.2 4.4c-9.4 1.5-19 2.4-28.5 2.5a189.7 189.7 0 0 0 28.5-2.5zm21 5a5 5 0 0 1 .5 1.5l-.5-1.5zm-13.5 1zm14 .5a5 5 0 0 1 0 1.5v-1.5zm-117.8 0-.7 1c-.2.1-.5.3-.8.3l-.8-.1c.3.1.6.2.8.1.3 0 .6-.2.8-.4.3-.2.5-.5.7-1zm52.8 1.5 1 1.4-1-1.4zm234.7 1h6.3a109.6 109.6 0 0 0-12.6.3 109.6 109.6 0 0 0-12.4 1.7 109.8 109.8 0 0 1 18.7-2zm-204.7.5a22.6 22.6 0 0 0-7 2c2.2-1 4.5-1.7 7-2zm243 .5a193.3 193.3 0 0 0-16 .3 193.3 193.3 0 0 0-16 1.7 193.6 193.6 0 0 1 32-2zm-165.4 4a9.4 9.4 0 0 1 4 .6 9.4 9.4 0 0 0-5.3-.5 12.3 12.3 0 0 0 1.3-.1zm34.8 0 1.3.1a9.7 9.7 0 0 0-1.3-.1z" style="opacity:1;fill:#fcb7b9;fill-opacity:1"/><path d="M955.5 1026.7c-14.6 0-29.3.3-44 .8a1085.6 1085.6 0 0 0-132 16c-2.4.2-4.7.5-7 1h-3a969.5 969.5 0 0 1-20.5 5c-2.1-.6-4.3-1-6.5-1-.5-2.7.5-4.6 3-5.5l-10 1.5c-3 .2-5.7 1.2-8 3a6 6 0 0 0-5 2c3 .8 5.4 2.7 7 5.5a9.4 9.4 0 0 0-1.5 2.5 483.8 483.8 0 0 0-37.5 29.5 5 5 0 0 1-3 .5c.1 1 0 2-.5 3a297.2 297.2 0 0 0-19.5 20 233 233 0 0 1-19.5 30 181.1 181.1 0 0 0-8.5 27c-2.2 7.7-3.5 15.7-4 24-.7 0-1 .3-1 1v371c-.3 29.2 0 58.2 1 87 .3 10 1.6 19.6 4 29v4c.8 9.7 3 18.8 7 27.5-1.3 2-.8 3.5 1.5 4.5 0 3.5.8 6.5 2.5 9a7.7 7.7 0 0 1 0-5 333.7 333.7 0 0 0 56 21.5 537.8 537.8 0 0 0 77 13.5c48.3 2.8 96.6 3.6 145 2.5a745 745 0 0 0 196-29.5h1a530.7 530.7 0 0 0 37-15.5 13 13 0 0 1 5-.5v-3a8.8 8.8 0 0 0 5-1.5l27-15.5a619.7 619.7 0 0 0 34-29c6.8-7 13-14.3 18.5-22a122.3 122.3 0 0 1 8.5-10 305.3 305.3 0 0 0 33-79 536.5 536.5 0 0 1 6.5-37c.5-3.7.7-7.3.5-11h-4c-14.8 3.8-29.8 5-45 3.5a60.2 60.2 0 0 1-35-15.5 19.8 19.8 0 0 1-9-15 29 29 0 0 1-.5-13 48.4 48.4 0 0 1 31.5-24h1a34 34 0 0 1 8-3.5c13.4-2.6 26.7-3.1 40-1.5h1l15 2c1 1 2.4 1.3 4 1l.8-1h.2v-.4c1-1.9 1.4-4 1-6.6 1.4-39.3 2-78.6 2-118l-.5-64c-.2-5.5-.7-10.8-1.5-16 1.4-41.1-8.5-79.1-29.5-114-3.7-4.2-7.2-8.5-10.5-13a3 3 0 0 0-3-1c.2-1 0-2-.5-3-4.2-3.9-8-8-11.5-12.5a97.5 97.5 0 0 1-21-16.5 79 79 0 0 1-15-7.5 347 347 0 0 0-64-22.5 832.5 832.5 0 0 0-67-11c-44-2.9-88-4.2-132-3.8zm-69 40.8a21 21 0 0 1-7 2 21 21 0 0 0 7-2zm-119 15a38.1 38.1 0 0 0-12 2c4-1.3 8-2 12-2zm256 0a29 29 0 0 0-9.5 2 29 29 0 0 1 9.5-2zm-160 101a16.9 16.9 0 0 0 1 8c-1-2.6-1.3-5.3-1-8zm72.5 42a71 71 0 0 1-16.5 1 71 71 0 0 0 16.5-1zm-56.5 37a109 109 0 0 1-14 1.5 99.7 99.7 0 0 0 14-1.5zm-184 25a50.5 50.5 0 0 0 .5 10 48 48 0 0 1-.5-10zm216 15a81.5 81.5 0 0 1-22 .5 81.5 81.5 0 0 0 22-.5zm43 29.5c-9 1.2-18 1.5-27 1a139.8 139.8 0 0 0 27-1zm45 42a5 5 0 0 1 0 1.5v-1.5zm-71 19.5c-5.6 1-11.3 1.3-17 1a77.9 77.9 0 0 0 17-1zm178 13.5a19 19 0 0 1-7 2.5 19 19 0 0 0 7-2.5zm-451 101.5a90.6 90.6 0 0 0 13.5 9 90.6 90.6 0 0 1-13.5-9zm6.8 91zm-22.8 15a61.8 61.8 0 0 0 11 1.5c-3.7-.2-7.4-.7-11-1.5zm14 41a59.7 59.7 0 0 0 2 13 59.7 59.7 0 0 1-2-13zm16.5 32zm-14.5 8a84.9 84.9 0 0 0 .5 13c-.5-4.3-.7-8.7-.5-13zm12 3h2a19.4 19.4 0 0 0-8 1c2-.7 4-1 6-1z" style="opacity:1;fill:#f6e3dc;fill-opacity:1"/><path d="M1258.5 1039.4c-1 0-2 .2-3 .6a87 87 0 0 0 24 16.5l6 5a336.3 336.3 0 0 1 26 18c11 10.3 21.7 21 32 32l4 8a36 36 0 0 1 7.5 9 188 188 0 0 1 20.5 55l1 16c1 98.5.6 197.2-1 296v10a293 293 0 0 1-3 30 343.3 343.3 0 0 1-18 80 86 86 0 0 0-8.5 18c-15.1 29-36 53.2-62.5 72.5-24.9 16-51.2 29-79 39a719.6 719.6 0 0 1-149 27.5 333.8 333.8 0 0 1-32 3 52 52 0 0 1-10 2.5 3169 3169 0 0 1-166 .5c-26.6-1.9-53.3-3-80-3.5-1.7-.6-3.3-1.1-5-1.5l-45-2a212.6 212.6 0 0 0-31 2v2a57.8 57.8 0 0 0 9 9l14 9a30.5 30.5 0 0 0-10.5-10 32.2 32.2 0 0 1 10.5 10 19.6 19.6 0 0 0 6.4-.5 16.4 16.4 0 0 0-6.4.5 71.4 71.4 0 0 0 10 5.5c1.3 1 1.3 1.8 0 2.5v1a160.4 160.4 0 0 0 21 5 330.8 330.8 0 0 0 27 7 629.3 629.3 0 0 0 69 5h3a8918.4 8918.4 0 0 0 166 2 5334.4 5334.4 0 0 0 178-3h16a3161.5 3161.5 0 0 1 51-5.5c12.2-3 24.5-4.9 37-5.5h3a249.4 249.4 0 0 0 69-30c.5-1.4 1.5-2 3-2a201 201 0 0 0 45-50c0-1.1.4-2.1 1-3a47.4 47.4 0 0 0 5-12 142 142 0 0 0 10-31 37 37 0 0 1 1.5-12c.8-166.7.7-333.3-.5-500-2.5-11-6.5-21.4-12-31 0-.7-.3-1-1-1-.9-2.9-2.2-5.6-4-8a194.7 194.7 0 0 0-36-38l-12-7c-2.7-3-6-5-10-6l-6-5a7398 7398 0 0 1-16-7 434.1 434.1 0 0 0-52-21 215 215 0 0 0-17-4zm139.5 83.1c-.7.2-1.3.4-1.7.7-.5.3-.8.6-1 1-.2.3-.3.8-.3 1.2 0-.4 0-.9.3-1.2.2-.4.5-.7 1-1 .4-.3 1-.5 1.7-.7zm-28.5 29zm51.5 13a6.9 6.9 0 0 0 1.5 3 6.9 6.9 0 0 1-1.5-3zm-22.5 3a17 17 0 0 1-1.2 6 15 15 0 0 1 1.2-6zm-23.4 5.9zm16.5 6.4c.2.3.4.5.7.5.2 0 .5-.2.8-.5-.3.3-.6.5-.8.5-.3 0-.5-.2-.7-.5zm-.8 19.6zm31.2 64.1a506.4 506.4 0 0 0 1.5 32c-.8-10.5-1.3-21.2-1.5-32zm-28.5 39.9zm20 96.6a19.2 19.2 0 0 1-6 6.5 18.5 18.5 0 0 0 6-6.5zm-2 15.2zm-1.4 8.2zm4.4 1.6zm-36 6.5zm13.5 51c1 .4 2 1 2.8 1.7a7.7 7.7 0 0 0-2.8-1.7zm14.2 29a13.2 13.2 0 0 1-3.7.5 13.1 13.1 0 0 1 3.7-.6zm-19.7.5c.3 1 .8 1.8 1.5 2.5a6.3 6.3 0 0 1-1.5-2.5zm12 15.5a9.8 9.8 0 0 0-1 4 8.2 8.2 0 0 0 1-4zm7 15.5a20.2 20.2 0 0 0-6 1.5 20 20 0 0 1 6-1.5zm15.4 5zm-30.2 16.4.8.1a6 6 0 0 0-5.5 2 6 6 0 0 1 2.5-1.7 5 5 0 0 1 2.2-.4zm7.8 35.1c0 18.4.1 36.7.5 55l-1.9 1.8a8.3 8.3 0 0 0-1.7 4.5 8.7 8.7 0 0 1 3.6-6.3c-.4-18.3-.6-36.6-.5-55zm-51 42.5a8 8 0 0 1 2 5.5 178.6 178.6 0 0 1 19 .5 181 181 0 0 0-19-.5 8 8 0 0 0-2-5.5zm-625 131.6a217.1 217.1 0 0 1 1 .1 217.1 217.1 0 0 0-1.8 0 217.1 217.1 0 0 1 .8 0zm20 7.4a54.8 54.8 0 0 0-7 2 54.8 54.8 0 0 1 7-2zm-5.5 3.5c-3.6 2-7.1 4.2-10.5 6.5a114.8 114.8 0 0 1 10.5-6.5zm-19.5 9.5z" style="opacity:1;fill:#f58b98;fill-opacity:1"/><path fill="#e1d4d6" d="M645.5 1039.5a19 19 0 0 0 1 6c-.4 1.6-1.1 3.1-2 4.5 1.3 1.7 1.3 3.3 0 5 .9 2.2 2.6 3 5 2.5l-4 4a4 4 0 0 0-3.5 2c-.4-.2-.6-.6-.5-1 .6-8 2-15.6 4-23Z" style="opacity:1"/><path d="M722.5 1049.5a200.4 200.4 0 0 0-21 8 119 119 0 0 0-18 10l1.9.1c.6.2 1 .5 1.6.9a6.6 6.6 0 0 1 3-3 10.5 10.5 0 0 1 3.6 2.6 8.7 8.7 0 0 1 1.9 3.9 10.3 10.3 0 0 0-2-4l-1.5-1.4-2-1.1a6.6 6.6 0 0 0-3 3 4.4 4.4 0 0 0-3.5-1 179 179 0 0 0-55.5 42 116.2 116.2 0 0 0-27.5 61 30601.6 30601.6 0 0 0 0 247.3 30601.6 30601.6 0 0 0 2 247.2 30533 30533 0 0 1-2-494.5c-1.2 166.8-1.3 333.8-.5 501 .2 2.5.7 4.9 1.5 7v1a69.3 69.3 0 0 0 5 8 69.3 69.3 0 0 1-5-8 160 160 0 0 0 13 38c1.5 1.7 2.5 3.7 3 6a168.3 168.3 0 0 0 78 68 106 106 0 0 0 24 10c1.3-.7 1.3-1.5 0-2.5a71.4 71.4 0 0 1-10-5.5l-14-9a57.8 57.8 0 0 1-9-9c-.7.1-1.4 0-2-.5a185.1 185.1 0 0 1-29-39.5 82.4 82.4 0 0 0-5-11 14.9 14.9 0 0 1-2.5-9c-2.3-1-2.8-2.5-1.5-4.5-4-8.7-6.2-17.8-7-27.5v-4c-2.4-9.4-3.7-19-4-29-1-28.8-1.3-57.8-1-87v-371c0-.7.3-1 1-1 .5-8.3 1.8-16.3 4-24a181.1 181.1 0 0 1 8.5-27 233 233 0 0 0 19.5-30 297.2 297.2 0 0 1 19.5-20 5 5 0 0 0 .5-3c1 .2 2 0 3-.5a483.8 483.8 0 0 1 37.5-29.5 9.4 9.4 0 0 1 1.5-2.5c-1.6-2.8-4-4.7-7-5.5zm-21 24.5c-.5.6-1 1-1.7 1.2a5 5 0 0 0 1.7-1.2zm-69 122.5a428.7 428.7 0 0 0 1 33c-.8-11-1-22-1-33zm-28 75zm-2.6 86.1a615.4 615.4 0 0 1 0 1.6 615.4 615.4 0 0 0 0-1.6zm1.7.2a64.9 64.9 0 0 1 0 .5 64.9 64.9 0 0 0 0-.5zm0 .7a64.9 64.9 0 0 1 0 .4 64.9 64.9 0 0 0 0-.4zm-1.4 4.8a615.4 615.4 0 0 1 0 1.1 615.4 615.4 0 0 1 0 1.2 615.4 615.4 0 0 0 0-1.2 615.4 615.4 0 0 0 0-1.1zm.4 12.9a615.4 615.4 0 0 1 0 1.2 615.4 615.4 0 0 1 0 2.2 615.4 615.4 0 0 0 0-2.2 615.4 615.4 0 0 0 0-1.2zm.1 5.2a615.4 615.4 0 0 1 0 1.6 615.4 615.4 0 0 0 0-1.6zm0 4.4a615.4 615.4 0 0 1 0 1 615.4 615.4 0 0 0 0-1zm0 10.4a615.4 615.4 0 0 1 0 1 615.4 615.4 0 0 0 0-1zm0 3.8a615.4 615.4 0 0 1 0 1.6 615.4 615.4 0 0 0 0-1.6zm0 3.4a615.4 615.4 0 0 1 0 2.2 615.4 615.4 0 0 1 0 1.2 615.4 615.4 0 0 0 0-1.2 615.4 615.4 0 0 0 0-2.2zm-.4 14a615.4 615.4 0 0 1 0 1.2 615.4 615.4 0 0 1-.1 1.1 615.4 615.4 0 0 0 0-1.1 615.4 615.4 0 0 0 0-1.2zm-.3 6.4a615.4 615.4 0 0 1-.1 1.6 615.4 615.4 0 0 0 0-1.6zm28.7 39.2zm0 0zm2.9 5a177.6 177.6 0 0 1 0 .7 177.6 177.6 0 0 0 0-.7zm-9.1 2.5zm8.5 12.1a177.6 177.6 0 0 1-.1.9 177.6 177.6 0 0 0 0-.9zm-17.5 1.3a8.4 8.4 0 0 1 0 .2 8.4 8.4 0 0 0 0-.2zm17.3.4a177.6 177.6 0 0 1 0 .6 177.6 177.6 0 0 0 0-.6zm-17.2.1a8.4 8.4 0 0 1 0 .2 8.4 8.4 0 0 0 0-.2zm0 .5a8.4 8.4 0 0 1 0 .2 8.4 8.4 0 0 0 0-.2zm-.2 1a8.4 8.4 0 0 1 0 .2 8.4 8.4 0 0 0 0-.1zm0 .5a8.4 8.4 0 0 1-.1.2 8.4 8.4 0 0 0 0-.2zm-.2.5a8.4 8.4 0 0 1 0 .2 8.4 8.4 0 0 0 0-.2zm11.3 32.6zm-24 40zm1 80.5zm4.5 4.5zm2.5 5.2zm1 5.8a28.8 28.8 0 0 1 0 5v-5zm0 5a28.8 28.8 0 0 1-1 5 6 6 0 0 1-1.1 1.3c-.4.3-.7.5-1 .5-.4 0-.7-.2-1-.5.3.3.6.5 1 .5.3 0 .6-.2 1-.5a6 6 0 0 0 1.1-1.3c.5-1.6.8-3.3 1-5zm-6.4 12.2v.6-.6zm17.9 29.8zm9.5 9a14 14 0 0 1-.6 3.7 6 6 0 0 1-.7 1.4 4.8 4.8 0 0 1-2.3 1.8c-.4.2-1 .3-1.5.3a5 5 0 0 0 4.5-3.5l.4-1.7.2-2zm7 31zm-2.9 1.4.2.3-.2-.3zm.8.4zm24.1 5.7a8.4 8.4 0 0 1-4 .5 8.4 8.4 0 0 0 4-.5zm37.5 38.5a5 5 0 0 1 .3.7 5 5 0 0 1 .2.8 4.9 4.9 0 0 0-.5-1.5zm.5 1.5a5 5 0 0 1 0 .7 5 5 0 0 1 0 .8 5.2 5.2 0 0 0 0-1.5z" style="opacity:1;fill:#fbfdef;fill-opacity:1"/><path fill="#fccfcc" d="M842.5 1103.5c5-.2 10 0 15 .5 5.7 3.6 7.4 8.8 5 15.5a14.1 14.1 0 0 1-15 6l-8-.5a57 57 0 0 0-8-5.5c-.2-2.7 0-5.3.5-8 3.4-3 6.9-5.6 10.5-8Z" style="opacity:1;fill:#fcb7b9;fill-opacity:1"/><path d="M782.3 1162.1c-19.5-.2-38 5.6-55.8 17.4a26.7 26.7 0 0 0-7 5 177 177 0 0 0-11.5 11 22 22 0 0 0-5 24c5.8 8.7 13.7 11.2 23.5 7.5a354.9 354.9 0 0 0 21-14 74.3 74.3 0 0 1 40-10.5c12 1.6 24 2.4 36 2.5a18 18 0 0 0 8-5.5l-14.5 3a773.5 773.5 0 0 0 14.5-3v-1a5 5 0 0 0 2.5-4c1-5.3.4-10.3-2-15a33.3 33.3 0 0 0-16.5-12h-2c-10.6-3.5-21-5.2-31.2-5.4zm-.3 2.4zm-13.8 1a1 1 0 0 1-.2 0 .9.9 0 0 0 .2 0zm31.3 2a7.7 7.7 0 0 0 0 2.6 7 7 0 0 0 0-2.6zm16 1.4a5 5 0 0 0 0 .3 5 5 0 0 1 0-.3zm.5 1.6a46.4 46.4 0 0 1 8.9 7.6 32 32 0 0 1 3.6 5.4 10 10 0 0 1-2-.5 10.2 10.2 0 0 0 2 .5 30 30 0 0 0-6.8-8.6 38.9 38.9 0 0 0-5.7-4.4zm8.5 11.5a10.2 10.2 0 0 0 1.9 1l-1.9-1zm-49 .5a17 17 0 0 1-3.5.9 17 17 0 0 0 3.5-.9zm-4.4 1a17 17 0 0 1-3.6 0 17 17 0 0 0 3.6 0zm-20.1 0a499 499 0 0 1-14.5 15.5 499 499 0 0 0 14.5-15.5zm-35.3 6.4-.2.1a152 152 0 0 1 .2-.1zm53.1 10.6zm-6.8 3-2.7 1a20.4 20.4 0 0 0 2.7-1zm-2.7 1-2.8.5a20.4 20.4 0 0 0 2.8-.6zm-13.8 5.5a20 20 0 0 0-3 .5 20 20 0 0 0-3 1 20.2 20.2 0 0 1 6-1.5zm472.5-48.5a99 99 0 0 0-24.5 3.5 38.9 38.9 0 0 0-26.5 20.5c-.3 15.4 7.2 21.9 22.5 19.5a89 89 0 0 1 71 10.5c5 4.4 10.4 8.4 16 12 16.6 2.9 24.8-4.1 24.5-21-2-4.3-4.3-8.3-7-12a110.7 110.7 0 0 0-41.5-27 178.3 178.3 0 0 0-34.5-6zm-10.4 91.9h-3.1c-21 .5-40.8 10.2-59.5 29.1a95.8 95.8 0 0 0-18.5 85 87 87 0 0 0 5 14c1.5 3.7 3.5 7 6 10a78.3 78.3 0 0 0 29 30 61.7 61.7 0 0 0 12 6 48 48 0 0 0 16 5 84 84 0 0 0 49-4.5 65 65 0 0 0 35-29.5c.7 0 1-.3 1-1a90.5 90.5 0 0 0 11-24c2.4-11.2 3.4-22.5 3-34-1.7-25-11.7-46-30-63-2.2-3-4.8-5.5-8-7.5a96.2 96.2 0 0 0-48-15.6zm-29 30.4c2.3 0 4.5.2 6.9.7a24.8 24.8 0 0 1 14 8c10.3 9.5 12.8 20.8 7.5 34-2 3.8-4.5 7.1-7.5 10-18.6 12.9-34.6 10.2-48-8v-2c-1-1.5-1.7-3.2-2.5-5a31 31 0 0 1 5.5-26c6.6-8 14.6-11.9 24.2-11.7zm11.6.2h.1-.1zm2.5 1.3zm-57.2 18.2a15.4 15.4 0 0 1 0 1.8v-1.8zm79 6a6.8 6.8 0 0 1 0 1v-1zm-70 10zm-15.5 6a95.3 95.3 0 0 0-.4 6.6l.4-6.6zm24.5 9.5 1.4.4.4.3.3.4a1.3 1.3 0 0 1 .3.8c0 .4-.2.7-.4 1.1a10.4 10.4 0 0 1 2.1.7 7.7 7.7 0 0 1 2.5 2 7.2 7.2 0 0 1 1 1.7 9.2 9.2 0 0 1-.5-.9 7.2 7.2 0 0 0-4-3.2l-1.1-.3.4-1v-.5l-.3-.4-.3-.4-.4-.3-1.4-.4zm-24.7 6a95.3 95.3 0 0 0 .7 6.5l-.7-6.6zm66.7 1.5a10.1 10.1 0 0 0-2.5.6 6 6 0 0 0-1.8 1.2 5.1 5.1 0 0 0-1.2 1.8 7 7 0 0 0 .5-1 5.1 5.1 0 0 1 2.5-2 7.6 7.6 0 0 1 2.5-.6zm-31 1a5.2 5.2 0 0 1 2.2.5l1 .6a5.6 5.6 0 0 1-1-.6 4.5 4.5 0 0 0-2.2-.5zm81 9.5a29.6 29.6 0 0 1-9 2 30 30 0 0 0 4.6-.7 30 30 0 0 0 4.4-1.3zm0 5a56.2 56.2 0 0 0 5 3.5 56.2 56.2 0 0 0 5.5 3 56 56 0 0 1-10.5-6.5zm0 3a9 9 0 0 1 .4.4 9 9 0 0 0-.4-.3zm12.5 29.5a8 8 0 0 0-1.8 1 5.4 5.4 0 0 0-1.7 2 5.7 5.7 0 0 0-.5 2 8.6 8.6 0 0 0 .2-1 5.7 5.7 0 0 1 .7-1.8 5 5 0 0 1 1.3-1.3 6.4 6.4 0 0 1 1.8-.9zm-31.5 9zm20 2.5zm24 1c-.6 1.4-1.2 2.7-2 4a29 29 0 0 0 2-4zm-2 4a29 29 0 0 1-2.5 3.5 29 29 0 0 0 2.5-3.6zm-10.5 8-6 4.5a78.4 78.4 0 0 0 6-4.5zm-96.5.5a135.4 135.4 0 0 0 11 4c-3.8-1.2-7.4-2.5-11-4zM800.3 1254c-43 .3-72 21.2-86.8 62.5v1a91.4 91.4 0 0 0 6 73 83 83 0 0 0 47 40.5c22.2 5.7 43.9 4.2 65-4.5a85.3 85.3 0 0 0 37-35c3.9-4.6 6.2-9.9 7-16 7-18.3 7.8-37 2.5-56a88.9 88.9 0 0 0-73.5-65.5h-4.2zm-8.2 2.2zm7.1.4zm12.7 2zm-43.9 1.9a5 5 0 0 0 2.5 1 5 5 0 0 1-2.5-1zm-7.9 4.6-.3.6.3-.6zm.4 1.9a9.2 9.2 0 0 0-2.5 1.5c.8-.6 1.6-1.1 2.5-1.5zm54.8 13.6.4.5-.4-.5zm9.2 3.9a34 34 0 0 1 22.5 10c10.1 13.3 10 26.3-.5 39a30.5 30.5 0 0 1-13 10h-4v1a31.7 31.7 0 0 1-28.5-11 30.8 30.8 0 0 1 1-39 34 34 0 0 1 22.5-10zm-14.5.3v.8-.8zm40.5 2.4a6.9 6.9 0 0 1 0 .2 6.9 6.9 0 0 0 0-.2zm0 .4a6.9 6.9 0 0 1 0 .1 6.9 6.9 0 0 0 0-.1zm0 .4a6.9 6.9 0 0 1 0 .1 6.9 6.9 0 0 0 0-.1zm-.1.3a6.9 6.9 0 0 1 0 .2 6.9 6.9 0 0 0 0-.2zm-.1.4a6.9 6.9 0 0 1 0 .1 6.9 6.9 0 0 0 0-.1zm-.4 1a6.9 6.9 0 0 1 0 .2 6.9 6.9 0 0 0 0-.1zm-50.4 1.8zm16 118c-1.3.6-2.6 1-3.9 1.4a22.8 22.8 0 0 0 3.9-1.4zm-4 1.4c-1.3.3-2.6.5-4 .6a22.8 22.8 0 0 0 4-.6zm-34.5 18.6a22 22 0 0 0 4 1 22 22 0 0 1-4-1zm38.5.5c-5.1.5-10.2.8-15.3 1a341.2 341.2 0 0 0 15.3-1zm-41 .5a88.2 88.2 0 0 0 10 1 341.2 341.2 0 0 0 15.4-.4c-5.2.3-10.3.4-15.4.4-3.4-.1-6.7-.5-10-1z" style="opacity:1;fill:#320c23;fill-opacity:1"/><path d="M1178.7 1283.8a29.6 29.6 0 0 0-24.2 11.7 31 31 0 0 0-5.5 26c.8 1.8 1.6 3.5 2.5 5v2c13.4 18.2 29.4 20.9 48 8a37.1 37.1 0 0 0 7.5-10c5.3-13.2 2.8-24.5-7.5-34l-2 1a38.7 38.7 0 0 1-7-5 38.2 38.2 0 0 0 3.4 2.7 38.2 38.2 0 0 0 3.6 2.3l2-1a24.8 24.8 0 0 0-14-8c-2.4-.5-4.6-.7-6.8-.7zm21 11.6zm-36.4 2.3zm1.3 2.7zm32.9 11.1zm-13.6 10.4zm-359.4-37.4a34 34 0 0 0-22.5 10 30.8 30.8 0 0 0-1 39 31.7 31.7 0 0 0 28.5 11v-1h4c5.2-2.1 9.5-5.4 13-10 10.5-12.8 10.6-25.8.5-39a34 34 0 0 0-22.5-10zm-22 11zm-.4 5.8zm9.4 25.2a61.8 61.8 0 0 0 5.5 1 61.8 61.8 0 0 0 5.5.5 61.9 61.9 0 0 1-11-1.5z" style="opacity:1;fill:#fbfdef;fill-opacity:1"/><path fill="#f9f9ef" d="M1233.5 1362.5c18.5-.7 26 8 22.5 26-5.4 8.8-13.3 12-23.5 9.5-12.3-6.7-15.1-16.2-8.5-28.5 2.8-3 6-5.3 9.5-7Z" style="opacity:1;fill:#fbfdef;fill-opacity:1"/><path d="M764.6 1362.7c-1.3 0-2.7 0-4.1.3-13 6-16.7 15.4-11 28.5 10.4 10.7 20.8 10.7 31 0 1.6-2.2 3-4.5 4-7 .2-2.8-.1-5.5-1-8a119 119 0 0 1-9-9.5 123 123 0 0 0 4.4 4.9 123 123 0 0 0 4.6 4.6c-3.5-9.3-9.8-14-19-13.8zM761 1382a271.6 271.6 0 0 0-.5 2 271.6 271.6 0 0 1 .5-2zm-1.3 10.6a15.8 15.8 0 0 1 .3.2l-.3-.2zm1.2.8a15.8 15.8 0 0 1 .4.2l-.4-.2zm5.3.9zm0 0z" style="opacity:1;fill:#fbfdef;fill-opacity:1"/><path d="M1272.5 1433.6c-8.3 0-16.6.8-25 2.4a34 34 0 0 0-8 3.5 173.2 173.2 0 0 1 13-2 26.3 26.3 0 0 1 11-2.5 289.2 289.2 0 0 1-3 .2 28.3 28.3 0 0 0-8 2.3 183.4 183.4 0 0 0-13 2h-1a48.4 48.4 0 0 0-31.5 24 29 29 0 0 0 .5 13c.7 6.5 3.7 11.5 9 15a60 60 0 0 0 35 15.5c15.2 1.4 30.2.3 45-3.5 6-2.2 12-4.7 18-7.5 4.1-2.3 7.8-5.2 11-8.5 1 .2 1.7-.2 2-1 9.7-9.6 11.5-20.6 5.5-33a53.2 53.2 0 0 0-25.5-16c-1.6.3-3 0-4-1l-15-2h-1c-5-.6-10-1-15-1zm49 56.9c-1.6.6-3.2 1.1-5 1.5a43.5 43.5 0 0 0 5-1.5zm-5 1.5c-1.6.5-3.3.8-5 1a43.5 43.5 0 0 0 5-1zm-583.3-58.5a89 89 0 0 0-21.7 2.5c-3.2.5-5.8 1.7-8 3.5a26 26 0 0 0-16 7 32.5 32.5 0 0 0-13.5 15 26.6 26.6 0 0 0 9.5 26 25 25 0 0 0 4 4.5 93.7 93.7 0 0 0 91 8.5 47.8 47.8 0 0 0 16-9.5c7.2-7.8 9.7-17 7.5-27.5a4.3 4.3 0 0 0-2.5-3l-1.3-.3a10.2 10.2 0 0 0 1.3.3 10.1 10.1 0 0 0-1.5-4 87.4 87.4 0 0 0-18.5-14 185.8 185.8 0 0 0-16-5h-2c-2.3-.7-4.6-1-7-1-7-1.9-14.2-2.9-21.3-3zm51.3 16a18.6 18.6 0 0 1 5.3 2.2 13.7 13.7 0 0 1 4.9 5.5l.8 1.8a10.2 10.2 0 0 0 1.1.6l-1.1-.6a18 18 0 0 0-3-5 13.7 13.7 0 0 0-6-4l-2-.5zm-65 .5a8.6 8.6 0 0 1-1.1 2.5 7.4 7.4 0 0 1 1.1-2.5zm8.3 5.1-.1.9a21.1 21.1 0 0 1 .1-.9zm8 .7-.1.8a16.9 16.9 0 0 1 .1-.8zm-8.3 2.1v.9a21.1 21.1 0 0 1 0-.9zm8 .4v.8a16.9 16.9 0 0 1 0-.8zm61.5 1.5a10.2 10.2 0 0 0 .9.3l-.9-.3zm-77.5 1.7a100.5 100.5 0 0 0-6.5 21 12 12 0 0 0-4.4 3 11.8 11.8 0 0 0 2.7-2.2l1.7-.8a113.7 113.7 0 0 1 6.5-21zm-39 9a14.6 14.6 0 0 1 2.1 2.4 14.6 14.6 0 0 0-2.1-2.4zm2.6 3.1a14.6 14.6 0 0 1 1.4 2.9 14.6 14.6 0 0 0-1.4-2.9zm14.9 14.9a5 5 0 0 0-1.3 1.8l-.2 1a5.2 5.2 0 0 0 .2-1l.5-1 .8-.8zm-10.5 2z" style="opacity:1;fill:#fa6d77;fill-opacity:1"/><path d="M910.2 1434.5c-1.1 0-2.4.1-3.7.5-6.6 3.7-8.7 9.2-6.5 16.5a80.1 80.1 0 0 0 23.5 32l13 10h1a129.1 129.1 0 0 0 37 16c19.8 4.3 39.4 3.8 59-1.5 13.3-3.5 25.3-9.3 36-17.5h1a94.3 94.3 0 0 0 28.5-30 22 22 0 0 0 3-21c-3.9-5-8.7-6.2-14.5-3.5a94 94 0 0 1-75 51.5 100.8 100.8 0 0 1-73-21 74.7 74.7 0 0 1-20.5-27c-2.3-3.4-5.2-5-8.8-5zm11.3 24a14.8 14.8 0 0 1 2.9.2 8.7 8.7 0 0 1 2.3.9 6.2 6.2 0 0 1-1.1-.5 8.7 8.7 0 0 0-2.6-.6h-1.5zm-1 4zm151 3.7a10.5 10.5 0 0 1-1 0 14.5 14.5 0 0 0 1 0zm-154 1.1.4 1a9 9 0 0 0-.4-1zm161 2.2zm-13 0-1.7 1a11.2 11.2 0 0 0 1.7-1zm-2.2 1.2-1.4.4a11.2 11.2 0 0 0 1.4-.4zm-1.9.5c-.6.2-1.2.3-1.9.3a11.2 11.2 0 0 0 2-.3zm-117.9 5.3zm-24 .5a5 5 0 0 0 1.5.5 5 5 0 0 0 1.5 0 5 5 0 0 1-3-.5zm153 6.5zm2.5 0zm-33.5 2.7zm-101.5 3.3zm44 1a11.2 11.2 0 0 0 1.9 1.2 11.2 11.2 0 0 0 2.1.8 11.3 11.3 0 0 1-4-2zm32.4.2zm-52.9 6.8a22.7 22.7 0 0 0 2.3 3.4 22.7 22.7 0 0 1-2.3-3.4zm3 4.2a22.7 22.7 0 0 0 3 2.8 22.7 22.7 0 0 1-3-2.8zm-1 1.3a9.4 9.4 0 0 1 1.5 2.5 9.4 9.4 0 0 0-1.5-2.5zm64 4a156.8 156.8 0 0 0-8.8 1l8.8-1zm-8.8 1a156.8 156.8 0 0 0-8.7 1.5l8.7-1.5z" style="opacity:1;fill:#320c23;fill-opacity:1"/><path d="M613.5 1763.5c-.3.8-1 1.2-2 1h-1l-39 6-4 2c-13.8 2-27.1 5.3-40 10l-16 4-16 9c-3.6 1.7-6.7 4-9.5 7-4.2 8.6-2.4 15.6 5.5 21a72.2 72.2 0 0 0 9 7 207.1 207.1 0 0 1 18 7.5 21.3 21.3 0 0 0 9 1.5c.1 1 .8 1.8 2 2l20 6a937 937 0 0 0 42 8h2a394.5 394.5 0 0 0 30 6 1048.1 1048.1 0 0 0 64 7l16 3a3571.3 3571.3 0 0 0 432 12c29.4-1 58.7-2.7 88-5 24-.7 48-2 72-4a110 110 0 0 0 16-3h16v-1c36.8-2.8 73.1-7.8 109-15-28.1 4.5-56.5 8.2-85 11a1451.2 1451.2 0 0 0 85-11h3l32-6v-1l16-3 16-6c10.1-2.5 19.8-6.4 29-11.5 2-1 3-2.4 3-4.5h4c9.1-10.6 7.8-19.6-4-27l7.5 11c.3 1.1.5 2.2.5 3.2a10 10 0 0 1-1.5 5.5 9.5 9.5 0 0 0 1.5-5.5c0-1-.2-2.1-.5-3.2l-7.5-11a41 41 0 0 0-7-5c-8.1-3.6-16.4-6.6-25-9-5-2-10.4-3.2-16-4a693 693 0 0 0-56-8.5 711.8 711.8 0 0 1 56 8.5v-1a929.2 929.2 0 0 0-73-13c-1 .2-1.7-.2-2-1a97.2 97.2 0 0 1-12 12 94.7 94.7 0 0 1-21 19c0 1 .3 1.8 1 2.5 8.5 2.5 12 8 10.5 16.5a49.6 49.6 0 0 1-15.5 10 313.5 313.5 0 0 1-102 14 95.6 95.6 0 0 0-10 2h-8v1a2550 2550 0 0 1-184 8h-8a3042.3 3042.3 0 0 1-259-4.5c-11.6-.5-23-2-34-4.5h-7a305 305 0 0 1-102-11.5 54.8 54.8 0 0 1-21.5-13.5c-2.1-5.6-1-10.4 3.5-14.5a6.3 6.3 0 0 0 5-4.5 394.3 394.3 0 0 1-35-32zm-25 9.7zm-71.2 14.8zm996.2 1a34.2 34.2 0 0 1 13.2 4.3 32.5 32.5 0 0 1-13.2-4.3zm-971.2 6.4zm42.2 48.6a188.7 188.7 0 0 0-25 2.5 189 189 0 0 1 25-2.5zm653 1c-15.2.9-30.5 1.4-46 1.5-13.8 1.7-27.8 3-42 4a697.8 697.8 0 0 0 42-4 915.1 915.1 0 0 0 46-1.5zm-388.5 3.5a170.3 170.3 0 0 0-21.5 2c7.1-1.1 14.3-1.8 21.5-2zm420.7 7zM816 1874.6zm0 0c-1.1 0-2.3 0-3.5.3a29 29 0 0 0 10.4 2.4 25.8 25.8 0 0 0 10.6-1.9 24.5 24.5 0 0 0 7.6 2.4 21.8 21.8 0 0 0 7.9-.4 86.3 86.3 0 0 0 19.5 2 86.3 86.3 0 0 1-19.5-2 23.6 23.6 0 0 1-11.7-.4c-1.3-.4-2.6-1-3.8-1.6a29.2 29.2 0 0 1-10.6 2 25.8 25.8 0 0 1-10.4-2.5c1.2-.3 2.4-.4 3.5-.3zm79.5 5.3z" style="opacity:1;fill:#7f4241;fill-opacity:1"/><path fill="#ee999f" d="M1023.5 1775.5a52 52 0 0 1-10 2.5 3125.9 3125.9 0 0 1-166 .5c58.7.7 117.4-.3 176-3Z" style="opacity:1"/><path fill="#5f3134" d="M1379.5 1794.5c0 1 .3 1.8 1 2.5 8.5 2.5 12 8 10.5 16.5a49.6 49.6 0 0 1-15.5 10 313.5 313.5 0 0 1-102 14 536 536 0 0 0 40-10.5 234.4 234.4 0 0 0 66-32.5Z" style="opacity:1"/><path fill="#643437" d="M648.5 1795.5a304.6 304.6 0 0 0 55 28 451 451 0 0 0 60 16 305 305 0 0 1-102-11.5 54.8 54.8 0 0 1-21.5-13.5c-2.1-5.6-1-10.4 3.5-14.5a6.3 6.3 0 0 0 5-4.5Z" style="opacity:1"/><path fill="#e38f9c" d="M1287.5 1807.5c-7.2 2-14.5 3.6-22 5a492.2 492.2 0 0 1-48 5c-6 .2-12 .5-18 1 16.7-2 33.7-3.8 51-5.5 12.2-3 24.5-4.9 37-5.5Z" style="opacity:1"/><path fill="#e28a99" d="M1183.5 1818.5v1c-17.8.3-35.5 1-53 2-20.9-.4-41.5.3-62 2h-125c-17.5-1.1-35.2-1.8-53-2a787.3 787.3 0 0 1-51-2 8918.4 8918.4 0 0 0 166 2c59.4 0 118.7-1 178-3Z" style="opacity:1"/></svg>