<?xml version="1.0" encoding="utf-8"?>
<!-- Generator: Adobe Illustrator 26.0.1, SVG Export Plug-In . SVG Version: 6.00 Build 0)  -->
<svg version="1.1" id="Layer_1" xmlns="http://www.w3.org/2000/svg" xmlns:xlink="http://www.w3.org/1999/xlink" x="0px" y="0px"
	 viewBox="0 0 352.35 147.55" style="enable-background:new 0 0 352.35 147.55;" xml:space="preserve">
<style type="text/css">
	.st0{fill:#84BD00;}
	.st1{enable-background:new    ;}
</style>
<g>
	<path class="st0" d="M11,0.49C5.2,0.51,0.51,5.2,0.49,11v125.84c0,5.64,4.58,10.22,10.22,10.22l0,0h330.93
		c5.64-0.01,10.21-4.58,10.22-10.22V10.71c0-5.64-4.58-10.22-10.22-10.22c0,0,0,0,0,0H11z"/>
</g>
<g>
	<path d="M341.64,147.55H10.71c-5.9,0-10.7-4.8-10.7-10.71V11C0.02,4.95,4.95,0.02,11,0.01h330.64c5.9,0,10.71,4.8,10.71,10.71
		v126.13C352.34,142.74,347.54,147.54,341.64,147.55z M11,0.97C5.49,0.99,0.99,5.49,0.98,11v125.84c0,5.37,4.37,9.73,9.73,9.73
		h330.93c5.36,0,9.73-4.37,9.74-9.74V10.71c0-5.37-4.37-9.74-9.74-9.74H11z"/>
</g>
<g class="st1">
	<path d="M68.41,27.22c0.14,0.64,0.43,1.13,0.88,1.45c0.45,0.32,1.09,0.48,1.91,0.48c0.94,0,1.63-0.17,2.05-0.51
		c0.42-0.34,0.63-0.89,0.63-1.65c0-0.6-0.17-1.09-0.52-1.47c-0.34-0.38-0.9-0.69-1.66-0.93l-2.38-0.74
		c-1.11-0.34-1.96-0.88-2.55-1.6c-0.59-0.72-0.89-1.57-0.89-2.56v-0.2c0-1.5,0.48-2.66,1.43-3.48s2.3-1.24,4.06-1.24
		c1.89,0,3.29,0.5,4.2,1.51c0.63,0.72,0.94,1.59,0.94,2.61c0,0.24-0.05,0.4-0.15,0.48c-0.1,0.08-0.29,0.12-0.57,0.12H74.5
		c-0.28,0-0.47-0.04-0.56-0.11s-0.15-0.22-0.18-0.45c-0.14-1.23-1.01-1.84-2.63-1.84c-1.65,0-2.47,0.74-2.47,2.23
		c0,0.3,0.04,0.56,0.11,0.79c0.07,0.23,0.2,0.42,0.38,0.6c0.18,0.17,0.42,0.33,0.71,0.47c0.29,0.14,0.66,0.28,1.09,0.42l2.38,0.74
		c1.14,0.35,1.99,0.89,2.55,1.63c0.56,0.74,0.84,1.65,0.84,2.71v0.29c0,1.45-0.47,2.57-1.42,3.36c-0.94,0.79-2.28,1.18-4,1.18
		c-2.04,0-3.53-0.47-4.47-1.42c-0.38-0.39-0.66-0.82-0.87-1.3s-0.3-0.98-0.3-1.51c0-0.24,0.05-0.4,0.15-0.48
		c0.1-0.08,0.29-0.12,0.57-0.12h1.26c0.27,0,0.45,0.04,0.55,0.11C68.3,26.84,68.37,26.99,68.41,27.22z"/>
	<path d="M78.82,21.6c0-1.54,0.17-2.73,0.52-3.55c0.43-1.08,1.14-1.9,2.1-2.45c0.97-0.55,2.12-0.83,3.47-0.83
		c0.76,0,1.49,0.09,2.17,0.28s1.28,0.48,1.79,0.87c0.51,0.39,0.91,0.89,1.21,1.5c0.3,0.61,0.45,1.33,0.45,2.17
		c0,0.21-0.05,0.35-0.16,0.43c-0.1,0.08-0.29,0.11-0.56,0.11h-1.39c-0.27,0-0.45-0.04-0.55-0.11c-0.1-0.07-0.15-0.22-0.17-0.45
		c-0.06-0.85-0.33-1.47-0.81-1.84c-0.48-0.37-1.2-0.56-2.16-0.56c-0.55,0-1.03,0.06-1.42,0.19c-0.39,0.13-0.71,0.35-0.96,0.66
		c-0.25,0.31-0.43,0.73-0.55,1.26s-0.18,1.18-0.18,1.98v3.78c0,1.51,0.25,2.58,0.75,3.19c0.5,0.62,1.29,0.92,2.35,0.92
		c0.99,0,1.74-0.25,2.25-0.76c0.51-0.51,0.76-1.38,0.76-2.61v-0.43h-1.73c-0.27,0-0.45-0.05-0.53-0.15
		c-0.08-0.1-0.12-0.29-0.12-0.57v-0.99c0-0.28,0.04-0.48,0.12-0.57c0.08-0.1,0.26-0.15,0.53-0.15h3.8c0.28,0,0.48,0.04,0.57,0.12
		c0.1,0.08,0.15,0.26,0.15,0.53v2.54c0,0.73-0.12,1.43-0.35,2.08c-0.23,0.65-0.59,1.22-1.07,1.72c-0.48,0.49-1.09,0.88-1.82,1.17
		c-0.73,0.28-1.6,0.43-2.59,0.43c-1.45,0-2.6-0.27-3.45-0.8c-0.85-0.53-1.49-1.29-1.92-2.26c-0.19-0.43-0.33-0.92-0.4-1.45
		s-0.11-1.23-0.11-2.1V21.6z"/>
	<path d="M98.85,14.76c1.33,0,2.45,0.26,3.36,0.78s1.58,1.28,2.01,2.28c0.19,0.44,0.33,0.92,0.4,1.46c0.08,0.54,0.11,1.24,0.11,2.09
		v3.28c0,0.78-0.04,1.45-0.12,2.01c-0.08,0.56-0.21,1.08-0.39,1.54c-0.44,1.08-1.11,1.9-2.01,2.45c-0.91,0.55-2.03,0.83-3.36,0.83
		s-2.45-0.26-3.36-0.78c-0.91-0.52-1.58-1.28-2.01-2.28c-0.19-0.43-0.33-0.92-0.4-1.46c-0.08-0.54-0.11-1.24-0.11-2.09V21.6
		c0-0.78,0.04-1.45,0.12-2.01c0.08-0.56,0.21-1.08,0.39-1.54c0.43-1.08,1.1-1.9,2.01-2.45C96.4,15.04,97.52,14.76,98.85,14.76z
		 M98.85,12.67l-0.65,0.67c-0.13,0.15-0.25,0.27-0.34,0.35c-0.09,0.08-0.17,0.15-0.25,0.19c-0.08,0.04-0.15,0.07-0.22,0.08
		c-0.08,0.01-0.17,0.01-0.29,0.01h-1.57c-0.26,0-0.38-0.08-0.38-0.25c0-0.04,0.02-0.1,0.07-0.16s0.13-0.16,0.27-0.29l1.71-1.64
		c0.14-0.13,0.25-0.24,0.34-0.33c0.09-0.08,0.17-0.14,0.25-0.18c0.08-0.04,0.15-0.06,0.23-0.08c0.07-0.02,0.16-0.02,0.27-0.02h1.17
		c0.19,0,0.36,0.03,0.48,0.1s0.33,0.24,0.6,0.51l1.71,1.64c0.13,0.13,0.23,0.23,0.27,0.29s0.07,0.11,0.07,0.16
		c0,0.17-0.13,0.25-0.38,0.25h-1.57c-0.21,0-0.37-0.03-0.49-0.09c-0.12-0.06-0.32-0.24-0.61-0.54L98.85,12.67z M98.85,17.17
		c-1.11,0-1.9,0.31-2.37,0.94c-0.47,0.63-0.71,1.67-0.71,3.12v3.78c0,1.45,0.24,2.5,0.71,3.12c0.47,0.63,1.26,0.94,2.37,0.94
		s1.9-0.31,2.37-0.94c0.47-0.63,0.71-1.67,0.71-3.12v-3.78c0-1.45-0.24-2.5-0.71-3.12C100.75,17.48,99.96,17.17,98.85,17.17z"/>
	<path d="M110.27,24.88v5.6c0,0.26-0.04,0.43-0.13,0.52s-0.28,0.13-0.58,0.13h-1.26c-0.3,0-0.49-0.04-0.58-0.13
		s-0.13-0.26-0.13-0.52v-14.7c0-0.25,0.04-0.43,0.13-0.52s0.28-0.13,0.58-0.13h4.81c1.78,0,3.09,0.37,3.91,1.11
		c0.82,0.74,1.24,1.93,1.24,3.56v0.43c0,2.28-0.91,3.72-2.72,4.32l3.35,5.93c0.06,0.12,0.09,0.22,0.09,0.29
		c0,0.24-0.2,0.36-0.58,0.36h-1.69c-0.26,0-0.44-0.04-0.55-0.12c-0.11-0.08-0.24-0.26-0.39-0.53l-3.03-5.6H110.27z M110.27,22.54
		h2.81c0.87,0,1.48-0.18,1.84-0.53c0.36-0.35,0.54-0.96,0.54-1.81v-0.32c0-0.9-0.18-1.53-0.53-1.89c-0.35-0.36-0.97-0.54-1.85-0.54
		h-2.81V22.54z"/>
	<path d="M137.4,30.48c0,0.27-0.05,0.45-0.15,0.53c-0.1,0.08-0.29,0.12-0.57,0.12h-1.3c-0.28,0-0.48-0.04-0.57-0.12
		c-0.1-0.08-0.15-0.26-0.15-0.53v-6.52h-6.07v6.52c0,0.27-0.05,0.45-0.15,0.53c-0.1,0.08-0.29,0.12-0.57,0.12h-1.3
		c-0.28,0-0.48-0.04-0.57-0.12c-0.1-0.08-0.15-0.26-0.15-0.53v-14.7c0-0.27,0.05-0.45,0.15-0.53c0.1-0.08,0.29-0.12,0.57-0.12h1.3
		c0.28,0,0.48,0.04,0.57,0.12s0.15,0.26,0.15,0.53v5.75h6.07v-5.75c0-0.27,0.05-0.45,0.15-0.53s0.29-0.12,0.57-0.12h1.3
		c0.28,0,0.48,0.04,0.57,0.12c0.1,0.08,0.15,0.26,0.15,0.53V30.48z"/>
	<path d="M141.49,15.12c0.25,0,0.43,0.03,0.53,0.1c0.1,0.07,0.2,0.21,0.3,0.42l3.26,6.63l3.21-6.63c0.1-0.21,0.21-0.35,0.3-0.42
		c0.1-0.07,0.27-0.1,0.53-0.1h1.55c0.37,0,0.56,0.12,0.56,0.36c0,0.11-0.02,0.2-0.07,0.29l-4.81,9.28v5.42
		c0,0.27-0.05,0.45-0.15,0.53c-0.1,0.08-0.29,0.12-0.57,0.12h-1.3c-0.28,0-0.48-0.04-0.57-0.12c-0.1-0.08-0.15-0.26-0.15-0.53v-5.42
		l-4.81-9.28c-0.05-0.09-0.07-0.19-0.07-0.29c0-0.24,0.19-0.36,0.56-0.36H141.49z"/>
	<path d="M162.96,30.41c0,0.29-0.04,0.48-0.12,0.57c-0.08,0.1-0.26,0.15-0.53,0.15h-8c-0.28,0-0.48-0.04-0.57-0.12
		c-0.1-0.08-0.15-0.26-0.15-0.53v-14.7c0-0.27,0.05-0.45,0.15-0.53c0.1-0.08,0.29-0.12,0.57-0.12h1.3c0.28,0,0.48,0.04,0.57,0.12
		s0.15,0.26,0.15,0.53V28.7h5.98c0.27,0,0.45,0.05,0.53,0.15c0.08,0.1,0.12,0.29,0.12,0.57V30.41z"/>
	<path d="M174.99,30.41c0,0.29-0.04,0.48-0.12,0.57c-0.08,0.1-0.26,0.15-0.53,0.15h-8.48c-0.28,0-0.48-0.04-0.57-0.12
		c-0.1-0.08-0.15-0.26-0.15-0.53v-14.7c0-0.27,0.05-0.45,0.15-0.53c0.1-0.08,0.29-0.12,0.57-0.12h8.39c0.27,0,0.45,0.05,0.53,0.15
		c0.08,0.1,0.12,0.29,0.12,0.57v0.99c0,0.28-0.04,0.48-0.12,0.57c-0.08,0.1-0.26,0.15-0.53,0.15h-6.36v4.14h5.78
		c0.27,0,0.45,0.05,0.53,0.15c0.08,0.1,0.12,0.29,0.12,0.57v0.99c0,0.29-0.04,0.48-0.12,0.57c-0.08,0.1-0.26,0.15-0.53,0.15h-5.78
		v4.59h6.45c0.27,0,0.45,0.05,0.53,0.15c0.08,0.1,0.12,0.29,0.12,0.57V30.41z"/>
	<path d="M180.5,20.32v10.16c0,0.27-0.05,0.45-0.15,0.53c-0.1,0.08-0.29,0.12-0.57,0.12h-1.24c-0.29,0-0.48-0.04-0.57-0.12
		c-0.1-0.08-0.15-0.26-0.15-0.53v-14.7c0-0.27,0.05-0.45,0.15-0.53c0.1-0.08,0.29-0.12,0.57-0.12h1.3c0.28,0,0.49,0.03,0.62,0.1
		c0.13,0.07,0.27,0.24,0.42,0.53l5.37,10.18V15.78c0-0.27,0.05-0.45,0.15-0.53s0.29-0.12,0.57-0.12h1.24c0.29,0,0.48,0.04,0.57,0.12
		s0.15,0.26,0.15,0.53v14.7c0,0.27-0.05,0.45-0.15,0.53c-0.1,0.08-0.29,0.12-0.57,0.12h-1.3c-0.29,0-0.49-0.03-0.62-0.1
		c-0.13-0.07-0.27-0.24-0.42-0.53L180.5,20.32z"/>
	<path d="M197.47,15.12c0.73,0,1.39,0.08,1.97,0.25c0.58,0.17,1.09,0.39,1.53,0.66c0.44,0.28,0.81,0.6,1.11,0.97
		s0.54,0.76,0.72,1.18c0.17,0.4,0.3,0.86,0.39,1.36c0.1,0.5,0.15,1.18,0.15,2.04v3.21c0,0.84-0.05,1.51-0.15,2
		c-0.1,0.5-0.23,0.94-0.39,1.33c-0.17,0.41-0.39,0.79-0.67,1.16c-0.29,0.37-0.63,0.69-1.03,0.97s-0.88,0.49-1.43,0.65
		s-1.17,0.24-1.85,0.24h-4.92c-0.29,0-0.48-0.04-0.57-0.12c-0.1-0.08-0.15-0.26-0.15-0.53v-14.7c0-0.27,0.05-0.45,0.15-0.53
		c0.1-0.08,0.29-0.12,0.57-0.12H197.47z M194.91,28.7h2.52c0.51,0,0.96-0.06,1.34-0.19c0.38-0.13,0.71-0.34,0.97-0.64
		c0.26-0.3,0.46-0.7,0.6-1.2s0.2-1.13,0.2-1.88v-3.33c0-0.73-0.07-1.35-0.21-1.86c-0.14-0.5-0.34-0.9-0.61-1.2
		c-0.26-0.3-0.58-0.52-0.97-0.65c-0.38-0.13-0.82-0.2-1.31-0.2h-2.52V28.7z"/>
	<path d="M208.91,30.48c0,0.27-0.05,0.45-0.15,0.53c-0.1,0.08-0.29,0.12-0.57,0.12h-1.3c-0.28,0-0.48-0.04-0.57-0.12
		c-0.1-0.08-0.15-0.26-0.15-0.53v-14.7c0-0.27,0.05-0.45,0.15-0.53s0.29-0.12,0.57-0.12h1.3c0.29,0,0.48,0.04,0.57,0.12
		s0.15,0.26,0.15,0.53V30.48z"/>
	<path d="M217.45,15.12c0.73,0,1.39,0.08,1.97,0.25c0.58,0.17,1.09,0.39,1.53,0.66c0.44,0.28,0.81,0.6,1.11,0.97
		s0.54,0.76,0.72,1.18c0.17,0.4,0.3,0.86,0.39,1.36c0.1,0.5,0.15,1.18,0.15,2.04v3.21c0,0.84-0.05,1.51-0.15,2
		c-0.1,0.5-0.23,0.94-0.39,1.33c-0.17,0.41-0.39,0.79-0.67,1.16c-0.28,0.37-0.63,0.69-1.03,0.97c-0.4,0.28-0.88,0.49-1.43,0.65
		c-0.55,0.16-1.17,0.24-1.85,0.24h-4.92c-0.28,0-0.48-0.04-0.57-0.12c-0.1-0.08-0.15-0.26-0.15-0.53v-14.7
		c0-0.27,0.05-0.45,0.15-0.53s0.29-0.12,0.57-0.12H217.45z M214.89,28.7h2.52c0.51,0,0.96-0.06,1.34-0.19
		c0.38-0.13,0.7-0.34,0.97-0.64c0.26-0.3,0.46-0.7,0.6-1.2s0.2-1.13,0.2-1.88v-3.33c0-0.73-0.07-1.35-0.21-1.86
		c-0.14-0.5-0.34-0.9-0.61-1.2c-0.26-0.3-0.58-0.52-0.97-0.65c-0.38-0.13-0.82-0.2-1.32-0.2h-2.52V28.7z"/>
	<path d="M231.37,31.13c-0.28,0-0.48-0.04-0.57-0.12c-0.1-0.08-0.15-0.26-0.15-0.53v-14.7c0-0.27,0.05-0.45,0.15-0.53
		s0.29-0.12,0.57-0.12h5.17c1.6,0,2.82,0.34,3.64,1.02c0.82,0.68,1.24,1.69,1.24,3.02v0.29c0,0.82-0.21,1.53-0.62,2.11
		c-0.41,0.58-0.93,0.96-1.56,1.12c0.7,0.18,1.28,0.59,1.73,1.22c0.45,0.64,0.67,1.4,0.67,2.28v0.36c0,1.66-0.48,2.84-1.43,3.53
		c-0.95,0.69-2.33,1.03-4.12,1.03H231.37z M233.34,21.62h3.01c0.76,0,1.33-0.15,1.7-0.45c0.37-0.3,0.55-0.79,0.55-1.46v-0.29
		c0-0.67-0.2-1.17-0.58-1.48c-0.39-0.32-1-0.47-1.84-0.47h-2.83V21.62z M233.34,28.79h2.83c0.82,0,1.46-0.17,1.92-0.52
		c0.46-0.34,0.69-0.92,0.69-1.73v-0.45c0-0.69-0.2-1.23-0.58-1.63s-0.95-0.6-1.69-0.6h-3.17V28.79z"/>
	<path d="M245.01,15.12c0.27,0,0.46,0.04,0.56,0.11c0.1,0.08,0.19,0.25,0.25,0.54l2.14,11.04l2.34-10.72
		c0.03-0.17,0.1-0.27,0.21-0.33c0.11-0.05,0.28-0.08,0.51-0.08h1.35c0.22,0,0.39,0.03,0.51,0.08c0.11,0.05,0.18,0.16,0.21,0.33
		l2.11,10.83l2.38-11.15c0.06-0.29,0.14-0.46,0.25-0.54c0.1-0.07,0.29-0.11,0.56-0.11h1.46c0.31,0,0.47,0.13,0.47,0.4
		c0,0.12-0.02,0.27-0.07,0.45l-3.33,14.75c-0.03,0.17-0.1,0.27-0.22,0.33c-0.12,0.05-0.29,0.08-0.5,0.08h-1.73
		c-0.22,0-0.39-0.03-0.51-0.08c-0.11-0.05-0.18-0.16-0.21-0.33l-2.2-10.57l-2.18,10.57c-0.03,0.17-0.1,0.27-0.21,0.33
		c-0.11,0.05-0.28,0.08-0.51,0.08h-1.69c-0.21,0-0.37-0.03-0.49-0.08c-0.12-0.05-0.2-0.16-0.22-0.33l-3.15-14.75
		c-0.04-0.18-0.07-0.33-0.07-0.45c0-0.27,0.16-0.4,0.47-0.4H245.01z"/>
	<path d="M263.11,15.12c0.25,0,0.43,0.03,0.53,0.1s0.2,0.21,0.3,0.42l3.26,6.63l3.21-6.63c0.1-0.21,0.21-0.35,0.3-0.42
		c0.1-0.07,0.27-0.1,0.53-0.1h1.55c0.37,0,0.56,0.12,0.56,0.36c0,0.11-0.02,0.2-0.07,0.29l-4.81,9.28v5.42
		c0,0.27-0.05,0.45-0.15,0.53c-0.1,0.08-0.29,0.12-0.57,0.12h-1.3c-0.28,0-0.48-0.04-0.57-0.12c-0.1-0.08-0.15-0.26-0.15-0.53v-5.42
		l-4.81-9.28c-0.05-0.09-0.07-0.19-0.07-0.29c0-0.24,0.19-0.36,0.56-0.36H263.11z"/>
	<path d="M280.51,15.12c0.73,0,1.39,0.08,1.97,0.25c0.58,0.17,1.09,0.39,1.53,0.66c0.44,0.28,0.81,0.6,1.11,0.97
		s0.54,0.76,0.72,1.18c0.17,0.4,0.3,0.86,0.39,1.36c0.1,0.5,0.15,1.18,0.15,2.04v3.21c0,0.84-0.05,1.51-0.15,2
		c-0.1,0.5-0.23,0.94-0.39,1.33c-0.17,0.41-0.39,0.79-0.67,1.16c-0.28,0.37-0.63,0.69-1.03,0.97c-0.4,0.28-0.88,0.49-1.43,0.65
		c-0.55,0.16-1.17,0.24-1.85,0.24h-4.92c-0.28,0-0.48-0.04-0.57-0.12c-0.1-0.08-0.15-0.26-0.15-0.53v-14.7
		c0-0.27,0.05-0.45,0.15-0.53s0.29-0.12,0.57-0.12H280.51z M277.94,28.7h2.52c0.51,0,0.96-0.06,1.34-0.19
		c0.38-0.13,0.7-0.34,0.97-0.64c0.26-0.3,0.46-0.7,0.6-1.2s0.2-1.13,0.2-1.88v-3.33c0-0.73-0.07-1.35-0.21-1.86
		c-0.14-0.5-0.34-0.9-0.61-1.2c-0.26-0.3-0.58-0.52-0.97-0.65c-0.38-0.13-0.82-0.2-1.32-0.2h-2.52V28.7z"/>
</g>
<g class="st1">
	<path d="M68.46,50.91v6.54c0,0.27-0.05,0.45-0.15,0.53c-0.1,0.08-0.29,0.12-0.57,0.12h-1.3c-0.28,0-0.48-0.04-0.57-0.12
		c-0.1-0.08-0.15-0.26-0.15-0.53v-14.7c0-0.27,0.05-0.45,0.15-0.53c0.1-0.08,0.29-0.12,0.57-0.12h8.34c0.27,0,0.45,0.05,0.53,0.15
		s0.12,0.29,0.12,0.57v0.99c0,0.28-0.04,0.48-0.12,0.57s-0.26,0.15-0.53,0.15h-6.32v3.96h5.73c0.27,0,0.45,0.05,0.53,0.15
		c0.08,0.1,0.12,0.29,0.12,0.57v0.99c0,0.29-0.04,0.48-0.12,0.57s-0.26,0.15-0.53,0.15H68.46z"/>
	<path d="M83.43,41.73c1.33,0,2.45,0.26,3.36,0.78s1.58,1.28,2.01,2.28c0.19,0.44,0.33,0.92,0.4,1.46c0.08,0.54,0.11,1.24,0.11,2.09
		v3.28c0,0.78-0.04,1.45-0.12,2.01c-0.08,0.56-0.21,1.08-0.39,1.54c-0.44,1.08-1.11,1.9-2.01,2.45c-0.91,0.55-2.03,0.83-3.36,0.83
		s-2.45-0.26-3.36-0.78c-0.91-0.52-1.58-1.28-2.01-2.28c-0.19-0.43-0.33-0.92-0.4-1.46c-0.08-0.54-0.11-1.24-0.11-2.09v-3.28
		c0-0.78,0.04-1.45,0.12-2.01c0.08-0.56,0.21-1.08,0.39-1.54c0.43-1.08,1.1-1.9,2.01-2.45C80.98,42.01,82.1,41.73,83.43,41.73z
		 M83.43,44.14c-1.11,0-1.9,0.31-2.37,0.94c-0.47,0.63-0.71,1.67-0.71,3.12v3.78c0,1.45,0.24,2.5,0.71,3.12
		c0.47,0.63,1.26,0.94,2.37,0.94s1.9-0.31,2.37-0.94c0.47-0.63,0.71-1.67,0.71-3.12v-3.78c0-1.45-0.24-2.5-0.71-3.12
		C85.33,44.45,84.54,44.14,83.43,44.14z"/>
	<path d="M97.64,41.73c1.33,0,2.45,0.26,3.36,0.78s1.58,1.28,2.01,2.28c0.19,0.44,0.33,0.92,0.4,1.46c0.08,0.54,0.11,1.24,0.11,2.09
		v3.28c0,0.78-0.04,1.45-0.12,2.01c-0.08,0.56-0.21,1.08-0.39,1.54c-0.44,1.08-1.11,1.9-2.01,2.45c-0.91,0.55-2.03,0.83-3.36,0.83
		s-2.45-0.26-3.36-0.78c-0.91-0.52-1.58-1.28-2.01-2.28c-0.19-0.43-0.33-0.92-0.4-1.46c-0.08-0.54-0.11-1.24-0.11-2.09v-3.28
		c0-0.78,0.04-1.45,0.12-2.01c0.08-0.56,0.21-1.08,0.39-1.54c0.43-1.08,1.1-1.9,2.01-2.45C95.19,42.01,96.31,41.73,97.64,41.73z
		 M97.64,44.14c-1.11,0-1.9,0.31-2.37,0.94c-0.47,0.63-0.71,1.67-0.71,3.12v3.78c0,1.45,0.24,2.5,0.71,3.12
		c0.47,0.63,1.26,0.94,2.37,0.94s1.9-0.31,2.37-0.94c0.47-0.63,0.71-1.67,0.71-3.12v-3.78c0-1.45-0.24-2.5-0.71-3.12
		C99.54,44.45,98.75,44.14,97.64,44.14z"/>
	<path d="M111.67,42.09c0.73,0,1.39,0.08,1.97,0.25c0.58,0.17,1.09,0.39,1.53,0.66c0.44,0.28,0.81,0.6,1.11,0.97
		s0.54,0.76,0.72,1.18c0.17,0.4,0.3,0.86,0.39,1.36c0.1,0.5,0.15,1.18,0.15,2.04v3.21c0,0.84-0.05,1.51-0.15,2
		c-0.1,0.5-0.23,0.94-0.39,1.33c-0.17,0.41-0.39,0.79-0.67,1.16s-0.63,0.69-1.03,0.97c-0.4,0.28-0.88,0.49-1.43,0.65
		c-0.55,0.16-1.17,0.24-1.85,0.24h-4.92c-0.28,0-0.48-0.04-0.57-0.12c-0.1-0.08-0.15-0.26-0.15-0.53v-14.7
		c0-0.27,0.05-0.45,0.15-0.53c0.1-0.08,0.29-0.12,0.57-0.12H111.67z M109.1,55.67h2.52c0.51,0,0.96-0.06,1.34-0.19
		c0.38-0.13,0.7-0.34,0.97-0.64s0.46-0.7,0.6-1.2s0.2-1.13,0.2-1.88v-3.33c0-0.73-0.07-1.35-0.21-1.86c-0.14-0.5-0.34-0.9-0.61-1.2
		s-0.58-0.52-0.97-0.65c-0.38-0.13-0.82-0.2-1.31-0.2h-2.52V55.67z"/>
	<path d="M136.42,57.45c0,0.27-0.05,0.45-0.15,0.53c-0.1,0.08-0.29,0.12-0.57,0.12h-1.3c-0.28,0-0.48-0.04-0.57-0.12
		c-0.1-0.08-0.15-0.26-0.15-0.53v-6.52h-6.07v6.52c0,0.27-0.05,0.45-0.15,0.53c-0.1,0.08-0.29,0.12-0.57,0.12h-1.3
		c-0.28,0-0.48-0.04-0.57-0.12c-0.1-0.08-0.15-0.26-0.15-0.53v-14.7c0-0.27,0.05-0.45,0.15-0.53c0.1-0.08,0.29-0.12,0.57-0.12h1.3
		c0.28,0,0.48,0.04,0.57,0.12s0.15,0.26,0.15,0.53v5.75h6.07v-5.75c0-0.27,0.05-0.45,0.15-0.53s0.29-0.12,0.57-0.12h1.3
		c0.28,0,0.48,0.04,0.57,0.12c0.1,0.08,0.15,0.26,0.15,0.53V57.45z"/>
	<path d="M140.51,42.09c0.25,0,0.43,0.03,0.53,0.1c0.1,0.07,0.2,0.21,0.3,0.42l3.26,6.63l3.21-6.63c0.1-0.21,0.21-0.35,0.3-0.42
		c0.1-0.07,0.27-0.1,0.53-0.1h1.55c0.37,0,0.56,0.12,0.56,0.36c0,0.11-0.02,0.2-0.07,0.29l-4.81,9.28v5.42
		c0,0.27-0.05,0.45-0.15,0.53c-0.1,0.08-0.29,0.12-0.57,0.12h-1.3c-0.28,0-0.48-0.04-0.57-0.12c-0.1-0.08-0.15-0.26-0.15-0.53v-5.42
		l-4.81-9.28c-0.05-0.09-0.07-0.19-0.07-0.29c0-0.24,0.19-0.36,0.56-0.36H140.51z"/>
</g>
<g class="st1">
	<path d="M151.62,48.57c0-1.54,0.17-2.73,0.52-3.55c0.43-1.08,1.14-1.9,2.1-2.45c0.97-0.55,2.12-0.83,3.47-0.83
		c0.76,0,1.49,0.09,2.17,0.28s1.28,0.48,1.79,0.87c0.51,0.39,0.91,0.89,1.21,1.5c0.3,0.61,0.45,1.33,0.45,2.17
		c0,0.21-0.05,0.35-0.16,0.43c-0.1,0.08-0.29,0.11-0.56,0.11h-1.39c-0.27,0-0.45-0.04-0.55-0.11c-0.1-0.07-0.15-0.22-0.17-0.45
		c-0.06-0.85-0.33-1.47-0.81-1.84c-0.48-0.37-1.2-0.56-2.16-0.56c-0.55,0-1.03,0.06-1.42,0.19c-0.39,0.13-0.71,0.35-0.96,0.66
		c-0.25,0.31-0.43,0.73-0.55,1.26s-0.18,1.18-0.18,1.98v3.78c0,1.51,0.25,2.58,0.75,3.19c0.5,0.62,1.29,0.92,2.35,0.92
		c0.99,0,1.74-0.25,2.25-0.76c0.51-0.51,0.76-1.38,0.76-2.61V52.3h-1.73c-0.27,0-0.45-0.05-0.53-0.15c-0.08-0.1-0.12-0.29-0.12-0.57
		v-0.99c0-0.28,0.04-0.48,0.12-0.57c0.08-0.1,0.26-0.15,0.53-0.15h3.8c0.28,0,0.48,0.04,0.57,0.12c0.1,0.08,0.15,0.26,0.15,0.53
		v2.54c0,0.73-0.12,1.43-0.35,2.08c-0.23,0.65-0.59,1.22-1.07,1.72c-0.48,0.49-1.09,0.88-1.82,1.17c-0.73,0.28-1.6,0.43-2.59,0.43
		c-1.45,0-2.6-0.27-3.45-0.8c-0.85-0.53-1.49-1.29-1.92-2.26c-0.19-0.43-0.33-0.92-0.4-1.45s-0.11-1.23-0.11-2.1V48.57z"/>
	<path d="M168.91,57.45c0,0.27-0.05,0.45-0.15,0.53c-0.1,0.08-0.29,0.12-0.57,0.12h-1.3c-0.28,0-0.48-0.04-0.57-0.12
		c-0.1-0.08-0.15-0.26-0.15-0.53v-14.7c0-0.27,0.05-0.45,0.15-0.53c0.1-0.08,0.29-0.12,0.57-0.12h1.3c0.28,0,0.48,0.04,0.57,0.12
		s0.15,0.26,0.15,0.53V57.45z"/>
	<path d="M181.99,57.38c0,0.29-0.04,0.48-0.12,0.57c-0.08,0.1-0.26,0.15-0.53,0.15h-8.47c-0.28,0-0.48-0.04-0.57-0.12
		c-0.1-0.08-0.15-0.26-0.15-0.53v-14.7c0-0.27,0.05-0.45,0.15-0.53c0.1-0.08,0.29-0.12,0.57-0.12h8.38c0.27,0,0.45,0.05,0.53,0.15
		c0.08,0.1,0.12,0.29,0.12,0.57v0.99c0,0.28-0.04,0.48-0.12,0.57c-0.08,0.1-0.26,0.15-0.53,0.15h-6.36v4.14h5.78
		c0.27,0,0.45,0.05,0.53,0.15c0.08,0.1,0.12,0.29,0.12,0.57v0.99c0,0.29-0.04,0.48-0.12,0.57c-0.08,0.1-0.26,0.15-0.53,0.15h-5.78
		v4.59h6.45c0.27,0,0.45,0.05,0.53,0.15s0.12,0.29,0.12,0.57V57.38z"/>
	<path d="M187.5,47.29v10.16c0,0.27-0.05,0.45-0.15,0.53c-0.1,0.08-0.29,0.12-0.57,0.12h-1.24c-0.29,0-0.48-0.04-0.57-0.12
		c-0.1-0.08-0.15-0.26-0.15-0.53v-14.7c0-0.27,0.05-0.45,0.15-0.53c0.1-0.08,0.29-0.12,0.57-0.12h1.3c0.28,0,0.49,0.03,0.62,0.1
		c0.13,0.07,0.27,0.24,0.42,0.53l5.37,10.18V42.75c0-0.27,0.05-0.45,0.15-0.53s0.29-0.12,0.57-0.12h1.24c0.29,0,0.48,0.04,0.57,0.12
		s0.15,0.26,0.15,0.53v14.7c0,0.27-0.05,0.45-0.15,0.53c-0.1,0.08-0.29,0.12-0.57,0.12h-1.3c-0.29,0-0.49-0.03-0.62-0.1
		c-0.13-0.07-0.27-0.24-0.42-0.53L187.5,47.29z"/>
	<path d="M209.01,57.38c0,0.29-0.04,0.48-0.12,0.57c-0.08,0.1-0.26,0.15-0.53,0.15h-8.47c-0.29,0-0.48-0.04-0.57-0.12
		c-0.1-0.08-0.15-0.26-0.15-0.53v-14.7c0-0.27,0.05-0.45,0.15-0.53c0.1-0.08,0.29-0.12,0.57-0.12h8.38c0.27,0,0.45,0.05,0.53,0.15
		c0.08,0.1,0.12,0.29,0.12,0.57v0.99c0,0.28-0.04,0.48-0.12,0.57c-0.08,0.1-0.26,0.15-0.53,0.15h-6.36v4.14h5.78
		c0.27,0,0.45,0.05,0.53,0.15c0.08,0.1,0.12,0.29,0.12,0.57v0.99c0,0.29-0.04,0.48-0.12,0.57c-0.08,0.1-0.26,0.15-0.53,0.15h-5.78
		v4.59h6.45c0.27,0,0.45,0.05,0.53,0.15s0.12,0.29,0.12,0.57V57.38z"/>
	<path d="M219.04,51.85v5.6c0,0.26-0.04,0.43-0.13,0.52s-0.28,0.13-0.58,0.13h-1.26c-0.3,0-0.5-0.04-0.58-0.13s-0.13-0.26-0.13-0.52
		v-14.7c0-0.25,0.04-0.43,0.13-0.52s0.29-0.13,0.58-0.13h4.81c1.78,0,3.09,0.37,3.91,1.11c0.82,0.74,1.24,1.93,1.24,3.56v0.43
		c0,2.28-0.91,3.72-2.72,4.32l3.35,5.93c0.06,0.12,0.09,0.22,0.09,0.29c0,0.24-0.2,0.36-0.58,0.36h-1.69
		c-0.25,0-0.44-0.04-0.55-0.12c-0.11-0.08-0.24-0.26-0.39-0.53l-3.03-5.6H219.04z M219.04,49.51h2.81c0.87,0,1.48-0.18,1.84-0.53
		c0.36-0.35,0.54-0.96,0.54-1.81v-0.32c0-0.9-0.18-1.53-0.53-1.89c-0.35-0.36-0.97-0.54-1.85-0.54h-2.81V49.51z"/>
	<path d="M242.28,57.45c0.03,0.12,0.04,0.2,0.04,0.25c0,0.27-0.17,0.4-0.49,0.4h-1.57c-0.28,0-0.47-0.04-0.55-0.12
		c-0.08-0.08-0.17-0.26-0.26-0.53l-1.03-3.17h-5.89l-1.01,3.19c-0.09,0.27-0.18,0.44-0.26,0.52s-0.27,0.11-0.55,0.11h-1.48
		c-0.33,0-0.5-0.13-0.5-0.4c0-0.04,0.02-0.13,0.04-0.25l5.06-14.95c0.06-0.18,0.14-0.29,0.25-0.34s0.26-0.07,0.47-0.07h2.02
		c0.21,0,0.37,0.02,0.47,0.07c0.1,0.04,0.19,0.16,0.25,0.34L242.28,57.45z M233.27,51.94h4.38l-2.2-6.83L233.27,51.94z"/>
</g>
<g class="st1">
	<path d="M246.01,44.52h-3.93c-0.27,0-0.45-0.05-0.53-0.15s-0.12-0.29-0.12-0.57v-0.99c0-0.29,0.04-0.48,0.12-0.57
		s0.26-0.15,0.53-0.15h10.61c0.27,0,0.45,0.05,0.53,0.15c0.08,0.1,0.12,0.29,0.12,0.57v0.99c0,0.28-0.04,0.48-0.12,0.57
		c-0.08,0.1-0.26,0.15-0.53,0.15h-3.93v12.93c0,0.27-0.05,0.45-0.15,0.53c-0.1,0.08-0.29,0.12-0.57,0.12h-1.3
		c-0.28,0-0.48-0.04-0.57-0.12c-0.1-0.08-0.15-0.26-0.15-0.53V44.52z"/>
	<path d="M258.14,57.45c0,0.27-0.05,0.45-0.15,0.53c-0.1,0.08-0.29,0.12-0.57,0.12h-1.3c-0.28,0-0.48-0.04-0.57-0.12
		c-0.1-0.08-0.15-0.26-0.15-0.53v-14.7c0-0.27,0.05-0.45,0.15-0.53s0.29-0.12,0.57-0.12h1.3c0.29,0,0.48,0.04,0.57,0.12
		s0.15,0.26,0.15,0.53V57.45z"/>
	<path d="M264.06,47.29v10.16c0,0.27-0.05,0.45-0.15,0.53c-0.1,0.08-0.29,0.12-0.57,0.12h-1.24c-0.28,0-0.48-0.04-0.57-0.12
		c-0.1-0.08-0.15-0.26-0.15-0.53v-14.7c0-0.27,0.05-0.45,0.15-0.53s0.29-0.12,0.57-0.12h1.3c0.29,0,0.49,0.03,0.62,0.1
		c0.13,0.07,0.27,0.24,0.42,0.53l5.37,10.18V42.75c0-0.27,0.05-0.45,0.15-0.53c0.1-0.08,0.29-0.12,0.57-0.12h1.24
		c0.28,0,0.48,0.04,0.57,0.12c0.1,0.08,0.15,0.26,0.15,0.53v14.7c0,0.27-0.05,0.45-0.15,0.53c-0.1,0.08-0.29,0.12-0.57,0.12h-1.3
		c-0.29,0-0.49-0.03-0.62-0.1c-0.13-0.07-0.27-0.24-0.42-0.53L264.06,47.29z"/>
	<path d="M275.32,48.57c0-1.54,0.17-2.73,0.52-3.55c0.43-1.08,1.13-1.9,2.1-2.45c0.97-0.55,2.12-0.83,3.47-0.83
		c0.76,0,1.49,0.09,2.17,0.28c0.68,0.19,1.28,0.48,1.79,0.87s0.91,0.89,1.21,1.5c0.3,0.61,0.45,1.33,0.45,2.17
		c0,0.21-0.05,0.35-0.16,0.43c-0.1,0.08-0.29,0.11-0.56,0.11h-1.39c-0.27,0-0.45-0.04-0.55-0.11c-0.1-0.07-0.15-0.22-0.17-0.45
		c-0.06-0.85-0.33-1.47-0.81-1.84c-0.48-0.37-1.2-0.56-2.16-0.56c-0.55,0-1.03,0.06-1.42,0.19c-0.39,0.13-0.71,0.35-0.96,0.66
		c-0.25,0.31-0.43,0.73-0.55,1.26s-0.18,1.18-0.18,1.98v3.78c0,1.51,0.25,2.58,0.75,3.19c0.5,0.62,1.29,0.92,2.35,0.92
		c0.99,0,1.74-0.25,2.25-0.76c0.51-0.51,0.76-1.38,0.76-2.61V52.3h-1.73c-0.27,0-0.45-0.05-0.53-0.15c-0.08-0.1-0.12-0.29-0.12-0.57
		v-0.99c0-0.28,0.04-0.48,0.12-0.57c0.08-0.1,0.26-0.15,0.53-0.15h3.8c0.28,0,0.48,0.04,0.57,0.12c0.1,0.08,0.15,0.26,0.15,0.53
		v2.54c0,0.73-0.12,1.43-0.35,2.08c-0.23,0.65-0.59,1.22-1.07,1.72c-0.48,0.49-1.09,0.88-1.82,1.17c-0.73,0.28-1.6,0.43-2.59,0.43
		c-1.45,0-2.6-0.27-3.45-0.8c-0.85-0.53-1.49-1.29-1.92-2.26c-0.2-0.43-0.33-0.92-0.41-1.45s-0.11-1.23-0.11-2.1V48.57z"/>
</g>
<g class="st1">
	<path d="M107.21,88.8c0.27,0,0.46,0.04,0.56,0.11c0.1,0.07,0.19,0.25,0.25,0.54l2.14,11.05l2.34-10.73
		c0.03-0.16,0.1-0.27,0.21-0.33c0.11-0.05,0.28-0.08,0.51-0.08h1.35c0.23,0,0.39,0.03,0.51,0.08c0.11,0.05,0.18,0.16,0.21,0.33
		l2.11,10.85l2.39-11.16c0.06-0.29,0.14-0.46,0.25-0.54c0.1-0.08,0.29-0.11,0.56-0.11h1.46c0.31,0,0.47,0.13,0.47,0.4
		c0,0.12-0.02,0.27-0.07,0.45l-3.33,14.76c-0.03,0.16-0.11,0.27-0.23,0.33c-0.12,0.05-0.29,0.08-0.5,0.08h-1.73
		c-0.23,0-0.39-0.03-0.51-0.08s-0.18-0.16-0.21-0.33l-2.21-10.58l-2.18,10.58c-0.03,0.16-0.1,0.27-0.21,0.33s-0.28,0.08-0.51,0.08
		h-1.69c-0.21,0-0.38-0.03-0.5-0.08s-0.19-0.16-0.22-0.33l-3.15-14.76c-0.04-0.18-0.07-0.33-0.07-0.45c0-0.27,0.16-0.4,0.47-0.4
		H107.21z"/>
	<path d="M134.33,104.1c0,0.29-0.04,0.48-0.12,0.57c-0.08,0.1-0.26,0.15-0.53,0.15h-8.48c-0.29,0-0.48-0.04-0.57-0.12
		s-0.15-0.26-0.15-0.53V89.45c0-0.27,0.05-0.45,0.15-0.53c0.1-0.08,0.29-0.12,0.57-0.12h8.39c0.27,0,0.45,0.05,0.53,0.15
		s0.12,0.29,0.12,0.57v0.99c0,0.29-0.04,0.47-0.12,0.57s-0.26,0.15-0.53,0.15h-6.37v4.14H133c0.27,0,0.45,0.05,0.53,0.15
		c0.08,0.1,0.12,0.29,0.12,0.57v0.99c0,0.29-0.04,0.48-0.12,0.57c-0.08,0.1-0.26,0.15-0.53,0.15h-5.78v4.59h6.46
		c0.27,0,0.45,0.05,0.53,0.15s0.12,0.29,0.12,0.57V104.1z"/>
	<path d="M142.47,88.8c0.73,0,1.39,0.08,1.97,0.25c0.58,0.16,1.09,0.39,1.53,0.66s0.81,0.6,1.11,0.97c0.3,0.37,0.54,0.76,0.72,1.18
		c0.16,0.4,0.3,0.86,0.39,1.36c0.1,0.5,0.15,1.18,0.15,2.04v3.22c0,0.84-0.05,1.51-0.15,2c-0.1,0.49-0.23,0.94-0.39,1.33
		c-0.17,0.4-0.39,0.79-0.68,1.16c-0.29,0.37-0.63,0.69-1.03,0.97c-0.41,0.28-0.88,0.5-1.43,0.65c-0.55,0.16-1.17,0.24-1.86,0.24
		h-4.93c-0.29,0-0.48-0.04-0.57-0.12s-0.15-0.26-0.15-0.53V89.45c0-0.27,0.05-0.45,0.15-0.53c0.1-0.08,0.29-0.12,0.57-0.12H142.47z
		 M139.91,102.39h2.52c0.51,0,0.96-0.06,1.34-0.19c0.38-0.13,0.71-0.34,0.97-0.64c0.26-0.3,0.46-0.7,0.6-1.2
		c0.13-0.5,0.2-1.13,0.2-1.88v-3.33c0-0.74-0.07-1.35-0.21-1.86c-0.14-0.5-0.35-0.9-0.61-1.2c-0.26-0.3-0.58-0.52-0.97-0.65
		c-0.38-0.13-0.82-0.2-1.32-0.2h-2.52V102.39z"/>
	<path d="M153.92,104.17c0,0.27-0.05,0.45-0.15,0.53c-0.1,0.08-0.29,0.12-0.57,0.12h-1.31c-0.29,0-0.48-0.04-0.57-0.12
		s-0.15-0.26-0.15-0.53V89.45c0-0.27,0.05-0.45,0.15-0.53c0.1-0.08,0.29-0.12,0.57-0.12h1.31c0.28,0,0.48,0.04,0.57,0.12
		c0.1,0.08,0.15,0.26,0.15,0.53V104.17z"/>
	<path d="M158.51,88.53c0.55,0,1,0.15,1.33,0.44c0.33,0.29,0.5,0.7,0.5,1.21v0.54c0,0.3-0.06,0.62-0.18,0.96s-0.34,0.81-0.65,1.43
		l-1.01,1.91c-0.08,0.15-0.15,0.27-0.21,0.36c-0.07,0.09-0.14,0.16-0.21,0.2c-0.08,0.04-0.16,0.07-0.26,0.09
		c-0.1,0.01-0.21,0.02-0.35,0.02h-0.83c-0.27,0-0.41-0.09-0.41-0.27c0-0.06,0.02-0.13,0.05-0.2c0.03-0.07,0.06-0.15,0.09-0.22
		l1.33-2.88c-0.3-0.09-0.54-0.27-0.72-0.55s-0.27-0.62-0.27-1.02v-0.36c0-0.51,0.17-0.91,0.5-1.21
		C157.52,88.68,157.96,88.53,158.51,88.53z"/>
</g>
<g class="st1">
	<path d="M165.5,104.17c0,0.27-0.05,0.45-0.15,0.53c-0.1,0.08-0.29,0.12-0.57,0.12h-1.31c-0.29,0-0.48-0.04-0.57-0.12
		s-0.15-0.26-0.15-0.53V89.45c0-0.27,0.05-0.45,0.15-0.53c0.1-0.08,0.29-0.12,0.57-0.12h1.31c0.28,0,0.48,0.04,0.57,0.12
		c0.1,0.08,0.15,0.26,0.15,0.53V104.17z"/>
	<path d="M183.09,104.1c0,0.29-0.04,0.48-0.12,0.57c-0.08,0.1-0.26,0.15-0.53,0.15h-8.48c-0.29,0-0.48-0.04-0.57-0.12
		s-0.15-0.26-0.15-0.53V89.45c0-0.27,0.05-0.45,0.15-0.53c0.1-0.08,0.29-0.12,0.57-0.12h8.39c0.27,0,0.45,0.05,0.53,0.15
		c0.08,0.1,0.12,0.29,0.12,0.57v0.99c0,0.29-0.04,0.47-0.12,0.57c-0.08,0.1-0.26,0.15-0.53,0.15h-6.37v4.14h5.78
		c0.27,0,0.45,0.05,0.53,0.15s0.12,0.29,0.12,0.57v0.99c0,0.29-0.04,0.48-0.12,0.57s-0.26,0.15-0.53,0.15h-5.78v4.59h6.46
		c0.27,0,0.45,0.05,0.53,0.15c0.08,0.1,0.12,0.29,0.12,0.57V104.1z"/>
	<path d="M188.67,104.17c0,0.27-0.05,0.45-0.15,0.53s-0.29,0.12-0.57,0.12h-1.31c-0.29,0-0.48-0.04-0.57-0.12s-0.15-0.26-0.15-0.53
		V89.45c0-0.27,0.05-0.45,0.15-0.53c0.1-0.08,0.29-0.12,0.57-0.12h1.31c0.28,0,0.48,0.04,0.57,0.12c0.1,0.08,0.15,0.26,0.15,0.53
		V104.17z"/>
	<path d="M195.33,91.23h-3.94c-0.27,0-0.45-0.05-0.53-0.15c-0.08-0.1-0.12-0.29-0.12-0.57v-0.99c0-0.29,0.04-0.48,0.12-0.57
		c0.08-0.1,0.26-0.15,0.53-0.15h10.62c0.27,0,0.45,0.05,0.53,0.15c0.08,0.1,0.12,0.29,0.12,0.57v0.99c0,0.29-0.04,0.47-0.12,0.57
		c-0.08,0.1-0.26,0.15-0.53,0.15h-3.94v12.94c0,0.27-0.05,0.45-0.15,0.53s-0.29,0.12-0.57,0.12h-1.31c-0.28,0-0.48-0.04-0.57-0.12
		s-0.15-0.26-0.15-0.53V91.23z"/>
	<path d="M216.3,104.17c0,0.27-0.05,0.45-0.15,0.53s-0.29,0.12-0.57,0.12h-1.3c-0.29,0-0.48-0.04-0.57-0.12
		c-0.1-0.08-0.15-0.26-0.15-0.53v-6.53h-6.08v6.53c0,0.27-0.05,0.45-0.15,0.53s-0.29,0.12-0.57,0.12h-1.31
		c-0.29,0-0.48-0.04-0.57-0.12s-0.15-0.26-0.15-0.53V89.45c0-0.27,0.05-0.45,0.15-0.53c0.1-0.08,0.29-0.12,0.57-0.12h1.31
		c0.28,0,0.48,0.04,0.57,0.12c0.1,0.08,0.15,0.26,0.15,0.53v5.76h6.08v-5.76c0-0.27,0.05-0.45,0.15-0.53
		c0.1-0.08,0.29-0.12,0.57-0.12h1.3c0.29,0,0.48,0.04,0.57,0.12c0.1,0.08,0.15,0.26,0.15,0.53V104.17z"/>
	<path d="M222.24,98.57v5.6c0,0.26-0.04,0.43-0.13,0.52s-0.29,0.13-0.58,0.13h-1.26c-0.3,0-0.49-0.04-0.58-0.13
		c-0.09-0.09-0.13-0.26-0.13-0.52V89.45c0-0.25,0.04-0.43,0.13-0.52c0.09-0.09,0.29-0.13,0.58-0.13h4.82c1.79,0,3.09,0.37,3.92,1.11
		c0.82,0.74,1.24,1.93,1.24,3.57v0.43c0,2.28-0.91,3.72-2.72,4.32l3.35,5.94c0.06,0.12,0.09,0.22,0.09,0.29
		c0,0.24-0.19,0.36-0.58,0.36h-1.69c-0.25,0-0.44-0.04-0.55-0.12s-0.24-0.26-0.39-0.53l-3.04-5.6H222.24z M222.24,96.23h2.81
		c0.87,0,1.49-0.18,1.84-0.53c0.36-0.35,0.54-0.96,0.54-1.81v-0.32c0-0.9-0.18-1.53-0.53-1.89c-0.35-0.36-0.97-0.54-1.86-0.54h-2.81
		V96.23z"/>
	<path d="M236.08,104.17c0,0.27-0.05,0.45-0.15,0.53s-0.29,0.12-0.57,0.12h-1.31c-0.29,0-0.48-0.04-0.57-0.12s-0.15-0.26-0.15-0.53
		V89.45c0-0.27,0.05-0.45,0.15-0.53c0.1-0.08,0.29-0.12,0.57-0.12h1.31c0.28,0,0.48,0.04,0.57,0.12c0.1,0.08,0.15,0.26,0.15,0.53
		V104.17z"/>
	<path d="M244.81,88.44c1.33,0,2.46,0.26,3.36,0.78c0.91,0.52,1.58,1.28,2.01,2.28c0.19,0.44,0.33,0.92,0.41,1.46
		c0.07,0.54,0.11,1.24,0.11,2.09v3.28c0,0.78-0.04,1.45-0.12,2.02s-0.21,1.08-0.39,1.54c-0.44,1.08-1.11,1.9-2.01,2.45
		c-0.91,0.55-2.03,0.83-3.36,0.83s-2.46-0.26-3.36-0.78c-0.91-0.52-1.58-1.28-2.01-2.28c-0.2-0.44-0.33-0.92-0.41-1.46
		c-0.08-0.54-0.11-1.24-0.11-2.09v-3.29c0-0.78,0.04-1.45,0.12-2.01c0.08-0.56,0.21-1.08,0.39-1.54c0.43-1.08,1.11-1.9,2.01-2.45
		C242.35,88.72,243.47,88.44,244.81,88.44z M244.81,90.85c-1.11,0-1.9,0.32-2.37,0.95c-0.47,0.63-0.71,1.67-0.71,3.13v3.78
		c0,1.46,0.24,2.5,0.71,3.13c0.47,0.63,1.26,0.95,2.37,0.95c1.11,0,1.9-0.31,2.37-0.95c0.47-0.63,0.71-1.67,0.71-3.13v-3.78
		c0-1.45-0.24-2.5-0.71-3.13C246.71,91.16,245.92,90.85,244.81,90.85z"/>
</g>
<g class="st1">
	<path d="M147.29,131.1c0,0.29-0.04,0.48-0.12,0.57c-0.08,0.1-0.26,0.15-0.53,0.15h-8.48c-0.29,0-0.48-0.04-0.57-0.12
		s-0.15-0.26-0.15-0.53v-14.71c0-0.27,0.05-0.45,0.15-0.53c0.1-0.08,0.29-0.12,0.57-0.12h8.39c0.27,0,0.45,0.05,0.53,0.15
		s0.12,0.29,0.12,0.57v0.99c0,0.29-0.04,0.47-0.12,0.57s-0.26,0.15-0.53,0.15h-6.37v4.14h5.78c0.27,0,0.45,0.05,0.53,0.15
		c0.08,0.1,0.12,0.29,0.12,0.57v0.99c0,0.29-0.04,0.48-0.12,0.57c-0.08,0.1-0.26,0.15-0.53,0.15h-5.78v4.59h6.46
		c0.27,0,0.45,0.05,0.53,0.15s0.12,0.29,0.12,0.57V131.1z"/>
	<path d="M151.34,115.8c0.27,0,0.46,0.04,0.56,0.12c0.1,0.08,0.24,0.27,0.41,0.55l2.68,4.54l2.77-4.54c0.17-0.27,0.3-0.45,0.39-0.54
		s0.29-0.13,0.57-0.13h1.69c0.33,0,0.5,0.13,0.5,0.4c0,0.09-0.04,0.2-0.11,0.32l-4.32,6.82l4.54,7.76c0.08,0.12,0.11,0.22,0.11,0.31
		c0,0.27-0.17,0.4-0.5,0.4h-1.78c-0.29,0-0.48-0.04-0.58-0.12c-0.11-0.08-0.23-0.27-0.38-0.55l-2.95-5.29l-2.95,5.29
		c-0.17,0.29-0.3,0.47-0.4,0.55s-0.29,0.12-0.56,0.12h-1.69c-0.33,0-0.5-0.13-0.5-0.4c0-0.09,0.04-0.2,0.11-0.31l4.54-7.7
		l-4.32-6.88c-0.08-0.12-0.11-0.23-0.11-0.32c0-0.27,0.17-0.4,0.5-0.4H151.34z"/>
	<path d="M172.94,131.1c0,0.29-0.04,0.48-0.12,0.57c-0.08,0.1-0.26,0.15-0.53,0.15h-8.48c-0.29,0-0.48-0.04-0.57-0.12
		s-0.15-0.26-0.15-0.53v-14.71c0-0.27,0.05-0.45,0.15-0.53c0.1-0.08,0.29-0.12,0.57-0.12h8.39c0.27,0,0.45,0.05,0.53,0.15
		s0.12,0.29,0.12,0.57v0.99c0,0.29-0.04,0.47-0.12,0.57s-0.26,0.15-0.53,0.15h-6.37v4.14h5.78c0.27,0,0.45,0.05,0.53,0.15
		c0.08,0.1,0.12,0.29,0.12,0.57v0.99c0,0.29-0.04,0.48-0.12,0.57c-0.08,0.1-0.26,0.15-0.53,0.15h-5.78v4.59h6.46
		c0.27,0,0.45,0.05,0.53,0.15s0.12,0.29,0.12,0.57V131.1z"/>
	<path d="M181.85,127.14c-0.3,0-0.5-0.04-0.6-0.12s-0.21-0.26-0.33-0.53l-2.47-5.38v10.06c0,0.27-0.05,0.45-0.15,0.53
		s-0.29,0.12-0.57,0.12h-1.24c-0.29,0-0.48-0.04-0.57-0.12s-0.15-0.26-0.15-0.53v-14.71c0-0.27,0.05-0.45,0.15-0.53
		c0.1-0.08,0.29-0.12,0.57-0.12h1.31c0.3,0,0.51,0.04,0.63,0.11c0.12,0.07,0.25,0.25,0.38,0.54l3.67,7.9l3.69-7.9
		c0.13-0.29,0.26-0.46,0.38-0.54c0.12-0.08,0.33-0.11,0.63-0.11h1.31c0.28,0,0.48,0.04,0.57,0.12c0.1,0.08,0.15,0.26,0.15,0.53
		v14.71c0,0.27-0.05,0.45-0.15,0.53s-0.29,0.12-0.57,0.12h-1.24c-0.29,0-0.48-0.04-0.57-0.12s-0.15-0.26-0.15-0.53v-10.06
		l-2.47,5.38c-0.12,0.27-0.23,0.45-0.33,0.53c-0.1,0.08-0.3,0.12-0.6,0.12H181.85z"/>
	<path d="M195.15,125.88v5.29c0,0.27-0.05,0.45-0.15,0.53s-0.29,0.12-0.57,0.12h-1.26c-0.29,0-0.48-0.04-0.57-0.12
		s-0.15-0.26-0.15-0.53v-14.71c0-0.27,0.05-0.45,0.15-0.53c0.1-0.08,0.29-0.12,0.57-0.12h4.48c0.88,0,1.67,0.09,2.34,0.26
		c0.67,0.17,1.24,0.46,1.69,0.84c0.45,0.39,0.79,0.89,1.01,1.51c0.23,0.62,0.34,1.37,0.34,2.27v0.45c0,1.63-0.45,2.84-1.36,3.6
		c-0.91,0.77-2.25,1.15-4.02,1.15H195.15z M195.15,123.54h2.5c0.57,0,1.02-0.06,1.36-0.19c0.34-0.13,0.6-0.3,0.78-0.53
		s0.3-0.49,0.36-0.79c0.06-0.3,0.09-0.62,0.09-0.95v-0.31c0-0.38-0.03-0.72-0.09-1.04c-0.06-0.31-0.18-0.59-0.36-0.83
		s-0.44-0.43-0.78-0.56c-0.34-0.13-0.79-0.2-1.36-0.2h-2.5V123.54z"/>
	<path d="M208.72,118.23h-3.94c-0.27,0-0.45-0.05-0.53-0.15c-0.08-0.1-0.12-0.29-0.12-0.57v-0.99c0-0.29,0.04-0.48,0.12-0.57
		c0.08-0.1,0.26-0.15,0.53-0.15h10.62c0.27,0,0.45,0.05,0.53,0.15c0.08,0.1,0.12,0.29,0.12,0.57v0.99c0,0.29-0.04,0.47-0.12,0.57
		c-0.08,0.1-0.26,0.15-0.53,0.15h-3.94v12.94c0,0.27-0.05,0.45-0.15,0.53s-0.29,0.12-0.57,0.12h-1.3c-0.29,0-0.48-0.04-0.57-0.12
		s-0.15-0.26-0.15-0.53V118.23z"/>
</g>
<g>
	<rect x="0.57" y="72.99" width="351.07" height="1.25"/>
</g>
</svg>
