<?xml version="1.0" encoding="utf-8"?>
<!-- Generator: Adobe Illustrator 26.0.1, SVG Export Plug-In . SVG Version: 6.00 Build 0)  -->
<svg version="1.1" id="Layer_1" xmlns="http://www.w3.org/2000/svg" xmlns:xlink="http://www.w3.org/1999/xlink" x="0px" y="0px"
	 viewBox="0 0 311.81 97.71" style="enable-background:new 0 0 311.81 97.71;" xml:space="preserve">
<style type="text/css">
	.st0{fill:#84BD00;}
	.st1{enable-background:new    ;}
</style>
<g>
	<path class="st0" d="M311.33,49V10.72c-0.01-5.65-4.59-10.23-10.24-10.23h-290C5.26,0.47,0.51,5.18,0.49,11.01
		c0,0.01,0,0.03,0,0.04V49H311.33z"/>
</g>
<g>
	<path d="M311.82,49.49H0.01V11.05c0.01-2.99,1.17-5.76,3.26-7.84c2.08-2.07,4.85-3.21,7.78-3.21c0.01,0,0.03,0,0.04,0h290
		c5.91,0,10.72,4.81,10.73,10.71V49.49z M0.98,48.52h309.87v-37.8c0-5.37-4.38-9.75-9.75-9.75h-290C8.42,0.99,5.86,2,3.95,3.9
		s-2.97,4.42-2.98,7.11V48.52z"/>
</g>
<g class="st1">
	<path d="M48.08,24.94v6.55c0,0.27-0.05,0.45-0.15,0.53c-0.1,0.08-0.29,0.12-0.57,0.12h-1.31c-0.29,0-0.48-0.04-0.57-0.12
		c-0.1-0.08-0.15-0.26-0.15-0.53V16.77c0-0.27,0.05-0.45,0.15-0.53c0.1-0.08,0.29-0.12,0.57-0.12h8.35c0.27,0,0.45,0.05,0.53,0.15
		c0.08,0.1,0.12,0.29,0.12,0.57v0.99c0,0.29-0.04,0.48-0.12,0.57c-0.08,0.1-0.26,0.15-0.53,0.15h-6.32v3.96h5.74
		c0.27,0,0.45,0.05,0.53,0.15c0.08,0.1,0.12,0.29,0.12,0.57v0.99c0,0.29-0.04,0.48-0.12,0.57c-0.08,0.1-0.26,0.15-0.53,0.15H48.08z"
		/>
	<path d="M63.06,15.76c1.33,0,2.46,0.26,3.36,0.78s1.58,1.28,2.01,2.28c0.19,0.44,0.33,0.92,0.41,1.46
		c0.07,0.54,0.11,1.24,0.11,2.09v3.28c0,0.78-0.04,1.45-0.12,2.01c-0.08,0.56-0.21,1.08-0.39,1.54c-0.44,1.08-1.11,1.9-2.01,2.45
		s-2.03,0.83-3.36,0.83s-2.46-0.26-3.36-0.78s-1.58-1.28-2.01-2.28c-0.19-0.43-0.33-0.92-0.4-1.46c-0.08-0.54-0.11-1.24-0.11-2.09
		V22.6c0-0.78,0.04-1.45,0.12-2.01c0.08-0.56,0.21-1.08,0.39-1.54c0.44-1.08,1.11-1.9,2.01-2.45C60.6,16.04,61.72,15.76,63.06,15.76
		z M63.06,18.17c-1.11,0-1.9,0.32-2.37,0.95s-0.71,1.67-0.71,3.13v3.78c0,1.46,0.24,2.5,0.71,3.13s1.26,0.94,2.37,0.94
		s1.9-0.31,2.37-0.94c0.47-0.63,0.71-1.67,0.71-3.13v-3.78c0-1.45-0.24-2.5-0.71-3.13C64.96,18.48,64.17,18.17,63.06,18.17z"/>
	<path d="M77.28,15.76c1.33,0,2.46,0.26,3.36,0.78s1.58,1.28,2.01,2.28c0.19,0.44,0.33,0.92,0.41,1.46
		c0.07,0.54,0.11,1.24,0.11,2.09v3.28c0,0.78-0.04,1.45-0.12,2.01c-0.08,0.56-0.21,1.08-0.39,1.54c-0.44,1.08-1.11,1.9-2.01,2.45
		s-2.03,0.83-3.36,0.83s-2.46-0.26-3.36-0.78s-1.58-1.28-2.01-2.28c-0.19-0.43-0.33-0.92-0.4-1.46c-0.08-0.54-0.11-1.24-0.11-2.09
		V22.6c0-0.78,0.04-1.45,0.12-2.01c0.08-0.56,0.21-1.08,0.39-1.54c0.44-1.08,1.11-1.9,2.01-2.45
		C74.82,16.04,75.94,15.76,77.28,15.76z M77.28,18.17c-1.11,0-1.9,0.32-2.37,0.95s-0.71,1.67-0.71,3.13v3.78
		c0,1.46,0.24,2.5,0.71,3.13s1.26,0.94,2.37,0.94s1.9-0.31,2.37-0.94c0.47-0.63,0.71-1.67,0.71-3.13v-3.78
		c0-1.45-0.24-2.5-0.71-3.13C79.18,18.48,78.39,18.17,77.28,18.17z"/>
	<path d="M91.32,16.12c0.73,0,1.39,0.08,1.97,0.25c0.58,0.17,1.09,0.39,1.53,0.66s0.81,0.6,1.11,0.97c0.3,0.37,0.54,0.76,0.72,1.18
		c0.16,0.41,0.3,0.86,0.39,1.36c0.1,0.5,0.15,1.18,0.15,2.04v3.22c0,0.84-0.05,1.51-0.15,2c-0.1,0.5-0.23,0.94-0.39,1.33
		c-0.17,0.4-0.39,0.79-0.68,1.16c-0.29,0.37-0.63,0.69-1.03,0.97c-0.41,0.28-0.88,0.5-1.43,0.65s-1.17,0.24-1.86,0.24h-4.93
		c-0.29,0-0.48-0.04-0.57-0.12c-0.1-0.08-0.15-0.26-0.15-0.53V16.77c0-0.27,0.05-0.45,0.15-0.53c0.1-0.08,0.29-0.12,0.57-0.12H91.32
		z M88.75,29.71h2.52c0.51,0,0.96-0.06,1.34-0.19c0.38-0.13,0.71-0.34,0.97-0.64c0.26-0.3,0.46-0.7,0.6-1.2
		c0.13-0.5,0.2-1.13,0.2-1.88v-3.33c0-0.74-0.07-1.35-0.21-1.86c-0.14-0.5-0.35-0.9-0.61-1.2c-0.26-0.3-0.58-0.52-0.97-0.65
		c-0.38-0.13-0.82-0.2-1.32-0.2h-2.52V29.71z"/>
	<path d="M116.09,31.49c0,0.27-0.05,0.45-0.15,0.53c-0.1,0.08-0.29,0.12-0.57,0.12h-1.3c-0.29,0-0.48-0.04-0.57-0.12
		c-0.1-0.08-0.15-0.26-0.15-0.53v-6.53h-6.07v6.53c0,0.27-0.05,0.45-0.15,0.53c-0.1,0.08-0.29,0.12-0.57,0.12h-1.31
		c-0.29,0-0.48-0.04-0.57-0.12c-0.1-0.08-0.15-0.26-0.15-0.53V16.77c0-0.27,0.05-0.45,0.15-0.53c0.1-0.08,0.29-0.12,0.57-0.12h1.31
		c0.28,0,0.48,0.04,0.57,0.12c0.1,0.08,0.15,0.26,0.15,0.53v5.76h6.07v-5.76c0-0.27,0.05-0.45,0.15-0.53
		c0.1-0.08,0.29-0.12,0.57-0.12h1.3c0.29,0,0.48,0.04,0.57,0.12c0.1,0.08,0.15,0.26,0.15,0.53V31.49z"/>
	<path d="M120.19,16.12c0.25,0,0.43,0.03,0.53,0.1c0.1,0.07,0.2,0.21,0.3,0.42l3.26,6.64l3.22-6.64c0.1-0.21,0.21-0.35,0.3-0.42
		c0.1-0.07,0.27-0.1,0.53-0.1h1.55c0.38,0,0.56,0.12,0.56,0.36c0,0.11-0.02,0.2-0.07,0.29l-4.81,9.29v5.42
		c0,0.27-0.05,0.45-0.15,0.53c-0.1,0.08-0.29,0.12-0.57,0.12h-1.3c-0.29,0-0.48-0.04-0.57-0.12c-0.1-0.08-0.15-0.26-0.15-0.53v-5.42
		L118,16.77c-0.04-0.09-0.07-0.19-0.07-0.29c0-0.24,0.19-0.36,0.56-0.36H120.19z"/>
</g>
<g class="st1">
	<path d="M131.33,22.6c0-1.54,0.17-2.73,0.52-3.55c0.44-1.08,1.14-1.9,2.1-2.45c0.97-0.55,2.13-0.83,3.48-0.83
		c0.77,0,1.49,0.09,2.17,0.28c0.68,0.19,1.28,0.48,1.79,0.87c0.51,0.39,0.92,0.89,1.21,1.5c0.3,0.61,0.45,1.33,0.45,2.17
		c0,0.21-0.05,0.35-0.16,0.43c-0.1,0.08-0.29,0.11-0.56,0.11h-1.4c-0.27,0-0.45-0.04-0.55-0.11c-0.1-0.07-0.15-0.22-0.17-0.45
		c-0.06-0.85-0.33-1.47-0.81-1.84s-1.2-0.56-2.16-0.56c-0.56,0-1.03,0.06-1.42,0.19c-0.39,0.13-0.71,0.35-0.96,0.66
		c-0.25,0.31-0.43,0.73-0.55,1.26c-0.12,0.53-0.18,1.18-0.18,1.98v3.78c0,1.52,0.25,2.58,0.75,3.2c0.5,0.62,1.29,0.92,2.35,0.92
		c0.99,0,1.74-0.25,2.25-0.76s0.77-1.38,0.77-2.61v-0.43h-1.73c-0.27,0-0.45-0.05-0.53-0.15s-0.12-0.29-0.12-0.57v-0.99
		c0-0.29,0.04-0.48,0.12-0.57s0.26-0.15,0.53-0.15h3.8c0.29,0,0.48,0.04,0.57,0.12c0.1,0.08,0.15,0.26,0.15,0.53v2.54
		c0,0.74-0.12,1.43-0.35,2.08c-0.23,0.65-0.59,1.23-1.07,1.72c-0.48,0.5-1.09,0.88-1.82,1.17c-0.73,0.28-1.6,0.43-2.59,0.43
		c-1.46,0-2.61-0.27-3.45-0.8c-0.85-0.53-1.49-1.29-1.92-2.26c-0.19-0.43-0.33-0.92-0.4-1.45c-0.08-0.53-0.11-1.23-0.11-2.1V22.6z"
		/>
	<path d="M148.64,31.49c0,0.27-0.05,0.45-0.15,0.53c-0.1,0.08-0.29,0.12-0.57,0.12h-1.31c-0.29,0-0.48-0.04-0.57-0.12
		c-0.1-0.08-0.15-0.26-0.15-0.53V16.77c0-0.27,0.05-0.45,0.15-0.53c0.1-0.08,0.29-0.12,0.57-0.12h1.31c0.28,0,0.48,0.04,0.57,0.12
		c0.1,0.08,0.15,0.26,0.15,0.53V31.49z"/>
	<path d="M161.73,31.42c0,0.29-0.04,0.48-0.12,0.57c-0.08,0.1-0.26,0.15-0.53,0.15h-8.48c-0.29,0-0.48-0.04-0.57-0.12
		c-0.1-0.08-0.15-0.26-0.15-0.53V16.77c0-0.27,0.05-0.45,0.15-0.53c0.1-0.08,0.29-0.12,0.57-0.12h8.39c0.27,0,0.45,0.05,0.53,0.15
		c0.08,0.1,0.12,0.29,0.12,0.57v0.99c0,0.29-0.04,0.48-0.12,0.57c-0.08,0.1-0.26,0.15-0.53,0.15h-6.37v4.14h5.78
		c0.27,0,0.45,0.05,0.53,0.15c0.08,0.1,0.12,0.29,0.12,0.57v0.99c0,0.29-0.04,0.48-0.12,0.57c-0.08,0.1-0.26,0.15-0.53,0.15h-5.78
		v4.59h6.46c0.27,0,0.45,0.05,0.53,0.15c0.08,0.1,0.12,0.29,0.12,0.57V31.42z"/>
	<path d="M167.24,21.32v10.17c0,0.27-0.05,0.45-0.15,0.53c-0.1,0.08-0.29,0.12-0.57,0.12h-1.24c-0.29,0-0.48-0.04-0.57-0.12
		c-0.1-0.08-0.15-0.26-0.15-0.53V16.77c0-0.27,0.05-0.45,0.15-0.53c0.1-0.08,0.29-0.12,0.57-0.12h1.3c0.29,0,0.49,0.03,0.62,0.1
		c0.13,0.07,0.27,0.24,0.42,0.53L173,26.94V16.77c0-0.27,0.05-0.45,0.15-0.53c0.1-0.08,0.29-0.12,0.57-0.12h1.24
		c0.29,0,0.48,0.04,0.57,0.12c0.1,0.08,0.15,0.26,0.15,0.53v14.71c0,0.27-0.05,0.45-0.15,0.53c-0.1,0.08-0.29,0.12-0.57,0.12h-1.3
		c-0.29,0-0.49-0.03-0.62-0.1c-0.13-0.07-0.27-0.24-0.42-0.53L167.24,21.32z"/>
	<path d="M188.78,31.42c0,0.29-0.04,0.48-0.12,0.57c-0.08,0.1-0.26,0.15-0.53,0.15h-8.48c-0.29,0-0.48-0.04-0.57-0.12
		c-0.1-0.08-0.15-0.26-0.15-0.53V16.77c0-0.27,0.05-0.45,0.15-0.53c0.1-0.08,0.29-0.12,0.57-0.12h8.39c0.27,0,0.45,0.05,0.53,0.15
		c0.08,0.1,0.12,0.29,0.12,0.57v0.99c0,0.29-0.04,0.48-0.12,0.57c-0.08,0.1-0.26,0.15-0.53,0.15h-6.37v4.14h5.78
		c0.27,0,0.45,0.05,0.53,0.15s0.12,0.29,0.12,0.57v0.99c0,0.29-0.04,0.48-0.12,0.57s-0.26,0.15-0.53,0.15h-5.78v4.59h6.46
		c0.27,0,0.45,0.05,0.53,0.15c0.08,0.1,0.12,0.29,0.12,0.57V31.42z"/>
	<path d="M198.81,25.88v5.6c0,0.25-0.04,0.43-0.13,0.52s-0.29,0.13-0.58,0.13h-1.26c-0.3,0-0.49-0.04-0.58-0.13
		c-0.09-0.09-0.13-0.26-0.13-0.52V16.77c0-0.25,0.04-0.43,0.13-0.52c0.09-0.09,0.29-0.13,0.58-0.13h4.82c1.79,0,3.09,0.37,3.92,1.11
		c0.82,0.74,1.24,1.93,1.24,3.57v0.43c0,2.28-0.91,3.72-2.72,4.32l3.35,5.94c0.06,0.12,0.09,0.22,0.09,0.29
		c0,0.24-0.19,0.36-0.58,0.36h-1.69c-0.25,0-0.44-0.04-0.55-0.12c-0.11-0.08-0.24-0.26-0.39-0.53l-3.04-5.6H198.81z M198.81,23.55
		h2.81c0.87,0,1.49-0.18,1.84-0.53c0.36-0.35,0.54-0.96,0.54-1.81v-0.32c0-0.9-0.18-1.53-0.53-1.89c-0.35-0.36-0.97-0.54-1.86-0.54
		h-2.81V23.55z"/>
	<path d="M222.08,31.49c0.03,0.12,0.04,0.2,0.04,0.25c0,0.27-0.17,0.41-0.5,0.41h-1.57c-0.29,0-0.47-0.04-0.55-0.12
		c-0.08-0.08-0.17-0.26-0.26-0.53l-1.04-3.17h-5.89l-1.01,3.2c-0.09,0.27-0.18,0.44-0.26,0.52s-0.27,0.11-0.55,0.11H209
		c-0.33,0-0.5-0.13-0.5-0.41c0-0.04,0.01-0.13,0.04-0.25l5.06-14.96c0.06-0.18,0.14-0.29,0.25-0.34c0.1-0.04,0.26-0.07,0.47-0.07
		h2.02c0.21,0,0.37,0.02,0.47,0.07c0.1,0.04,0.19,0.16,0.25,0.34L222.08,31.49z M213.05,25.97h4.39l-2.21-6.84L213.05,25.97z"/>
</g>
<g class="st1">
	<path d="M225.82,18.55h-3.94c-0.27,0-0.45-0.05-0.53-0.15c-0.08-0.1-0.12-0.29-0.12-0.57v-0.99c0-0.29,0.04-0.48,0.12-0.57
		c0.08-0.1,0.26-0.15,0.53-0.15h10.62c0.27,0,0.45,0.05,0.53,0.15c0.08,0.1,0.12,0.29,0.12,0.57v0.99c0,0.29-0.04,0.48-0.12,0.57
		c-0.08,0.1-0.26,0.15-0.53,0.15h-3.94v12.94c0,0.27-0.05,0.45-0.15,0.53c-0.1,0.08-0.29,0.12-0.57,0.12h-1.3
		c-0.29,0-0.48-0.04-0.57-0.12c-0.1-0.08-0.15-0.26-0.15-0.53V18.55z"/>
	<path d="M237.97,31.49c0,0.27-0.05,0.45-0.15,0.53c-0.1,0.08-0.29,0.12-0.57,0.12h-1.31c-0.29,0-0.48-0.04-0.57-0.12
		c-0.1-0.08-0.15-0.26-0.15-0.53V16.77c0-0.27,0.05-0.45,0.15-0.53c0.1-0.08,0.29-0.12,0.57-0.12h1.31c0.28,0,0.48,0.04,0.57,0.12
		c0.1,0.08,0.15,0.26,0.15,0.53V31.49z"/>
	<path d="M243.89,21.32v10.17c0,0.27-0.05,0.45-0.15,0.53c-0.1,0.08-0.29,0.12-0.57,0.12h-1.24c-0.29,0-0.48-0.04-0.57-0.12
		c-0.1-0.08-0.15-0.26-0.15-0.53V16.77c0-0.27,0.05-0.45,0.15-0.53c0.1-0.08,0.29-0.12,0.57-0.12h1.3c0.29,0,0.49,0.03,0.62,0.1
		c0.13,0.07,0.27,0.24,0.42,0.53l5.38,10.19V16.77c0-0.27,0.05-0.45,0.15-0.53c0.1-0.08,0.29-0.12,0.57-0.12h1.24
		c0.29,0,0.48,0.04,0.57,0.12c0.1,0.08,0.15,0.26,0.15,0.53v14.71c0,0.27-0.05,0.45-0.15,0.53c-0.1,0.08-0.29,0.12-0.57,0.12h-1.3
		c-0.29,0-0.49-0.03-0.62-0.1c-0.13-0.07-0.27-0.24-0.42-0.53L243.89,21.32z"/>
	<path d="M255.16,22.6c0-1.54,0.17-2.73,0.52-3.55c0.43-1.08,1.14-1.9,2.1-2.45c0.97-0.55,2.13-0.83,3.48-0.83
		c0.76,0,1.49,0.09,2.17,0.28s1.28,0.48,1.79,0.87c0.51,0.39,0.92,0.89,1.21,1.5s0.45,1.33,0.45,2.17c0,0.21-0.05,0.35-0.16,0.43
		c-0.1,0.08-0.29,0.11-0.56,0.11h-1.39c-0.27,0-0.45-0.04-0.55-0.11c-0.1-0.07-0.15-0.22-0.17-0.45c-0.06-0.85-0.33-1.47-0.81-1.84
		c-0.48-0.38-1.2-0.56-2.16-0.56c-0.55,0-1.03,0.06-1.42,0.19c-0.39,0.13-0.71,0.35-0.96,0.66c-0.25,0.31-0.43,0.73-0.55,1.26
		s-0.18,1.18-0.18,1.98v3.78c0,1.52,0.25,2.58,0.75,3.2c0.5,0.62,1.29,0.92,2.35,0.92c0.99,0,1.74-0.25,2.25-0.76
		s0.77-1.38,0.77-2.61v-0.43h-1.73c-0.27,0-0.45-0.05-0.53-0.15c-0.08-0.1-0.12-0.29-0.12-0.57v-0.99c0-0.29,0.04-0.48,0.12-0.57
		c0.08-0.1,0.26-0.15,0.53-0.15h3.8c0.29,0,0.48,0.04,0.57,0.12c0.1,0.08,0.15,0.26,0.15,0.53v2.54c0,0.74-0.12,1.43-0.35,2.08
		c-0.23,0.65-0.59,1.23-1.07,1.72s-1.09,0.88-1.82,1.17c-0.74,0.28-1.6,0.43-2.59,0.43c-1.46,0-2.61-0.27-3.45-0.8
		c-0.85-0.53-1.49-1.29-1.92-2.26c-0.2-0.43-0.33-0.92-0.41-1.45c-0.08-0.53-0.11-1.23-0.11-2.1V22.6z"/>
</g>
<g>
	<path class="st0" d="M0.49,48.75V87c0.01,5.65,4.58,10.22,10.23,10.22h290c5.83,0.01,10.56-4.72,10.57-10.55c0,0,0-0.01,0-0.01
		V48.75H0.49z"/>
</g>
<g>
	<path d="M300.73,97.71c0,0-0.01,0-0.01,0h-290c-5.9,0-10.71-4.8-10.71-10.71V48.27h311.77v38.4c0,2.96-1.16,5.73-3.24,7.82
		C306.45,96.56,303.68,97.71,300.73,97.71z M0.98,49.24V87c0.01,5.37,4.38,9.73,9.75,9.73h290c0,0,0.01,0,0.01,0
		c2.69,0,5.21-1.04,7.12-2.94c1.91-1.9,2.96-4.43,2.96-7.12V49.24H0.98z"/>
</g>
<g class="st1">
	<path d="M55.81,80.51c0.03,0.12,0.04,0.2,0.04,0.24c0,0.26-0.16,0.39-0.48,0.39h-1.53c-0.28,0-0.46-0.04-0.54-0.12
		s-0.16-0.25-0.25-0.51l-1.01-3.09h-5.73l-0.99,3.11c-0.09,0.26-0.17,0.43-0.25,0.5c-0.08,0.07-0.26,0.11-0.54,0.11h-1.44
		c-0.32,0-0.48-0.13-0.48-0.39c0-0.04,0.01-0.12,0.04-0.24l4.93-14.56c0.06-0.18,0.14-0.29,0.24-0.33c0.1-0.04,0.26-0.07,0.46-0.07
		h1.97c0.2,0,0.36,0.02,0.46,0.07c0.1,0.04,0.18,0.15,0.24,0.33L55.81,80.51z M47.03,75.14h4.27l-2.15-6.65L47.03,75.14z"/>
	<path d="M56.12,65.55c0.26,0,0.44,0.04,0.55,0.11c0.1,0.07,0.18,0.25,0.24,0.53l2.08,10.75l2.28-10.44
		c0.03-0.16,0.1-0.27,0.21-0.32c0.11-0.05,0.27-0.08,0.49-0.08h1.31c0.22,0,0.38,0.03,0.49,0.08c0.11,0.05,0.18,0.16,0.21,0.32
		l2.06,10.55l2.32-10.86c0.06-0.28,0.14-0.45,0.24-0.53c0.1-0.07,0.28-0.11,0.55-0.11h1.42c0.31,0,0.46,0.13,0.46,0.39
		c0,0.12-0.02,0.26-0.07,0.44l-3.24,14.36c-0.03,0.16-0.1,0.27-0.22,0.32c-0.12,0.05-0.28,0.08-0.48,0.08h-1.69
		c-0.22,0-0.38-0.03-0.49-0.08c-0.11-0.05-0.18-0.16-0.21-0.32l-2.15-10.29l-2.12,10.29c-0.03,0.16-0.1,0.27-0.21,0.32
		c-0.11,0.05-0.27,0.08-0.49,0.08h-1.64c-0.2,0-0.36-0.03-0.48-0.08c-0.12-0.05-0.19-0.16-0.22-0.32l-3.06-14.36
		c-0.04-0.17-0.07-0.32-0.07-0.44c0-0.26,0.15-0.39,0.46-0.39H56.12z"/>
</g>
<g class="st1">
	<path d="M84.74,80.51c0.03,0.12,0.04,0.2,0.04,0.24c0,0.26-0.16,0.39-0.48,0.39h-1.53c-0.28,0-0.46-0.04-0.54-0.12
		s-0.16-0.25-0.25-0.51l-1.01-3.09h-5.73l-0.99,3.11c-0.09,0.26-0.17,0.43-0.25,0.5c-0.08,0.07-0.26,0.11-0.54,0.11h-1.44
		c-0.32,0-0.48-0.13-0.48-0.39c0-0.04,0.01-0.12,0.04-0.24l4.93-14.56c0.06-0.18,0.14-0.29,0.24-0.33c0.1-0.04,0.26-0.07,0.46-0.07
		h1.97c0.2,0,0.36,0.02,0.46,0.07c0.1,0.04,0.18,0.15,0.24,0.33L84.74,80.51z M75.96,75.14h4.27l-2.15-6.65L75.96,75.14z"/>
	<path d="M89.25,80.51c0,0.26-0.05,0.43-0.14,0.51c-0.1,0.08-0.28,0.12-0.56,0.12h-1.27c-0.28,0-0.46-0.04-0.56-0.12
		c-0.1-0.08-0.14-0.25-0.14-0.51V66.19c0-0.26,0.05-0.43,0.14-0.51c0.09-0.08,0.28-0.12,0.56-0.12h1.27c0.28,0,0.46,0.04,0.56,0.12
		c0.09,0.08,0.14,0.25,0.14,0.51V80.51z"/>
	<path d="M95.73,67.92H91.9c-0.26,0-0.43-0.05-0.51-0.14c-0.08-0.09-0.12-0.28-0.12-0.56v-0.96c0-0.28,0.04-0.46,0.12-0.56
		s0.25-0.14,0.51-0.14h10.33c0.26,0,0.43,0.05,0.51,0.14s0.12,0.28,0.12,0.56v0.96c0,0.28-0.04,0.46-0.12,0.56
		c-0.08,0.1-0.25,0.14-0.51,0.14H98.4v12.59c0,0.26-0.05,0.43-0.14,0.51c-0.1,0.08-0.28,0.12-0.56,0.12h-1.27
		c-0.28,0-0.46-0.04-0.56-0.12c-0.09-0.08-0.14-0.25-0.14-0.51V67.92z"/>
	<path d="M107.55,80.51c0,0.26-0.05,0.43-0.14,0.51c-0.1,0.08-0.28,0.12-0.56,0.12h-1.27c-0.28,0-0.46-0.04-0.56-0.12
		c-0.1-0.08-0.14-0.25-0.14-0.51V66.19c0-0.26,0.05-0.43,0.14-0.51c0.09-0.08,0.28-0.12,0.56-0.12h1.27c0.28,0,0.46,0.04,0.56,0.12
		c0.09,0.08,0.14,0.25,0.14,0.51V80.51z"/>
	<path d="M113.3,70.61v9.89c0,0.26-0.05,0.43-0.14,0.51s-0.28,0.12-0.56,0.12h-1.2c-0.28,0-0.46-0.04-0.56-0.12
		c-0.1-0.08-0.14-0.25-0.14-0.51V66.19c0-0.26,0.05-0.43,0.14-0.51c0.09-0.08,0.28-0.12,0.56-0.12h1.27c0.28,0,0.48,0.03,0.6,0.1
		s0.26,0.24,0.41,0.51l5.23,9.92v-9.89c0-0.26,0.05-0.43,0.14-0.51c0.09-0.08,0.28-0.12,0.56-0.12h1.2c0.28,0,0.46,0.04,0.56,0.12
		c0.09,0.08,0.14,0.25,0.14,0.51v14.32c0,0.26-0.05,0.43-0.14,0.51c-0.1,0.08-0.28,0.12-0.56,0.12h-1.27c-0.28,0-0.48-0.03-0.6-0.1
		c-0.12-0.07-0.26-0.24-0.41-0.51L113.3,70.61z"/>
	<path d="M124.27,71.86c0-1.5,0.17-2.66,0.5-3.46c0.42-1.05,1.11-1.85,2.05-2.39c0.94-0.54,2.07-0.81,3.38-0.81
		c0.74,0,1.45,0.09,2.11,0.27s1.24,0.46,1.74,0.84s0.89,0.86,1.18,1.46c0.29,0.59,0.44,1.3,0.44,2.11c0,0.2-0.05,0.34-0.15,0.42
		c-0.1,0.07-0.28,0.11-0.55,0.11h-1.36c-0.26,0-0.44-0.04-0.54-0.11c-0.1-0.07-0.15-0.22-0.16-0.44c-0.06-0.83-0.32-1.43-0.79-1.79
		c-0.47-0.36-1.17-0.55-2.1-0.55c-0.54,0-1,0.06-1.38,0.19c-0.38,0.12-0.69,0.34-0.93,0.65c-0.24,0.31-0.42,0.72-0.54,1.23
		s-0.17,1.15-0.17,1.93v3.68c0,1.47,0.24,2.51,0.73,3.11c0.49,0.6,1.25,0.9,2.29,0.9c0.96,0,1.69-0.25,2.19-0.74
		s0.74-1.34,0.74-2.54v-0.42h-1.69c-0.26,0-0.43-0.05-0.51-0.14c-0.08-0.09-0.12-0.28-0.12-0.56v-0.96c0-0.28,0.04-0.46,0.12-0.56
		s0.25-0.14,0.51-0.14h3.7c0.28,0,0.46,0.04,0.56,0.12c0.09,0.08,0.14,0.25,0.14,0.51v2.47c0,0.71-0.11,1.39-0.34,2.02
		c-0.23,0.63-0.57,1.19-1.04,1.67c-0.47,0.48-1.06,0.86-1.77,1.14c-0.72,0.28-1.55,0.42-2.52,0.42c-1.42,0-2.54-0.26-3.36-0.78
		c-0.82-0.52-1.45-1.25-1.87-2.2c-0.19-0.42-0.32-0.89-0.39-1.41c-0.07-0.52-0.11-1.2-0.11-2.05V71.86z"/>
	<path d="M145.44,75.36v5.14c0,0.26-0.05,0.43-0.14,0.51c-0.1,0.08-0.28,0.12-0.56,0.12h-1.23c-0.28,0-0.46-0.04-0.56-0.12
		c-0.1-0.08-0.14-0.25-0.14-0.51V66.19c0-0.26,0.05-0.43,0.14-0.51c0.09-0.08,0.28-0.12,0.56-0.12h4.36c0.86,0,1.62,0.08,2.28,0.25
		s1.2,0.44,1.64,0.82c0.44,0.38,0.77,0.87,0.99,1.47c0.22,0.6,0.33,1.34,0.33,2.21v0.44c0,1.59-0.44,2.76-1.32,3.5
		c-0.88,0.74-2.19,1.12-3.91,1.12H145.44z M145.44,73.08h2.43c0.55,0,1-0.06,1.32-0.19s0.58-0.3,0.76-0.51
		c0.17-0.22,0.29-0.47,0.35-0.77c0.06-0.29,0.09-0.6,0.09-0.92v-0.31c0-0.36-0.03-0.7-0.09-1.01c-0.06-0.31-0.18-0.58-0.35-0.81
		c-0.18-0.23-0.43-0.42-0.76-0.55c-0.33-0.13-0.77-0.2-1.32-0.2h-2.43V73.08z"/>
	<path d="M166.15,75.71c0,1.91-0.46,3.35-1.38,4.32c-0.92,0.97-2.26,1.46-4.03,1.46h-0.17c-1.77,0-3.11-0.49-4.03-1.46
		c-0.92-0.97-1.38-2.41-1.38-4.32v-9.52c0-0.25,0.04-0.42,0.13-0.5c0.09-0.09,0.28-0.13,0.57-0.13h1.27c0.29,0,0.48,0.04,0.57,0.13
		c0.09,0.09,0.13,0.25,0.13,0.5v9.5c0,2.25,0.9,3.37,2.69,3.37h0.26c1.79,0,2.69-1.12,2.69-3.37v-9.5c0-0.25,0.04-0.42,0.13-0.5
		c0.09-0.09,0.28-0.13,0.57-0.13h1.27c0.29,0,0.48,0.04,0.57,0.13c0.09,0.09,0.13,0.25,0.13,0.5V75.71z"/>
	<path d="M169.85,81.14c-0.28,0-0.46-0.04-0.56-0.12s-0.14-0.25-0.14-0.51V66.19c0-0.26,0.05-0.43,0.14-0.51s0.28-0.12,0.56-0.12
		h5.03c1.56,0,2.74,0.33,3.55,1c0.8,0.66,1.2,1.65,1.2,2.94v0.28c0,0.8-0.2,1.49-0.6,2.06c-0.4,0.57-0.91,0.93-1.52,1.09
		c0.69,0.18,1.25,0.57,1.69,1.19c0.44,0.62,0.66,1.36,0.66,2.22v0.35c0,1.62-0.46,2.77-1.39,3.44s-2.27,1.01-4.02,1.01H169.85z
		 M171.77,71.88h2.93c0.74,0,1.29-0.15,1.65-0.44c0.36-0.29,0.54-0.77,0.54-1.42v-0.28c0-0.66-0.19-1.14-0.57-1.45
		c-0.38-0.31-0.98-0.46-1.79-0.46h-2.76V71.88z M171.77,78.86h2.76c0.8,0,1.43-0.17,1.87-0.5c0.45-0.33,0.67-0.9,0.67-1.69v-0.44
		c0-0.67-0.19-1.2-0.57-1.59s-0.93-0.58-1.64-0.58h-3.09V78.86z"/>
	<path d="M191.6,80.44c0,0.28-0.04,0.46-0.12,0.56c-0.08,0.1-0.25,0.14-0.51,0.14h-7.79c-0.28,0-0.46-0.04-0.56-0.12
		s-0.14-0.25-0.14-0.51V66.19c0-0.26,0.05-0.43,0.14-0.51s0.28-0.12,0.56-0.12h1.27c0.28,0,0.46,0.04,0.56,0.12
		c0.09,0.08,0.14,0.25,0.14,0.51v12.59h5.82c0.26,0,0.43,0.05,0.51,0.14c0.08,0.09,0.12,0.28,0.12,0.56V80.44z"/>
	<path d="M196.4,80.51c0,0.26-0.05,0.43-0.14,0.51c-0.1,0.08-0.28,0.12-0.56,0.12h-1.27c-0.28,0-0.46-0.04-0.56-0.12
		s-0.14-0.25-0.14-0.51V66.19c0-0.26,0.05-0.43,0.14-0.51s0.28-0.12,0.56-0.12h1.27c0.28,0,0.46,0.04,0.56,0.12
		c0.09,0.08,0.14,0.25,0.14,0.51V80.51z"/>
	<path d="M207.54,76.54c0.01-0.22,0.07-0.37,0.16-0.44c0.09-0.07,0.27-0.11,0.54-0.11h1.31c0.28,0,0.46,0.04,0.56,0.12
		c0.09,0.08,0.14,0.24,0.14,0.47c0,0.79-0.09,1.44-0.28,1.96c-0.19,0.52-0.5,1-0.94,1.46c-0.96,0.99-2.42,1.49-4.38,1.49
		c-1.2,0-2.22-0.25-3.06-0.76c-0.85-0.5-1.49-1.24-1.93-2.22c-0.19-0.42-0.32-0.89-0.39-1.4c-0.07-0.51-0.11-1.2-0.11-2.06v-3.2
		c0-0.79,0.04-1.45,0.12-1.97c0.08-0.53,0.21-1.02,0.38-1.49c0.39-1.04,1.04-1.83,1.94-2.38c0.9-0.55,2.01-0.82,3.34-0.82
		c1.87,0,3.25,0.49,4.16,1.47c0.42,0.45,0.72,0.94,0.9,1.47c0.18,0.53,0.26,1.16,0.26,1.9c0,0.23-0.05,0.39-0.14,0.47
		c-0.1,0.08-0.28,0.12-0.56,0.12h-1.36c-0.26,0-0.44-0.04-0.54-0.11s-0.15-0.22-0.16-0.44c-0.03-0.92-0.25-1.58-0.66-1.97
		c-0.41-0.39-1.09-0.59-2.04-0.59c-1.07,0-1.82,0.3-2.25,0.91s-0.66,1.63-0.66,3.08v3.68c0,1.4,0.22,2.41,0.67,3.03
		s1.19,0.93,2.22,0.93c0.92,0,1.6-0.21,2.05-0.63C207.27,78.09,207.51,77.43,207.54,76.54z"/>
	<path d="M224.59,80.51c0.03,0.12,0.04,0.2,0.04,0.24c0,0.26-0.16,0.39-0.48,0.39h-1.53c-0.28,0-0.46-0.04-0.54-0.12
		s-0.16-0.25-0.25-0.51l-1.01-3.09h-5.74l-0.99,3.11c-0.09,0.26-0.17,0.43-0.25,0.5c-0.08,0.07-0.26,0.11-0.54,0.11h-1.44
		c-0.32,0-0.48-0.13-0.48-0.39c0-0.04,0.01-0.12,0.04-0.24l4.92-14.56c0.06-0.18,0.14-0.29,0.24-0.33c0.1-0.04,0.25-0.07,0.46-0.07
		h1.97c0.2,0,0.36,0.02,0.46,0.07c0.1,0.04,0.18,0.15,0.24,0.33L224.59,80.51z M215.81,75.14h4.27l-2.15-6.65L215.81,75.14z"/>
</g>
<g class="st1">
	<path d="M228.23,67.92h-3.83c-0.26,0-0.43-0.05-0.51-0.14c-0.08-0.09-0.12-0.28-0.12-0.56v-0.96c0-0.28,0.04-0.46,0.12-0.56
		s0.25-0.14,0.51-0.14h10.33c0.26,0,0.43,0.05,0.51,0.14s0.12,0.28,0.12,0.56v0.96c0,0.28-0.04,0.46-0.12,0.56
		c-0.08,0.1-0.25,0.14-0.51,0.14h-3.83v12.59c0,0.26-0.05,0.43-0.14,0.51c-0.1,0.08-0.28,0.12-0.56,0.12h-1.27
		c-0.28,0-0.46-0.04-0.56-0.12c-0.09-0.08-0.14-0.25-0.14-0.51V67.92z"/>
	<path d="M240.05,80.51c0,0.26-0.05,0.43-0.14,0.51s-0.28,0.12-0.56,0.12h-1.27c-0.28,0-0.46-0.04-0.56-0.12
		c-0.1-0.08-0.14-0.25-0.14-0.51V66.19c0-0.26,0.05-0.43,0.14-0.51c0.09-0.08,0.28-0.12,0.56-0.12h1.27c0.28,0,0.46,0.04,0.56,0.12
		s0.14,0.25,0.14,0.51V80.51z"/>
	<path d="M248.55,65.2c1.3,0,2.39,0.25,3.27,0.75s1.54,1.24,1.96,2.22c0.19,0.42,0.32,0.9,0.39,1.42c0.07,0.53,0.11,1.2,0.11,2.04
		v3.2c0,0.76-0.04,1.41-0.12,1.96c-0.08,0.55-0.21,1.05-0.38,1.5c-0.42,1.05-1.08,1.85-1.96,2.39c-0.88,0.54-1.97,0.81-3.27,0.81
		s-2.39-0.25-3.27-0.76c-0.88-0.5-1.54-1.24-1.96-2.22c-0.19-0.42-0.32-0.9-0.39-1.42s-0.11-1.2-0.11-2.04v-3.2
		c0-0.76,0.04-1.41,0.12-1.96c0.08-0.55,0.21-1.05,0.38-1.5c0.42-1.05,1.08-1.85,1.96-2.39S247.25,65.2,248.55,65.2z M248.55,67.55
		c-1.08,0-1.85,0.31-2.31,0.92c-0.46,0.61-0.69,1.63-0.69,3.04v3.68c0,1.42,0.23,2.43,0.69,3.04c0.46,0.61,1.23,0.92,2.31,0.92
		s1.85-0.31,2.31-0.92c0.46-0.61,0.69-1.63,0.69-3.04v-3.68c0-1.42-0.23-2.43-0.69-3.04C250.4,67.85,249.63,67.55,248.55,67.55z"/>
	<path d="M259.64,70.61v9.89c0,0.26-0.05,0.43-0.14,0.51s-0.28,0.12-0.56,0.12h-1.2c-0.28,0-0.46-0.04-0.56-0.12
		s-0.14-0.25-0.14-0.51V66.19c0-0.26,0.05-0.43,0.14-0.51s0.28-0.12,0.56-0.12h1.27c0.28,0,0.48,0.03,0.6,0.1s0.26,0.24,0.41,0.51
		l5.23,9.92v-9.89c0-0.26,0.05-0.43,0.14-0.51s0.28-0.12,0.56-0.12h1.2c0.28,0,0.46,0.04,0.56,0.12s0.14,0.25,0.14,0.51v14.32
		c0,0.26-0.05,0.43-0.14,0.51s-0.28,0.12-0.56,0.12h-1.27c-0.28,0-0.48-0.03-0.6-0.1s-0.26-0.24-0.41-0.51L259.64,70.61z"/>
</g>
</svg>
