<?xml version="1.0" encoding="utf-8"?>
<!-- Generator: Adobe Illustrator 26.0.1, SVG Export Plug-In . SVG Version: 6.00 Build 0)  -->
<svg version="1.1" id="Layer_1" xmlns="http://www.w3.org/2000/svg" xmlns:xlink="http://www.w3.org/1999/xlink" x="0px" y="0px"
	 viewBox="0 0 479.06 147.55" style="enable-background:new 0 0 479.06 147.55;" xml:space="preserve">
<style type="text/css">
	.st0{fill:#84BD00;}
	.st1{enable-background:new    ;}
	.st2{fill:#FFFFFF;}
</style>
<g>
	<path class="st0" d="M11,0.49C5.2,0.51,0.51,5.2,0.49,11v76.62C0.48,93.26,5.06,97.84,10.7,97.85c0,0,0.01,0,0.01,0h457.63
		c5.65,0,10.23-4.58,10.23-10.23V10.71c0-5.64-4.58-10.22-10.22-10.22c0,0-0.01,0-0.01,0H11z"/>
</g>
<g>
	<path d="M468.34,98.34H10.71c-2.87,0-5.56-1.12-7.58-3.14C1.11,93.17,0,90.48,0.01,87.62V11C0.02,4.95,4.95,0.02,11,0.01h457.34
		c5.91,0,10.72,4.8,10.72,10.71v76.91C479.06,93.53,474.25,98.34,468.34,98.34z M11,0.97C5.49,0.99,0.99,5.49,0.98,11v76.62
		c0,2.6,1.01,5.05,2.84,6.89c1.84,1.84,4.28,2.86,6.88,2.86h457.64c5.37,0,9.75-4.37,9.75-9.74V10.71c0-5.37-4.37-9.74-9.74-9.74H11
		z"/>
</g>
<g>
	<path d="M0,74.26v63.17c-0.07,5.52,4.36,10.05,9.88,10.12c0.01,0,0.01,0,0.02,0h459.26c5.52-0.06,9.95-4.59,9.89-10.11
		c0,0,0-0.01,0-0.01V74.26H0z"/>
</g>
<g class="st1">
	<path d="M16.31,27.22c0.14,0.64,0.43,1.13,0.88,1.45c0.45,0.32,1.09,0.48,1.91,0.48c0.94,0,1.63-0.17,2.05-0.51
		c0.42-0.34,0.63-0.89,0.63-1.65c0-0.6-0.17-1.09-0.52-1.47c-0.34-0.38-0.9-0.69-1.66-0.93l-2.38-0.74
		c-1.11-0.34-1.96-0.88-2.55-1.6c-0.59-0.72-0.89-1.57-0.89-2.56v-0.2c0-1.5,0.48-2.66,1.43-3.48s2.3-1.24,4.06-1.24
		c1.89,0,3.29,0.5,4.2,1.51c0.63,0.72,0.94,1.59,0.94,2.61c0,0.24-0.05,0.4-0.15,0.48c-0.1,0.08-0.29,0.12-0.57,0.12H22.4
		c-0.28,0-0.47-0.04-0.56-0.11s-0.15-0.22-0.18-0.45c-0.14-1.23-1.01-1.84-2.63-1.84c-1.65,0-2.47,0.74-2.47,2.23
		c0,0.3,0.04,0.56,0.11,0.79c0.07,0.23,0.2,0.42,0.38,0.6c0.18,0.17,0.42,0.33,0.71,0.47c0.29,0.14,0.66,0.28,1.09,0.42l2.38,0.74
		c1.14,0.35,1.99,0.89,2.55,1.63c0.56,0.74,0.84,1.65,0.84,2.71v0.29c0,1.45-0.47,2.57-1.42,3.36c-0.94,0.79-2.28,1.18-4,1.18
		c-2.04,0-3.53-0.47-4.47-1.42c-0.38-0.39-0.66-0.82-0.87-1.3s-0.3-0.98-0.3-1.51c0-0.24,0.05-0.4,0.15-0.48
		c0.1-0.08,0.29-0.12,0.57-0.12h1.26c0.27,0,0.45,0.04,0.55,0.11C16.2,26.84,16.27,26.99,16.31,27.22z"/>
	<path d="M26.72,21.6c0-1.54,0.17-2.73,0.52-3.55c0.43-1.08,1.14-1.9,2.1-2.45c0.97-0.55,2.12-0.83,3.47-0.83
		c0.76,0,1.49,0.09,2.17,0.28s1.28,0.48,1.79,0.87c0.51,0.39,0.91,0.89,1.21,1.5c0.3,0.61,0.45,1.33,0.45,2.17
		c0,0.21-0.05,0.35-0.16,0.43c-0.1,0.08-0.29,0.11-0.56,0.11h-1.39c-0.27,0-0.45-0.04-0.55-0.11c-0.1-0.07-0.15-0.22-0.17-0.45
		c-0.06-0.85-0.33-1.47-0.81-1.84c-0.48-0.37-1.2-0.56-2.16-0.56c-0.55,0-1.03,0.06-1.42,0.19c-0.39,0.13-0.71,0.35-0.96,0.66
		c-0.25,0.31-0.43,0.73-0.55,1.26s-0.18,1.18-0.18,1.98v3.78c0,1.51,0.25,2.58,0.75,3.19c0.5,0.62,1.29,0.92,2.35,0.92
		c0.99,0,1.74-0.25,2.25-0.76c0.51-0.51,0.76-1.38,0.76-2.61v-0.43h-1.73c-0.27,0-0.45-0.05-0.53-0.15
		c-0.08-0.1-0.12-0.29-0.12-0.57v-0.99c0-0.28,0.04-0.48,0.12-0.57c0.08-0.1,0.26-0.15,0.53-0.15h3.8c0.28,0,0.48,0.04,0.57,0.12
		c0.1,0.08,0.15,0.26,0.15,0.53v2.54c0,0.73-0.12,1.43-0.35,2.08c-0.23,0.65-0.59,1.22-1.07,1.72c-0.48,0.49-1.09,0.88-1.82,1.17
		c-0.73,0.28-1.6,0.43-2.59,0.43c-1.45,0-2.6-0.27-3.45-0.8c-0.85-0.53-1.49-1.29-1.92-2.26c-0.19-0.43-0.33-0.92-0.4-1.45
		s-0.11-1.23-0.11-2.1V21.6z"/>
	<path d="M46.75,14.76c1.33,0,2.45,0.26,3.36,0.78s1.58,1.28,2.01,2.28c0.19,0.44,0.33,0.92,0.4,1.46c0.08,0.54,0.11,1.24,0.11,2.09
		v3.28c0,0.78-0.04,1.45-0.12,2.01c-0.08,0.56-0.21,1.08-0.39,1.54c-0.44,1.08-1.11,1.9-2.01,2.45c-0.91,0.55-2.03,0.83-3.36,0.83
		s-2.45-0.26-3.36-0.78c-0.91-0.52-1.58-1.28-2.01-2.28c-0.19-0.43-0.33-0.92-0.4-1.46c-0.08-0.54-0.11-1.24-0.11-2.09V21.6
		c0-0.78,0.04-1.45,0.12-2.01c0.08-0.56,0.21-1.08,0.39-1.54c0.43-1.08,1.1-1.9,2.01-2.45C44.3,15.04,45.42,14.76,46.75,14.76z
		 M46.75,12.67l-0.65,0.67c-0.13,0.15-0.25,0.27-0.34,0.35c-0.09,0.08-0.17,0.15-0.25,0.19c-0.08,0.04-0.15,0.07-0.22,0.08
		c-0.08,0.01-0.17,0.01-0.29,0.01h-1.57c-0.26,0-0.38-0.08-0.38-0.25c0-0.04,0.02-0.1,0.07-0.16s0.13-0.16,0.27-0.29l1.71-1.64
		c0.14-0.13,0.25-0.24,0.34-0.33c0.09-0.08,0.17-0.14,0.25-0.18c0.08-0.04,0.15-0.06,0.23-0.08c0.07-0.02,0.16-0.02,0.27-0.02h1.17
		c0.19,0,0.36,0.03,0.48,0.1s0.33,0.24,0.6,0.51l1.71,1.64c0.13,0.13,0.23,0.23,0.27,0.29s0.07,0.11,0.07,0.16
		c0,0.17-0.13,0.25-0.38,0.25H48.5c-0.21,0-0.37-0.03-0.49-0.09c-0.12-0.06-0.32-0.24-0.61-0.54L46.75,12.67z M46.75,17.17
		c-1.11,0-1.9,0.31-2.37,0.94c-0.47,0.63-0.71,1.67-0.71,3.12v3.78c0,1.45,0.24,2.5,0.71,3.12c0.47,0.63,1.26,0.94,2.37,0.94
		s1.9-0.31,2.37-0.94c0.47-0.63,0.71-1.67,0.71-3.12v-3.78c0-1.45-0.24-2.5-0.71-3.12C48.65,17.48,47.86,17.17,46.75,17.17z"/>
	<path d="M58.17,24.88v5.6c0,0.26-0.04,0.43-0.13,0.52s-0.28,0.13-0.58,0.13h-1.26c-0.3,0-0.49-0.04-0.58-0.13s-0.13-0.26-0.13-0.52
		v-14.7c0-0.25,0.04-0.43,0.13-0.52s0.28-0.13,0.58-0.13H61c1.78,0,3.09,0.37,3.91,1.11c0.82,0.74,1.24,1.93,1.24,3.56v0.43
		c0,2.28-0.91,3.72-2.72,4.32l3.35,5.93c0.06,0.12,0.09,0.22,0.09,0.29c0,0.24-0.2,0.36-0.58,0.36H64.6c-0.26,0-0.44-0.04-0.55-0.12
		c-0.11-0.08-0.24-0.26-0.39-0.53l-3.03-5.6H58.17z M58.17,22.54h2.81c0.87,0,1.48-0.18,1.84-0.53c0.36-0.35,0.54-0.96,0.54-1.81
		v-0.32c0-0.9-0.18-1.53-0.53-1.89c-0.35-0.36-0.97-0.54-1.85-0.54h-2.81V22.54z"/>
	<path d="M85.3,30.48c0,0.27-0.05,0.45-0.15,0.53c-0.1,0.08-0.29,0.12-0.57,0.12h-1.3c-0.28,0-0.48-0.04-0.57-0.12
		c-0.1-0.08-0.15-0.26-0.15-0.53v-6.52h-6.07v6.52c0,0.27-0.05,0.45-0.15,0.53c-0.1,0.08-0.29,0.12-0.57,0.12h-1.3
		c-0.28,0-0.48-0.04-0.57-0.12c-0.1-0.08-0.15-0.26-0.15-0.53v-14.7c0-0.27,0.05-0.45,0.15-0.53c0.1-0.08,0.29-0.12,0.57-0.12h1.3
		c0.28,0,0.48,0.04,0.57,0.12s0.15,0.26,0.15,0.53v5.75h6.07v-5.75c0-0.27,0.05-0.45,0.15-0.53s0.29-0.12,0.57-0.12h1.3
		c0.28,0,0.48,0.04,0.57,0.12c0.1,0.08,0.15,0.26,0.15,0.53V30.48z"/>
	<path d="M89.39,15.12c0.25,0,0.43,0.03,0.53,0.1c0.1,0.07,0.2,0.21,0.3,0.42l3.26,6.63l3.21-6.63c0.1-0.21,0.21-0.35,0.3-0.42
		c0.1-0.07,0.27-0.1,0.53-0.1h1.55c0.37,0,0.56,0.12,0.56,0.36c0,0.11-0.02,0.2-0.07,0.29l-4.81,9.28v5.42
		c0,0.27-0.05,0.45-0.15,0.53c-0.1,0.08-0.29,0.12-0.57,0.12h-1.3c-0.28,0-0.48-0.04-0.57-0.12c-0.1-0.08-0.15-0.26-0.15-0.53v-5.42
		l-4.81-9.28c-0.05-0.09-0.07-0.19-0.07-0.29c0-0.24,0.19-0.36,0.56-0.36H89.39z"/>
	<path d="M110.86,30.41c0,0.29-0.04,0.48-0.12,0.57c-0.08,0.1-0.26,0.15-0.53,0.15h-8c-0.28,0-0.48-0.04-0.57-0.12
		c-0.1-0.08-0.15-0.26-0.15-0.53v-14.7c0-0.27,0.05-0.45,0.15-0.53c0.1-0.08,0.29-0.12,0.57-0.12h1.3c0.28,0,0.48,0.04,0.57,0.12
		s0.15,0.26,0.15,0.53V28.7h5.98c0.27,0,0.45,0.05,0.53,0.15c0.08,0.1,0.12,0.29,0.12,0.57V30.41z"/>
	<path d="M122.89,30.41c0,0.29-0.04,0.48-0.12,0.57c-0.08,0.1-0.26,0.15-0.53,0.15h-8.48c-0.28,0-0.48-0.04-0.57-0.12
		c-0.1-0.08-0.15-0.26-0.15-0.53v-14.7c0-0.27,0.05-0.45,0.15-0.53c0.1-0.08,0.29-0.12,0.57-0.12h8.39c0.27,0,0.45,0.05,0.53,0.15
		c0.08,0.1,0.12,0.29,0.12,0.57v0.99c0,0.28-0.04,0.48-0.12,0.57c-0.08,0.1-0.26,0.15-0.53,0.15h-6.36v4.14h5.78
		c0.27,0,0.45,0.05,0.53,0.15c0.08,0.1,0.12,0.29,0.12,0.57v0.99c0,0.29-0.04,0.48-0.12,0.57c-0.08,0.1-0.26,0.15-0.53,0.15h-5.78
		v4.59h6.45c0.27,0,0.45,0.05,0.53,0.15c0.08,0.1,0.12,0.29,0.12,0.57V30.41z"/>
	<path d="M128.4,20.32v10.16c0,0.27-0.05,0.45-0.15,0.53c-0.1,0.08-0.29,0.12-0.57,0.12h-1.24c-0.28,0-0.48-0.04-0.57-0.12
		c-0.1-0.08-0.15-0.26-0.15-0.53v-14.7c0-0.27,0.05-0.45,0.15-0.53c0.1-0.08,0.29-0.12,0.57-0.12h1.3c0.28,0,0.49,0.03,0.62,0.1
		s0.27,0.24,0.42,0.53l5.37,10.18V15.78c0-0.27,0.05-0.45,0.15-0.53c0.1-0.08,0.29-0.12,0.57-0.12h1.24c0.28,0,0.48,0.04,0.57,0.12
		c0.1,0.08,0.15,0.26,0.15,0.53v14.7c0,0.27-0.05,0.45-0.15,0.53c-0.1,0.08-0.29,0.12-0.57,0.12h-1.3c-0.29,0-0.49-0.03-0.62-0.1
		c-0.13-0.07-0.27-0.24-0.42-0.53L128.4,20.32z"/>
	<path d="M145.37,15.12c0.73,0,1.39,0.08,1.97,0.25c0.58,0.17,1.09,0.39,1.53,0.66c0.44,0.28,0.81,0.6,1.11,0.97
		s0.54,0.76,0.72,1.18c0.17,0.4,0.3,0.86,0.39,1.36c0.1,0.5,0.15,1.18,0.15,2.04v3.21c0,0.84-0.05,1.51-0.15,2
		c-0.1,0.5-0.23,0.94-0.39,1.33c-0.17,0.41-0.39,0.79-0.67,1.16s-0.63,0.69-1.03,0.97c-0.4,0.28-0.88,0.49-1.43,0.65
		c-0.55,0.16-1.17,0.24-1.85,0.24h-4.92c-0.28,0-0.48-0.04-0.57-0.12c-0.1-0.08-0.15-0.26-0.15-0.53v-14.7
		c0-0.27,0.05-0.45,0.15-0.53c0.1-0.08,0.29-0.12,0.57-0.12H145.37z M142.81,28.7h2.52c0.51,0,0.96-0.06,1.34-0.19
		c0.38-0.13,0.7-0.34,0.97-0.64s0.46-0.7,0.6-1.2s0.2-1.13,0.2-1.88v-3.33c0-0.73-0.07-1.35-0.21-1.86c-0.14-0.5-0.34-0.9-0.61-1.2
		s-0.58-0.52-0.97-0.65c-0.38-0.13-0.82-0.2-1.31-0.2h-2.52V28.7z"/>
	<path d="M156.81,30.48c0,0.27-0.05,0.45-0.15,0.53c-0.1,0.08-0.29,0.12-0.57,0.12h-1.3c-0.28,0-0.48-0.04-0.57-0.12
		c-0.1-0.08-0.15-0.26-0.15-0.53v-14.7c0-0.27,0.05-0.45,0.15-0.53c0.1-0.08,0.29-0.12,0.57-0.12h1.3c0.28,0,0.48,0.04,0.57,0.12
		s0.15,0.26,0.15,0.53V30.48z"/>
	<path d="M165.35,15.12c0.73,0,1.39,0.08,1.97,0.25c0.58,0.17,1.09,0.39,1.53,0.66c0.44,0.28,0.81,0.6,1.11,0.97
		s0.54,0.76,0.72,1.18c0.17,0.4,0.3,0.86,0.39,1.36c0.1,0.5,0.15,1.18,0.15,2.04v3.21c0,0.84-0.05,1.51-0.15,2
		c-0.1,0.5-0.23,0.94-0.39,1.33c-0.17,0.41-0.39,0.79-0.67,1.16s-0.63,0.69-1.03,0.97c-0.4,0.28-0.88,0.49-1.43,0.65
		c-0.55,0.16-1.17,0.24-1.85,0.24h-4.92c-0.28,0-0.48-0.04-0.57-0.12c-0.1-0.08-0.15-0.26-0.15-0.53v-14.7
		c0-0.27,0.05-0.45,0.15-0.53c0.1-0.08,0.29-0.12,0.57-0.12H165.35z M162.79,28.7h2.52c0.51,0,0.96-0.06,1.34-0.19
		c0.38-0.13,0.7-0.34,0.97-0.64s0.46-0.7,0.6-1.2s0.2-1.13,0.2-1.88v-3.33c0-0.73-0.07-1.35-0.21-1.86c-0.14-0.5-0.34-0.9-0.61-1.2
		s-0.58-0.52-0.97-0.65c-0.38-0.13-0.82-0.2-1.31-0.2h-2.52V28.7z"/>
	<path d="M179.27,31.13c-0.28,0-0.48-0.04-0.57-0.12c-0.1-0.08-0.15-0.26-0.15-0.53v-14.7c0-0.27,0.05-0.45,0.15-0.53
		c0.1-0.08,0.29-0.12,0.57-0.12h5.17c1.6,0,2.82,0.34,3.64,1.02c0.82,0.68,1.24,1.69,1.24,3.02v0.29c0,0.82-0.21,1.53-0.62,2.11
		c-0.41,0.58-0.93,0.96-1.56,1.12c0.7,0.18,1.28,0.59,1.73,1.22c0.45,0.64,0.67,1.4,0.67,2.28v0.36c0,1.66-0.48,2.84-1.43,3.53
		s-2.33,1.03-4.12,1.03H179.27z M181.24,21.62h3.01c0.76,0,1.33-0.15,1.7-0.45c0.37-0.3,0.55-0.79,0.55-1.46v-0.29
		c0-0.67-0.2-1.17-0.58-1.48c-0.39-0.32-1-0.47-1.84-0.47h-2.83V21.62z M181.24,28.79h2.83c0.82,0,1.46-0.17,1.92-0.52
		c0.46-0.34,0.69-0.92,0.69-1.73v-0.45c0-0.69-0.19-1.23-0.58-1.63c-0.39-0.4-0.95-0.6-1.69-0.6h-3.17V28.79z"/>
	<path d="M192.91,15.12c0.27,0,0.46,0.04,0.56,0.11c0.1,0.08,0.19,0.25,0.25,0.54l2.14,11.04l2.34-10.72
		c0.03-0.17,0.1-0.27,0.21-0.33c0.11-0.05,0.28-0.08,0.51-0.08h1.35c0.22,0,0.39,0.03,0.51,0.08c0.11,0.05,0.18,0.16,0.21,0.33
		l2.11,10.83l2.38-11.15c0.06-0.29,0.14-0.46,0.25-0.54c0.1-0.07,0.29-0.11,0.56-0.11h1.46c0.31,0,0.47,0.13,0.47,0.4
		c0,0.12-0.02,0.27-0.07,0.45l-3.33,14.75c-0.03,0.17-0.1,0.27-0.23,0.33c-0.12,0.05-0.28,0.08-0.49,0.08h-1.73
		c-0.22,0-0.39-0.03-0.51-0.08c-0.11-0.05-0.18-0.16-0.21-0.33l-2.2-10.57l-2.18,10.57c-0.03,0.17-0.1,0.27-0.21,0.33
		c-0.11,0.05-0.28,0.08-0.51,0.08h-1.69c-0.21,0-0.37-0.03-0.49-0.08c-0.12-0.05-0.2-0.16-0.23-0.33L191,15.98
		c-0.04-0.18-0.07-0.33-0.07-0.45c0-0.27,0.16-0.4,0.47-0.4H192.91z"/>
	<path d="M211.01,15.12c0.25,0,0.43,0.03,0.53,0.1c0.1,0.07,0.2,0.21,0.3,0.42l3.26,6.63l3.21-6.63c0.1-0.21,0.21-0.35,0.3-0.42
		c0.1-0.07,0.27-0.1,0.53-0.1h1.55c0.37,0,0.56,0.12,0.56,0.36c0,0.11-0.02,0.2-0.07,0.29l-4.81,9.28v5.42
		c0,0.27-0.05,0.45-0.15,0.53c-0.1,0.08-0.29,0.12-0.57,0.12h-1.3c-0.28,0-0.48-0.04-0.57-0.12c-0.1-0.08-0.15-0.26-0.15-0.53v-5.42
		l-4.81-9.28c-0.05-0.09-0.07-0.19-0.07-0.29c0-0.24,0.19-0.36,0.56-0.36H211.01z"/>
	<path d="M228.41,15.12c0.73,0,1.39,0.08,1.97,0.25c0.58,0.17,1.09,0.39,1.53,0.66c0.44,0.28,0.81,0.6,1.11,0.97
		s0.54,0.76,0.72,1.18c0.17,0.4,0.3,0.86,0.39,1.36c0.1,0.5,0.15,1.18,0.15,2.04v3.21c0,0.84-0.05,1.51-0.15,2
		c-0.1,0.5-0.23,0.94-0.39,1.33c-0.17,0.41-0.39,0.79-0.67,1.16s-0.63,0.69-1.03,0.97c-0.4,0.28-0.88,0.49-1.43,0.65
		c-0.55,0.16-1.17,0.24-1.85,0.24h-4.92c-0.28,0-0.48-0.04-0.57-0.12c-0.1-0.08-0.15-0.26-0.15-0.53v-14.7
		c0-0.27,0.05-0.45,0.15-0.53c0.1-0.08,0.29-0.12,0.57-0.12H228.41z M225.84,28.7h2.52c0.51,0,0.96-0.06,1.34-0.19
		c0.38-0.13,0.7-0.34,0.97-0.64s0.46-0.7,0.6-1.2s0.2-1.13,0.2-1.88v-3.33c0-0.73-0.07-1.35-0.21-1.86c-0.14-0.5-0.34-0.9-0.61-1.2
		s-0.58-0.52-0.97-0.65c-0.38-0.13-0.82-0.2-1.31-0.2h-2.52V28.7z"/>
</g>
<g class="st1">
	<path d="M16.36,50.91v6.54c0,0.27-0.05,0.45-0.15,0.53c-0.1,0.08-0.29,0.12-0.57,0.12h-1.3c-0.28,0-0.48-0.04-0.57-0.12
		c-0.1-0.08-0.15-0.26-0.15-0.53v-14.7c0-0.27,0.05-0.45,0.15-0.53c0.1-0.08,0.29-0.12,0.57-0.12h8.34c0.27,0,0.45,0.05,0.53,0.15
		s0.12,0.29,0.12,0.57v0.99c0,0.28-0.04,0.48-0.12,0.57s-0.26,0.15-0.53,0.15h-6.32v3.96h5.73c0.27,0,0.45,0.05,0.53,0.15
		c0.08,0.1,0.12,0.29,0.12,0.57v0.99c0,0.29-0.04,0.48-0.12,0.57s-0.26,0.15-0.53,0.15H16.36z"/>
	<path d="M31.33,41.73c1.33,0,2.45,0.26,3.36,0.78s1.58,1.28,2.01,2.28c0.19,0.44,0.33,0.92,0.4,1.46c0.08,0.54,0.11,1.24,0.11,2.09
		v3.28c0,0.78-0.04,1.45-0.12,2.01c-0.08,0.56-0.21,1.08-0.39,1.54c-0.44,1.08-1.11,1.9-2.01,2.45c-0.91,0.55-2.03,0.83-3.36,0.83
		s-2.45-0.26-3.36-0.78c-0.91-0.52-1.58-1.28-2.01-2.28c-0.19-0.43-0.33-0.92-0.4-1.46c-0.08-0.54-0.11-1.24-0.11-2.09v-3.28
		c0-0.78,0.04-1.45,0.12-2.01c0.08-0.56,0.21-1.08,0.39-1.54c0.43-1.08,1.1-1.9,2.01-2.45C28.88,42.01,30,41.73,31.33,41.73z
		 M31.33,44.14c-1.11,0-1.9,0.31-2.37,0.94c-0.47,0.63-0.71,1.67-0.71,3.12v3.78c0,1.45,0.24,2.5,0.71,3.12
		c0.47,0.63,1.26,0.94,2.37,0.94s1.9-0.31,2.37-0.94c0.47-0.63,0.71-1.67,0.71-3.12v-3.78c0-1.45-0.24-2.5-0.71-3.12
		C33.23,44.45,32.44,44.14,31.33,44.14z"/>
	<path d="M45.54,41.73c1.33,0,2.45,0.26,3.36,0.78s1.58,1.28,2.01,2.28c0.19,0.44,0.33,0.92,0.4,1.46c0.08,0.54,0.11,1.24,0.11,2.09
		v3.28c0,0.78-0.04,1.45-0.12,2.01c-0.08,0.56-0.21,1.08-0.39,1.54c-0.44,1.08-1.11,1.9-2.01,2.45c-0.91,0.55-2.03,0.83-3.36,0.83
		s-2.45-0.26-3.36-0.78c-0.91-0.52-1.58-1.28-2.01-2.28c-0.19-0.43-0.33-0.92-0.4-1.46c-0.08-0.54-0.11-1.24-0.11-2.09v-3.28
		c0-0.78,0.04-1.45,0.12-2.01c0.08-0.56,0.21-1.08,0.39-1.54c0.43-1.08,1.1-1.9,2.01-2.45C43.09,42.01,44.21,41.73,45.54,41.73z
		 M45.54,44.14c-1.11,0-1.9,0.31-2.37,0.94c-0.47,0.63-0.71,1.67-0.71,3.12v3.78c0,1.45,0.24,2.5,0.71,3.12
		c0.47,0.63,1.26,0.94,2.37,0.94s1.9-0.31,2.37-0.94c0.47-0.63,0.71-1.67,0.71-3.12v-3.78c0-1.45-0.24-2.5-0.71-3.12
		C47.44,44.45,46.65,44.14,45.54,44.14z"/>
	<path d="M59.57,42.09c0.73,0,1.39,0.08,1.97,0.25c0.58,0.17,1.09,0.39,1.53,0.66c0.44,0.28,0.81,0.6,1.11,0.97s0.54,0.76,0.72,1.18
		c0.17,0.4,0.3,0.86,0.39,1.36c0.1,0.5,0.15,1.18,0.15,2.04v3.21c0,0.84-0.05,1.51-0.15,2c-0.1,0.5-0.23,0.94-0.39,1.33
		c-0.17,0.41-0.39,0.79-0.67,1.16s-0.63,0.69-1.03,0.97c-0.4,0.28-0.88,0.49-1.43,0.65c-0.55,0.16-1.17,0.24-1.85,0.24h-4.92
		c-0.28,0-0.48-0.04-0.57-0.12c-0.1-0.08-0.15-0.26-0.15-0.53v-14.7c0-0.27,0.05-0.45,0.15-0.53c0.1-0.08,0.29-0.12,0.57-0.12H59.57
		z M57,55.67h2.52c0.51,0,0.96-0.06,1.34-0.19c0.38-0.13,0.7-0.34,0.97-0.64s0.46-0.7,0.6-1.2s0.2-1.13,0.2-1.88v-3.33
		c0-0.73-0.07-1.35-0.21-1.86c-0.14-0.5-0.34-0.9-0.61-1.2s-0.58-0.52-0.97-0.65c-0.38-0.13-0.82-0.2-1.31-0.2H57V55.67z"/>
	<path d="M84.32,57.45c0,0.27-0.05,0.45-0.15,0.53c-0.1,0.08-0.29,0.12-0.57,0.12h-1.3c-0.28,0-0.48-0.04-0.57-0.12
		c-0.1-0.08-0.15-0.26-0.15-0.53v-6.52H75.5v6.52c0,0.27-0.05,0.45-0.15,0.53c-0.1,0.08-0.29,0.12-0.57,0.12h-1.3
		c-0.28,0-0.48-0.04-0.57-0.12c-0.1-0.08-0.15-0.26-0.15-0.53v-14.7c0-0.27,0.05-0.45,0.15-0.53c0.1-0.08,0.29-0.12,0.57-0.12h1.3
		c0.28,0,0.48,0.04,0.57,0.12s0.15,0.26,0.15,0.53v5.75h6.07v-5.75c0-0.27,0.05-0.45,0.15-0.53s0.29-0.12,0.57-0.12h1.3
		c0.28,0,0.48,0.04,0.57,0.12c0.1,0.08,0.15,0.26,0.15,0.53V57.45z"/>
	<path d="M88.41,42.09c0.25,0,0.43,0.03,0.53,0.1c0.1,0.07,0.2,0.21,0.3,0.42l3.26,6.63l3.21-6.63c0.1-0.21,0.21-0.35,0.3-0.42
		c0.1-0.07,0.27-0.1,0.53-0.1h1.55c0.37,0,0.56,0.12,0.56,0.36c0,0.11-0.02,0.2-0.07,0.29l-4.81,9.28v5.42
		c0,0.27-0.05,0.45-0.15,0.53c-0.1,0.08-0.29,0.12-0.57,0.12h-1.3c-0.28,0-0.48-0.04-0.57-0.12c-0.1-0.08-0.15-0.26-0.15-0.53v-5.42
		l-4.81-9.28c-0.05-0.09-0.07-0.19-0.07-0.29c0-0.24,0.19-0.36,0.56-0.36H88.41z"/>
</g>
<g class="st1">
	<path d="M99.52,48.57c0-1.54,0.17-2.73,0.52-3.55c0.43-1.08,1.14-1.9,2.1-2.45c0.97-0.55,2.12-0.83,3.47-0.83
		c0.76,0,1.49,0.09,2.17,0.28s1.28,0.48,1.79,0.87c0.51,0.39,0.91,0.89,1.21,1.5c0.3,0.61,0.45,1.33,0.45,2.17
		c0,0.21-0.05,0.35-0.16,0.43c-0.1,0.08-0.29,0.11-0.56,0.11h-1.39c-0.27,0-0.45-0.04-0.55-0.11c-0.1-0.07-0.15-0.22-0.17-0.45
		c-0.06-0.85-0.33-1.47-0.81-1.84c-0.48-0.37-1.2-0.56-2.16-0.56c-0.55,0-1.03,0.06-1.42,0.19c-0.39,0.13-0.71,0.35-0.96,0.66
		c-0.25,0.31-0.43,0.73-0.55,1.26s-0.18,1.18-0.18,1.98v3.78c0,1.51,0.25,2.58,0.75,3.19c0.5,0.62,1.29,0.92,2.35,0.92
		c0.99,0,1.74-0.25,2.25-0.76c0.51-0.51,0.76-1.38,0.76-2.61V52.3h-1.73c-0.27,0-0.45-0.05-0.53-0.15c-0.08-0.1-0.12-0.29-0.12-0.57
		v-0.99c0-0.28,0.04-0.48,0.12-0.57c0.08-0.1,0.26-0.15,0.53-0.15h3.8c0.28,0,0.48,0.04,0.57,0.12c0.1,0.08,0.15,0.26,0.15,0.53
		v2.54c0,0.73-0.12,1.43-0.35,2.08c-0.23,0.65-0.59,1.22-1.07,1.72c-0.48,0.49-1.09,0.88-1.82,1.17c-0.73,0.28-1.6,0.43-2.59,0.43
		c-1.45,0-2.6-0.27-3.45-0.8c-0.85-0.53-1.49-1.29-1.92-2.26c-0.19-0.43-0.33-0.92-0.4-1.45s-0.11-1.23-0.11-2.1V48.57z"/>
	<path d="M116.81,57.45c0,0.27-0.05,0.45-0.15,0.53c-0.1,0.08-0.29,0.12-0.57,0.12h-1.3c-0.28,0-0.48-0.04-0.57-0.12
		c-0.1-0.08-0.15-0.26-0.15-0.53v-14.7c0-0.27,0.05-0.45,0.15-0.53c0.1-0.08,0.29-0.12,0.57-0.12h1.3c0.28,0,0.48,0.04,0.57,0.12
		s0.15,0.26,0.15,0.53V57.45z"/>
	<path d="M129.89,57.38c0,0.29-0.04,0.48-0.12,0.57c-0.08,0.1-0.26,0.15-0.53,0.15h-8.48c-0.28,0-0.48-0.04-0.57-0.12
		c-0.1-0.08-0.15-0.26-0.15-0.53v-14.7c0-0.27,0.05-0.45,0.15-0.53c0.1-0.08,0.29-0.12,0.57-0.12h8.39c0.27,0,0.45,0.05,0.53,0.15
		c0.08,0.1,0.12,0.29,0.12,0.57v0.99c0,0.28-0.04,0.48-0.12,0.57c-0.08,0.1-0.26,0.15-0.53,0.15h-6.36v4.14h5.78
		c0.27,0,0.45,0.05,0.53,0.15c0.08,0.1,0.12,0.29,0.12,0.57v0.99c0,0.29-0.04,0.48-0.12,0.57c-0.08,0.1-0.26,0.15-0.53,0.15h-5.78
		v4.59h6.45c0.27,0,0.45,0.05,0.53,0.15c0.08,0.1,0.12,0.29,0.12,0.57V57.38z"/>
	<path d="M135.4,47.29v10.16c0,0.27-0.05,0.45-0.15,0.53c-0.1,0.08-0.29,0.12-0.57,0.12h-1.24c-0.28,0-0.48-0.04-0.57-0.12
		c-0.1-0.08-0.15-0.26-0.15-0.53v-14.7c0-0.27,0.05-0.45,0.15-0.53c0.1-0.08,0.29-0.12,0.57-0.12h1.3c0.28,0,0.49,0.03,0.62,0.1
		s0.27,0.24,0.42,0.53l5.37,10.18V42.75c0-0.27,0.05-0.45,0.15-0.53c0.1-0.08,0.29-0.12,0.57-0.12h1.24c0.28,0,0.48,0.04,0.57,0.12
		c0.1,0.08,0.15,0.26,0.15,0.53v14.7c0,0.27-0.05,0.45-0.15,0.53c-0.1,0.08-0.29,0.12-0.57,0.12h-1.3c-0.29,0-0.49-0.03-0.62-0.1
		c-0.13-0.07-0.27-0.24-0.42-0.53L135.4,47.29z"/>
	<path d="M156.91,57.38c0,0.29-0.04,0.48-0.12,0.57c-0.08,0.1-0.26,0.15-0.53,0.15h-8.48c-0.28,0-0.48-0.04-0.57-0.12
		c-0.1-0.08-0.15-0.26-0.15-0.53v-14.7c0-0.27,0.05-0.45,0.15-0.53c0.1-0.08,0.29-0.12,0.57-0.12h8.39c0.27,0,0.45,0.05,0.53,0.15
		c0.08,0.1,0.12,0.29,0.12,0.57v0.99c0,0.28-0.04,0.48-0.12,0.57c-0.08,0.1-0.26,0.15-0.53,0.15h-6.36v4.14h5.78
		c0.27,0,0.45,0.05,0.53,0.15c0.08,0.1,0.12,0.29,0.12,0.57v0.99c0,0.29-0.04,0.48-0.12,0.57c-0.08,0.1-0.26,0.15-0.53,0.15h-5.78
		v4.59h6.45c0.27,0,0.45,0.05,0.53,0.15c0.08,0.1,0.12,0.29,0.12,0.57V57.38z"/>
	<path d="M166.94,51.85v5.6c0,0.26-0.04,0.43-0.13,0.52s-0.28,0.13-0.58,0.13h-1.26c-0.3,0-0.49-0.04-0.58-0.13
		s-0.13-0.26-0.13-0.52v-14.7c0-0.25,0.04-0.43,0.13-0.52s0.28-0.13,0.58-0.13h4.81c1.78,0,3.09,0.37,3.91,1.11
		c0.82,0.74,1.24,1.93,1.24,3.56v0.43c0,2.28-0.91,3.72-2.72,4.32l3.35,5.93c0.06,0.12,0.09,0.22,0.09,0.29
		c0,0.24-0.2,0.36-0.58,0.36h-1.69c-0.26,0-0.44-0.04-0.55-0.12c-0.11-0.08-0.24-0.26-0.39-0.53l-3.03-5.6H166.94z M166.94,49.51
		h2.81c0.87,0,1.48-0.18,1.84-0.53c0.36-0.35,0.54-0.96,0.54-1.81v-0.32c0-0.9-0.18-1.53-0.53-1.89c-0.35-0.36-0.97-0.54-1.85-0.54
		h-2.81V49.51z"/>
	<path d="M190.18,57.45c0.03,0.12,0.04,0.2,0.04,0.25c0,0.27-0.17,0.4-0.49,0.4h-1.57c-0.28,0-0.47-0.04-0.55-0.12
		c-0.08-0.08-0.17-0.26-0.26-0.53l-1.03-3.17h-5.89l-1.01,3.19c-0.09,0.27-0.18,0.44-0.26,0.52c-0.08,0.08-0.27,0.11-0.55,0.11
		h-1.48c-0.33,0-0.49-0.13-0.49-0.4c0-0.04,0.02-0.13,0.04-0.25l5.06-14.95c0.06-0.18,0.14-0.29,0.25-0.34
		c0.1-0.04,0.26-0.07,0.47-0.07h2.02c0.21,0,0.37,0.02,0.47,0.07c0.1,0.04,0.19,0.16,0.25,0.34L190.18,57.45z M181.17,51.94h4.38
		l-2.2-6.83L181.17,51.94z"/>
</g>
<g class="st1">
	<path d="M193.91,44.52h-3.93c-0.27,0-0.45-0.05-0.53-0.15c-0.08-0.1-0.12-0.29-0.12-0.57v-0.99c0-0.29,0.04-0.48,0.12-0.57
		c0.08-0.1,0.26-0.15,0.53-0.15h10.61c0.27,0,0.45,0.05,0.53,0.15s0.12,0.29,0.12,0.57v0.99c0,0.28-0.04,0.48-0.12,0.57
		s-0.26,0.15-0.53,0.15h-3.93v12.93c0,0.27-0.05,0.45-0.15,0.53c-0.1,0.08-0.29,0.12-0.57,0.12h-1.3c-0.28,0-0.48-0.04-0.57-0.12
		c-0.1-0.08-0.15-0.26-0.15-0.53V44.52z"/>
	<path d="M206.04,57.45c0,0.27-0.05,0.45-0.15,0.53c-0.1,0.08-0.29,0.12-0.57,0.12h-1.3c-0.28,0-0.48-0.04-0.57-0.12
		c-0.1-0.08-0.15-0.26-0.15-0.53v-14.7c0-0.27,0.05-0.45,0.15-0.53c0.1-0.08,0.29-0.12,0.57-0.12h1.3c0.28,0,0.48,0.04,0.57,0.12
		s0.15,0.26,0.15,0.53V57.45z"/>
	<path d="M211.96,47.29v10.16c0,0.27-0.05,0.45-0.15,0.53c-0.1,0.08-0.29,0.12-0.57,0.12H210c-0.28,0-0.48-0.04-0.57-0.12
		c-0.1-0.08-0.15-0.26-0.15-0.53v-14.7c0-0.27,0.05-0.45,0.15-0.53c0.1-0.08,0.29-0.12,0.57-0.12h1.3c0.28,0,0.49,0.03,0.62,0.1
		s0.27,0.24,0.42,0.53l5.37,10.18V42.75c0-0.27,0.05-0.45,0.15-0.53c0.1-0.08,0.29-0.12,0.57-0.12h1.24c0.28,0,0.48,0.04,0.57,0.12
		c0.1,0.08,0.15,0.26,0.15,0.53v14.7c0,0.27-0.05,0.45-0.15,0.53c-0.1,0.08-0.29,0.12-0.57,0.12h-1.3c-0.29,0-0.49-0.03-0.62-0.1
		c-0.13-0.07-0.27-0.24-0.42-0.53L211.96,47.29z"/>
	<path d="M223.22,48.57c0-1.54,0.17-2.73,0.52-3.55c0.43-1.08,1.14-1.9,2.1-2.45c0.97-0.55,2.12-0.83,3.47-0.83
		c0.76,0,1.49,0.09,2.17,0.28s1.28,0.48,1.79,0.87c0.51,0.39,0.91,0.89,1.21,1.5c0.3,0.61,0.45,1.33,0.45,2.17
		c0,0.21-0.05,0.35-0.16,0.43c-0.1,0.08-0.29,0.11-0.56,0.11h-1.39c-0.27,0-0.45-0.04-0.55-0.11c-0.1-0.07-0.15-0.22-0.17-0.45
		c-0.06-0.85-0.33-1.47-0.81-1.84c-0.48-0.37-1.2-0.56-2.16-0.56c-0.55,0-1.03,0.06-1.42,0.19c-0.39,0.13-0.71,0.35-0.96,0.66
		c-0.25,0.31-0.43,0.73-0.55,1.26s-0.18,1.18-0.18,1.98v3.78c0,1.51,0.25,2.58,0.75,3.19c0.5,0.62,1.29,0.92,2.35,0.92
		c0.99,0,1.74-0.25,2.25-0.76c0.51-0.51,0.76-1.38,0.76-2.61V52.3h-1.73c-0.27,0-0.45-0.05-0.53-0.15c-0.08-0.1-0.12-0.29-0.12-0.57
		v-0.99c0-0.28,0.04-0.48,0.12-0.57c0.08-0.1,0.26-0.15,0.53-0.15h3.8c0.28,0,0.48,0.04,0.57,0.12c0.1,0.08,0.15,0.26,0.15,0.53
		v2.54c0,0.73-0.12,1.43-0.35,2.08c-0.23,0.65-0.59,1.22-1.07,1.72c-0.48,0.49-1.09,0.88-1.82,1.17c-0.73,0.28-1.6,0.43-2.59,0.43
		c-1.45,0-2.6-0.27-3.45-0.8c-0.85-0.53-1.49-1.29-1.92-2.26c-0.19-0.43-0.33-0.92-0.4-1.45s-0.11-1.23-0.11-2.1V48.57z"/>
</g>
<g class="st1">
	<path d="M264.45,43.2c-1.83,0-3.05-0.74-3.67-2.21c-0.13-0.31-0.23-0.64-0.28-1.01c-0.06-0.36-0.08-0.83-0.08-1.41v-2.15
		c0-0.59,0.03-1.08,0.08-1.46c0.05-0.37,0.15-0.72,0.28-1.04c0.62-1.53,1.84-2.3,3.67-2.3c1.83,0,3.05,0.74,3.67,2.21
		c0.13,0.31,0.23,0.65,0.28,1.01c0.05,0.36,0.08,0.83,0.08,1.41v2.15c0,0.6-0.03,1.08-0.08,1.46c-0.06,0.38-0.15,0.72-0.28,1.04
		C267.51,42.44,266.28,43.2,264.45,43.2z M264.45,33.47c-0.36,0-0.67,0.05-0.92,0.15c-0.25,0.1-0.45,0.26-0.6,0.47
		s-0.26,0.5-0.33,0.84c-0.07,0.35-0.1,0.77-0.1,1.26v2.45c0,0.51,0.03,0.93,0.1,1.28c0.07,0.35,0.18,0.63,0.33,0.84
		s0.36,0.37,0.6,0.46s0.55,0.14,0.92,0.14c0.36,0,0.67-0.05,0.92-0.14s0.45-0.25,0.6-0.46s0.26-0.5,0.33-0.84
		c0.07-0.35,0.1-0.77,0.1-1.28v-2.45c0-0.5-0.03-0.92-0.1-1.26c-0.07-0.35-0.18-0.63-0.33-0.84s-0.36-0.37-0.6-0.47
		C265.12,33.51,264.82,33.47,264.45,33.47z"/>
</g>
<g>
	<path d="M265,53.47h-0.02c-9.03-0.01-16.37-7.35-16.36-16.38c0-9.03,7.35-16.38,16.38-16.38s16.38,7.35,16.38,16.38
		S274.03,53.47,265,53.47z M265,22.07c-8.28,0-15.02,6.74-15.02,15.02c0,8.28,6.73,15.01,15,15.02l0.02,0.68v-0.68
		c8.28,0,15.02-6.74,15.02-15.02S273.28,22.07,265,22.07z"/>
</g>
<g class="st1">
	<path d="M302.84,42.49c0,0.2-0.04,0.33-0.11,0.39c-0.07,0.06-0.21,0.09-0.42,0.09h-0.91c-0.21,0-0.35-0.03-0.42-0.09
		c-0.07-0.06-0.11-0.19-0.11-0.39v-8.84h-1.69c-0.2,0-0.33-0.04-0.39-0.11c-0.06-0.07-0.09-0.21-0.09-0.42v-0.73
		c0-0.21,0.03-0.35,0.09-0.42c0.06-0.07,0.19-0.11,0.39-0.11h3.12c0.21,0,0.35,0.03,0.42,0.09c0.07,0.06,0.11,0.19,0.11,0.39V42.49z
		"/>
</g>
<g>
	<path d="M301.86,53.47c-9.03,0-16.38-7.35-16.38-16.38s7.35-16.38,16.38-16.38c9.03,0,16.38,7.35,16.38,16.38
		S310.89,53.47,301.86,53.47z M301.86,22.07c-8.28,0-15.02,6.74-15.02,15.02s6.74,15.02,15.02,15.02c8.28,0,15.02-6.74,15.02-15.02
		S310.14,22.07,301.86,22.07z"/>
</g>
<g class="st1">
	<path d="M338.31,31.63c1.15,0,2.02,0.26,2.64,0.79c0.61,0.52,0.92,1.27,0.92,2.24v0.5c0,0.4-0.07,0.76-0.22,1.1
		c-0.15,0.34-0.35,0.64-0.59,0.93s-0.53,0.54-0.85,0.77s-0.64,0.45-0.97,0.64l-1.32,0.79c-0.3,0.18-0.53,0.34-0.7,0.49
		c-0.17,0.15-0.3,0.29-0.39,0.42c-0.09,0.13-0.14,0.26-0.17,0.4c-0.02,0.13-0.03,0.26-0.03,0.4v0.07h4.78c0.2,0,0.33,0.04,0.39,0.11
		c0.06,0.07,0.09,0.21,0.09,0.42v0.76c0,0.21-0.03,0.35-0.09,0.42c-0.06,0.07-0.19,0.11-0.39,0.11h-6.4c-0.21,0-0.35-0.03-0.42-0.09
		c-0.07-0.06-0.11-0.19-0.11-0.39v-0.81c0-0.5,0.06-0.94,0.18-1.33c0.12-0.39,0.28-0.74,0.49-1.04c0.2-0.3,0.44-0.57,0.72-0.79
		c0.27-0.23,0.57-0.43,0.88-0.6l1.4-0.81c0.22-0.13,0.43-0.27,0.64-0.41c0.2-0.14,0.38-0.29,0.54-0.47
		c0.15-0.18,0.28-0.37,0.37-0.59s0.14-0.45,0.14-0.72v-0.17c0-0.97-0.53-1.45-1.59-1.45c-0.53,0-0.92,0.1-1.17,0.31
		c-0.25,0.21-0.41,0.58-0.49,1.11c-0.02,0.13-0.07,0.22-0.14,0.27c-0.07,0.05-0.2,0.07-0.37,0.07h-0.94c-0.21,0-0.35-0.03-0.42-0.1
		c-0.07-0.07-0.11-0.2-0.11-0.41c0-0.34,0.07-0.69,0.2-1.03c0.13-0.35,0.31-0.63,0.53-0.85C336.01,31.98,337.01,31.63,338.31,31.63z
		"/>
</g>
<g>
	<path d="M338.74,53.47c-9.03,0-16.38-7.35-16.38-16.38s7.35-16.38,16.38-16.38c9.03,0,16.38,7.35,16.38,16.38
		C355.12,46.12,347.77,53.47,338.74,53.47z M338.74,22.07c-8.28,0-15.02,6.74-15.02,15.02s6.74,15.02,15.02,15.02
		s15.02-6.74,15.02-15.02C353.76,28.81,347.02,22.07,338.74,22.07z"/>
</g>
<g class="st1">
	<path d="M375.31,31.63c1.13,0,2,0.24,2.6,0.73c0.6,0.49,0.9,1.2,0.9,2.13v0.33c0,0.53-0.15,0.99-0.45,1.38
		c-0.3,0.39-0.71,0.7-1.24,0.92c0.59,0.15,1.05,0.44,1.36,0.84c0.31,0.41,0.47,0.93,0.47,1.55v0.61c0,0.97-0.34,1.72-1.02,2.26
		s-1.6,0.81-2.77,0.81c-0.71,0-1.33-0.09-1.86-0.26c-0.53-0.17-0.96-0.42-1.28-0.74c-0.22-0.22-0.4-0.5-0.53-0.83
		c-0.13-0.34-0.2-0.67-0.2-1c0-0.21,0.04-0.35,0.11-0.41c0.07-0.07,0.21-0.1,0.42-0.1h0.94c0.19,0,0.32,0.02,0.39,0.07
		c0.07,0.05,0.11,0.14,0.12,0.27c0.08,0.87,0.68,1.31,1.8,1.31c0.57,0,1.01-0.13,1.32-0.38c0.31-0.25,0.46-0.63,0.46-1.12v-0.4
		c0-1.04-0.57-1.55-1.7-1.55h-0.5c-0.2,0-0.33-0.04-0.39-0.11c-0.06-0.07-0.09-0.21-0.09-0.42V36.8c0-0.21,0.03-0.35,0.09-0.42
		c0.06-0.07,0.19-0.11,0.39-0.11h0.3c1.19,0,1.79-0.5,1.79-1.49v-0.2c0-0.9-0.54-1.36-1.62-1.36c-0.54,0-0.95,0.11-1.23,0.32
		c-0.28,0.21-0.46,0.57-0.54,1.07c-0.02,0.13-0.07,0.22-0.14,0.27c-0.07,0.05-0.2,0.07-0.37,0.07h-0.88c-0.21,0-0.35-0.03-0.42-0.1
		c-0.07-0.07-0.11-0.2-0.11-0.41c0-0.33,0.06-0.65,0.19-0.97c0.13-0.31,0.31-0.59,0.54-0.82c0.35-0.36,0.77-0.63,1.26-0.79
		S374.56,31.63,375.31,31.63z"/>
</g>
<g>
	<path d="M375.63,53.47h-0.02c-9.03-0.01-16.37-7.35-16.36-16.38c0-9.03,7.35-16.38,16.38-16.38s16.38,7.35,16.38,16.38
		S384.66,53.47,375.63,53.47z M375.63,22.07c-8.28,0-15.02,6.74-15.02,15.02c0,8.28,6.73,15.01,15,15.02l0.02,0.68v-0.68
		c8.28,0,15.02-6.74,15.02-15.02S383.91,22.07,375.63,22.07z"/>
</g>
<g class="st1">
	<path d="M414.11,31.86c0.21,0,0.35,0.03,0.42,0.09s0.11,0.19,0.11,0.39v6.71h0.66c0.2,0,0.33,0.04,0.39,0.11
		c0.06,0.07,0.09,0.21,0.09,0.42v0.68c0,0.21-0.03,0.35-0.09,0.42c-0.06,0.07-0.19,0.11-0.39,0.11h-0.66v1.7
		c0,0.2-0.04,0.33-0.11,0.39s-0.21,0.09-0.42,0.09h-0.84c-0.21,0-0.35-0.03-0.42-0.09c-0.07-0.06-0.11-0.19-0.11-0.39v-1.7h-4.41
		c-0.2,0-0.33-0.04-0.39-0.11c-0.06-0.07-0.09-0.21-0.09-0.42V39.1c0-0.13,0.01-0.26,0.03-0.37c0.02-0.12,0.08-0.23,0.17-0.36
		l4.17-6.05c0.13-0.19,0.23-0.31,0.31-0.37s0.18-0.09,0.34-0.09H414.11z M412.74,39.05v-4.64l-3.22,4.64H412.74z"/>
</g>
<g>
	<path d="M412.26,53.47c-9.03,0-16.38-7.35-16.38-16.38s7.35-16.38,16.38-16.38s16.38,7.35,16.38,16.38S421.29,53.47,412.26,53.47z
		 M412.26,22.07c-8.28,0-15.02,6.74-15.02,15.02s6.74,15.02,15.02,15.02s15.02-6.74,15.02-15.02S420.54,22.07,412.26,22.07z"/>
</g>
<g>
	<path d="M449.14,53.47c9.05,0,16.38-7.33,16.38-16.38s-7.33-16.38-16.38-16.38c-9.05,0-16.38,7.33-16.38,16.38
		S440.09,53.47,449.14,53.47L449.14,53.47z"/>
</g>
<g class="st1">
	<path class="st2" d="M452.54,39.93c0,1.04-0.32,1.84-0.97,2.41s-1.53,0.86-2.67,0.86c-1.38,0-2.38-0.32-3.01-0.96
		c-0.22-0.22-0.39-0.48-0.52-0.79c-0.13-0.31-0.19-0.62-0.19-0.94c0-0.21,0.04-0.35,0.11-0.41c0.07-0.07,0.21-0.1,0.42-0.1h0.94
		c0.18,0,0.3,0.03,0.37,0.07c0.07,0.05,0.12,0.14,0.14,0.27c0.07,0.42,0.23,0.72,0.49,0.9s0.65,0.27,1.18,0.27
		c1.13,0,1.7-0.56,1.7-1.69V39.2c0-1.19-0.53-1.79-1.6-1.79c-0.19,0-0.39,0.02-0.61,0.07c-0.22,0.04-0.41,0.11-0.56,0.18
		c-0.21,0.1-0.36,0.16-0.45,0.19s-0.21,0.04-0.36,0.04h-0.89c-0.22,0-0.36-0.03-0.43-0.1s-0.1-0.19-0.1-0.38v-5.08
		c0-0.19,0.03-0.31,0.1-0.38s0.21-0.1,0.43-0.1h5.67c0.19,0,0.31,0.03,0.38,0.1s0.1,0.21,0.1,0.43v0.73c0,0.22-0.03,0.36-0.1,0.43
		c-0.07,0.07-0.19,0.1-0.38,0.1h-4.4v2.58c0.35-0.17,0.69-0.29,1.02-0.36s0.67-0.12,1.03-0.12c2.11,0,3.16,1.15,3.16,3.44V39.93z"/>
</g>
<g>
	<path d="M449.14,54.15c-9.41,0-17.06-7.65-17.06-17.06s7.65-17.06,17.06-17.06s17.06,7.65,17.06,17.06S458.55,54.15,449.14,54.15z
		 M449.14,21.39c-8.66,0-15.7,7.04-15.7,15.7s7.04,15.7,15.7,15.7s15.7-7.04,15.7-15.7S457.8,21.39,449.14,21.39z"/>
</g>
<g class="st1">
	<path class="st2" d="M204.72,89.4c0.73,0,1.39,0.08,1.97,0.25c0.58,0.17,1.09,0.39,1.53,0.66s0.81,0.6,1.11,0.97
		c0.3,0.37,0.54,0.76,0.72,1.18c0.16,0.41,0.3,0.86,0.39,1.36c0.1,0.5,0.15,1.18,0.15,2.04v3.22c0,0.84-0.05,1.51-0.15,2
		c-0.1,0.5-0.23,0.94-0.39,1.33c-0.17,0.4-0.39,0.79-0.68,1.16c-0.29,0.37-0.63,0.69-1.03,0.97c-0.41,0.28-0.88,0.5-1.43,0.65
		s-1.17,0.24-1.86,0.24h-4.93c-0.29,0-0.48-0.04-0.57-0.12c-0.1-0.08-0.15-0.26-0.15-0.53V90.05c0-0.27,0.05-0.45,0.15-0.53
		c0.1-0.08,0.29-0.12,0.57-0.12H204.72z M202.16,102.99h2.52c0.51,0,0.96-0.06,1.34-0.19c0.38-0.13,0.71-0.34,0.97-0.64
		c0.26-0.3,0.46-0.7,0.6-1.2c0.13-0.5,0.2-1.13,0.2-1.88v-3.33c0-0.74-0.07-1.35-0.21-1.86c-0.14-0.5-0.35-0.9-0.61-1.2
		c-0.26-0.3-0.58-0.52-0.97-0.65c-0.38-0.13-0.82-0.2-1.32-0.2h-2.52V102.99z"/>
	<path class="st2" d="M224.81,104.77c0.03,0.12,0.04,0.2,0.04,0.25c0,0.27-0.17,0.41-0.5,0.41h-1.57c-0.29,0-0.47-0.04-0.55-0.12
		c-0.08-0.08-0.17-0.26-0.26-0.53l-1.04-3.17h-5.9l-1.01,3.2c-0.09,0.27-0.18,0.44-0.26,0.52c-0.08,0.08-0.27,0.11-0.55,0.11h-1.48
		c-0.33,0-0.5-0.13-0.5-0.41c0-0.04,0.01-0.13,0.04-0.25l5.06-14.96c0.06-0.18,0.14-0.29,0.25-0.34c0.1-0.04,0.26-0.07,0.47-0.07
		h2.02c0.21,0,0.37,0.02,0.47,0.07s0.19,0.16,0.25,0.34L224.81,104.77z M215.79,99.26h4.39l-2.21-6.84L215.79,99.26z"/>
</g>
<g class="st1">
	<path class="st2" d="M234.41,104.77c0,0.27-0.05,0.45-0.15,0.53c-0.1,0.08-0.29,0.12-0.57,0.12h-1.31c-0.29,0-0.48-0.04-0.57-0.12
		c-0.1-0.08-0.15-0.26-0.15-0.53V90.05c0-0.27,0.05-0.45,0.15-0.53c0.1-0.08,0.29-0.12,0.57-0.12h1.31c0.28,0,0.48,0.04,0.57,0.12
		c0.1,0.08,0.15,0.26,0.15,0.53V104.77z"/>
	<path class="st2" d="M249.82,104.77c0.03,0.12,0.04,0.2,0.04,0.25c0,0.27-0.17,0.41-0.5,0.41h-1.58c-0.29,0-0.47-0.04-0.55-0.12
		c-0.08-0.08-0.17-0.26-0.26-0.53l-1.04-3.17h-5.9l-1.01,3.2c-0.09,0.27-0.18,0.44-0.26,0.52c-0.08,0.08-0.27,0.11-0.55,0.11h-1.48
		c-0.33,0-0.5-0.13-0.5-0.41c0-0.04,0.01-0.13,0.04-0.25l5.06-14.96c0.06-0.18,0.14-0.29,0.25-0.34s0.26-0.07,0.47-0.07h2.03
		c0.21,0,0.37,0.02,0.47,0.07c0.11,0.04,0.19,0.16,0.25,0.34L249.82,104.77z M240.79,99.26h4.39l-2.21-6.84L240.79,99.26z"/>
</g>
<g class="st1">
	<path class="st2" d="M251.26,89.4c0.27,0,0.46,0.04,0.56,0.11c0.11,0.08,0.19,0.25,0.25,0.54l2.14,11.05l2.34-10.73
		c0.03-0.17,0.1-0.27,0.21-0.33c0.11-0.05,0.28-0.08,0.51-0.08h1.35c0.23,0,0.39,0.03,0.51,0.08c0.11,0.05,0.18,0.16,0.21,0.33
		l2.11,10.85l2.39-11.16c0.06-0.29,0.14-0.46,0.25-0.54c0.1-0.08,0.29-0.11,0.56-0.11h1.46c0.31,0,0.47,0.13,0.47,0.4
		c0,0.12-0.02,0.27-0.07,0.45l-3.33,14.76c-0.03,0.17-0.11,0.27-0.23,0.33c-0.12,0.05-0.29,0.08-0.5,0.08h-1.73
		c-0.22,0-0.39-0.03-0.51-0.08c-0.11-0.05-0.18-0.16-0.21-0.33l-2.21-10.58l-2.18,10.58c-0.03,0.17-0.1,0.27-0.21,0.33
		c-0.11,0.05-0.28,0.08-0.51,0.08h-1.69c-0.21,0-0.38-0.03-0.5-0.08c-0.12-0.05-0.2-0.16-0.22-0.33l-3.15-14.76
		c-0.04-0.18-0.07-0.33-0.07-0.45c0-0.27,0.16-0.4,0.47-0.4H251.26z"/>
	<path class="st2" d="M271.2,94.6v10.17c0,0.27-0.05,0.45-0.15,0.53c-0.1,0.08-0.29,0.12-0.57,0.12h-1.24
		c-0.29,0-0.48-0.04-0.57-0.12c-0.1-0.08-0.15-0.26-0.15-0.53V90.05c0-0.27,0.05-0.45,0.15-0.53c0.1-0.08,0.29-0.12,0.57-0.12h1.31
		c0.28,0,0.49,0.03,0.62,0.1c0.13,0.07,0.27,0.24,0.42,0.53l5.38,10.19V90.05c0-0.27,0.05-0.45,0.15-0.53
		c0.1-0.08,0.29-0.12,0.57-0.12h1.24c0.28,0,0.48,0.04,0.57,0.12c0.1,0.08,0.15,0.26,0.15,0.53v14.71c0,0.27-0.05,0.45-0.15,0.53
		c-0.1,0.08-0.29,0.12-0.57,0.12h-1.31c-0.29,0-0.49-0.03-0.62-0.1c-0.13-0.07-0.27-0.24-0.42-0.53L271.2,94.6z"/>
</g>
<g class="st1">
	<path class="st2" d="M183.29,117.05c-0.03-0.12-0.04-0.2-0.04-0.25c0-0.27,0.17-0.4,0.5-0.4h1.62c0.28,0,0.47,0.04,0.56,0.12
		c0.09,0.08,0.17,0.26,0.25,0.53l3.44,11.97l3.44-11.97c0.07-0.27,0.16-0.45,0.25-0.53c0.09-0.08,0.28-0.12,0.56-0.12h1.55
		c0.33,0,0.5,0.13,0.5,0.4c0,0.04-0.02,0.13-0.04,0.25l-4.57,14.96c-0.06,0.18-0.14,0.29-0.25,0.34c-0.1,0.04-0.26,0.07-0.47,0.07
		h-2c-0.21,0-0.37-0.02-0.47-0.07s-0.19-0.16-0.25-0.34L183.29,117.05z"/>
	<path class="st2" d="M207.7,131.7c0,0.29-0.04,0.48-0.12,0.57c-0.08,0.1-0.26,0.15-0.53,0.15h-8.48c-0.29,0-0.48-0.04-0.57-0.12
		c-0.1-0.08-0.15-0.26-0.15-0.53v-14.71c0-0.27,0.05-0.45,0.15-0.53c0.1-0.08,0.29-0.12,0.57-0.12h8.39c0.27,0,0.45,0.05,0.53,0.15
		c0.08,0.1,0.12,0.29,0.12,0.57v0.99c0,0.29-0.04,0.48-0.12,0.57s-0.26,0.15-0.53,0.15h-6.37v4.14h5.78c0.27,0,0.45,0.05,0.53,0.15
		c0.08,0.1,0.12,0.29,0.12,0.57v0.99c0,0.29-0.04,0.48-0.12,0.57c-0.08,0.1-0.26,0.15-0.53,0.15h-5.78v4.59h6.46
		c0.27,0,0.45,0.05,0.53,0.15c0.08,0.1,0.12,0.29,0.12,0.57V131.7z"/>
	<path class="st2" d="M213.24,126.17v5.6c0,0.25-0.04,0.43-0.13,0.52s-0.29,0.13-0.58,0.13h-1.26c-0.3,0-0.49-0.04-0.58-0.13
		c-0.09-0.09-0.13-0.26-0.13-0.52v-14.71c0-0.25,0.04-0.43,0.13-0.52c0.09-0.09,0.28-0.13,0.58-0.13h4.81
		c1.79,0,3.09,0.37,3.92,1.11s1.24,1.93,1.24,3.57v0.43c0,2.28-0.91,3.72-2.72,4.32l3.35,5.94c0.06,0.12,0.09,0.22,0.09,0.29
		c0,0.24-0.19,0.36-0.58,0.36h-1.69c-0.25,0-0.44-0.04-0.55-0.12c-0.11-0.08-0.24-0.26-0.39-0.53l-3.04-5.6H213.24z M213.24,123.83
		h2.81c0.87,0,1.49-0.18,1.85-0.53c0.36-0.35,0.54-0.96,0.54-1.81v-0.32c0-0.9-0.18-1.53-0.53-1.89c-0.35-0.36-0.97-0.54-1.86-0.54
		h-2.81V123.83z"/>
</g>
<g class="st1">
	<path class="st2" d="M224.52,116.4c0.25,0,0.43,0.03,0.53,0.1c0.1,0.07,0.2,0.21,0.3,0.42l3.26,6.64l3.22-6.64
		c0.1-0.21,0.21-0.35,0.3-0.42c0.1-0.07,0.27-0.1,0.53-0.1h1.55c0.38,0,0.56,0.12,0.56,0.36c0,0.11-0.02,0.2-0.07,0.29l-4.81,9.29
		v5.42c0,0.27-0.05,0.45-0.15,0.53c-0.1,0.08-0.29,0.12-0.57,0.12h-1.3c-0.29,0-0.48-0.04-0.57-0.12c-0.1-0.08-0.15-0.26-0.15-0.53
		v-5.42l-4.81-9.29c-0.04-0.09-0.07-0.19-0.07-0.29c0-0.24,0.19-0.36,0.56-0.36H224.52z"/>
	<path class="st2" d="M240.71,122.88c0-1.54,0.17-2.73,0.52-3.55c0.44-1.08,1.14-1.9,2.1-2.45c0.97-0.55,2.13-0.83,3.48-0.83
		c0.77,0,1.49,0.09,2.17,0.28c0.68,0.19,1.28,0.48,1.79,0.87c0.51,0.39,0.92,0.89,1.21,1.5c0.3,0.61,0.45,1.33,0.45,2.17
		c0,0.21-0.05,0.35-0.16,0.43c-0.11,0.08-0.29,0.11-0.56,0.11h-1.4c-0.27,0-0.45-0.04-0.55-0.11c-0.1-0.07-0.15-0.22-0.17-0.45
		c-0.06-0.85-0.33-1.47-0.81-1.84c-0.48-0.38-1.2-0.56-2.16-0.56c-0.56,0-1.03,0.06-1.42,0.19c-0.39,0.13-0.71,0.35-0.96,0.66
		c-0.25,0.31-0.43,0.73-0.55,1.26c-0.12,0.53-0.18,1.18-0.18,1.98v3.78c0,1.52,0.25,2.58,0.75,3.2s1.29,0.92,2.35,0.92
		c0.99,0,1.74-0.25,2.25-0.76s0.76-1.38,0.76-2.61v-0.43h-1.73c-0.27,0-0.45-0.05-0.53-0.15c-0.08-0.1-0.12-0.29-0.12-0.57v-0.99
		c0-0.29,0.04-0.48,0.12-0.57c0.08-0.1,0.26-0.15,0.53-0.15h3.8c0.29,0,0.48,0.04,0.57,0.12c0.1,0.08,0.15,0.26,0.15,0.53v2.54
		c0,0.74-0.12,1.43-0.35,2.08s-0.59,1.23-1.07,1.72c-0.48,0.5-1.09,0.88-1.82,1.17c-0.73,0.28-1.6,0.43-2.59,0.43
		c-1.46,0-2.61-0.27-3.45-0.8s-1.49-1.29-1.92-2.26c-0.19-0.43-0.33-0.92-0.4-1.45c-0.08-0.53-0.11-1.23-0.11-2.1V122.88z"/>
	<path class="st2" d="M260.76,116.04c1.33,0,2.46,0.26,3.36,0.78c0.91,0.52,1.58,1.28,2.01,2.28c0.19,0.44,0.33,0.92,0.41,1.46
		c0.07,0.54,0.11,1.24,0.11,2.09v3.28c0,0.78-0.04,1.45-0.12,2.01s-0.21,1.08-0.39,1.54c-0.44,1.08-1.11,1.9-2.01,2.45
		c-0.91,0.55-2.03,0.83-3.36,0.83s-2.46-0.26-3.36-0.78c-0.91-0.52-1.58-1.28-2.01-2.28c-0.2-0.43-0.33-0.92-0.41-1.46
		s-0.11-1.24-0.11-2.09v-3.29c0-0.78,0.04-1.45,0.12-2.01c0.08-0.56,0.21-1.08,0.39-1.54c0.43-1.08,1.11-1.9,2.01-2.45
		C258.31,116.32,259.43,116.04,260.76,116.04z M260.76,118.45c-1.11,0-1.9,0.32-2.37,0.95s-0.71,1.67-0.71,3.13v3.78
		c0,1.46,0.24,2.5,0.71,3.13s1.26,0.94,2.37,0.94c1.11,0,1.9-0.31,2.37-0.94s0.71-1.67,0.71-3.13v-3.78c0-1.45-0.24-2.5-0.71-3.13
		S261.87,118.45,260.76,118.45z"/>
	<path class="st2" d="M274.98,116.04c1.33,0,2.46,0.26,3.36,0.78c0.91,0.52,1.58,1.28,2.01,2.28c0.19,0.44,0.33,0.92,0.41,1.46
		c0.07,0.54,0.11,1.24,0.11,2.09v3.28c0,0.78-0.04,1.45-0.12,2.01s-0.21,1.08-0.39,1.54c-0.44,1.08-1.11,1.9-2.01,2.45
		c-0.91,0.55-2.03,0.83-3.36,0.83s-2.46-0.26-3.36-0.78c-0.91-0.52-1.58-1.28-2.01-2.28c-0.2-0.43-0.33-0.92-0.41-1.46
		s-0.11-1.24-0.11-2.09v-3.29c0-0.78,0.04-1.45,0.12-2.01c0.08-0.56,0.21-1.08,0.39-1.54c0.43-1.08,1.11-1.9,2.01-2.45
		C272.53,116.32,273.65,116.04,274.98,116.04z M274.98,118.45c-1.11,0-1.9,0.32-2.37,0.95s-0.71,1.67-0.71,3.13v3.78
		c0,1.46,0.24,2.5,0.71,3.13s1.26,0.94,2.37,0.94c1.11,0,1.9-0.31,2.37-0.94s0.71-1.67,0.71-3.13v-3.78c0-1.45-0.24-2.5-0.71-3.13
		S276.09,118.45,274.98,118.45z"/>
	<path class="st2" d="M289.02,116.4c0.73,0,1.39,0.08,1.97,0.25s1.09,0.39,1.53,0.66s0.81,0.6,1.11,0.97
		c0.3,0.37,0.54,0.76,0.72,1.18c0.16,0.41,0.3,0.86,0.39,1.36c0.1,0.5,0.15,1.18,0.15,2.04v3.22c0,0.84-0.05,1.51-0.15,2
		c-0.1,0.5-0.23,0.94-0.39,1.33c-0.17,0.4-0.39,0.79-0.68,1.16c-0.29,0.37-0.63,0.69-1.03,0.97c-0.41,0.28-0.88,0.5-1.43,0.65
		c-0.55,0.16-1.17,0.24-1.86,0.24h-4.93c-0.29,0-0.48-0.04-0.57-0.12c-0.1-0.08-0.15-0.26-0.15-0.53v-14.71
		c0-0.27,0.05-0.45,0.15-0.53c0.1-0.08,0.29-0.12,0.57-0.12H289.02z M286.46,129.99h2.52c0.51,0,0.96-0.06,1.34-0.19
		c0.38-0.13,0.71-0.34,0.97-0.64c0.26-0.3,0.46-0.7,0.6-1.2c0.13-0.5,0.2-1.13,0.2-1.88v-3.33c0-0.74-0.07-1.35-0.21-1.86
		c-0.14-0.5-0.35-0.9-0.61-1.2c-0.26-0.3-0.58-0.52-0.97-0.65s-0.82-0.2-1.32-0.2h-2.52V129.99z"/>
</g>
</svg>
