<?xml version="1.0" encoding="utf-8"?>
<!-- Generator: Adobe Illustrator 26.0.1, SVG Export Plug-In . SVG Version: 6.00 Build 0)  -->
<svg version="1.1" id="Layer_1" xmlns="http://www.w3.org/2000/svg" xmlns:xlink="http://www.w3.org/1999/xlink" x="0px" y="0px"
	 viewBox="0 0 311.81 97.71" style="enable-background:new 0 0 311.81 97.71;" xml:space="preserve">
<style type="text/css">
	.st0{fill:#84BD00;}
	.st1{enable-background:new    ;}
</style>
<g>
	<path class="st0" d="M311.33,49V10.72c-0.01-5.65-4.59-10.23-10.24-10.23h-290C5.26,0.47,0.51,5.18,0.49,11.01
		c0,0.01,0,0.03,0,0.04V49H311.33z"/>
</g>
<g>
	<path d="M311.82,49.49H0.01V11.05c0.01-2.99,1.17-5.76,3.26-7.84c2.08-2.07,4.85-3.21,7.78-3.21c0.01,0,0.03,0,0.04,0h290
		c5.91,0,10.72,4.81,10.73,10.71V49.49z M0.98,48.52h309.87v-37.8c0-5.37-4.38-9.75-9.75-9.75h-290C8.42,0.99,5.86,2,3.95,3.9
		s-2.97,4.42-2.98,7.11V48.52z"/>
</g>
<g class="st1">
	<path d="M48.08,24.94v6.55c0,0.27-0.05,0.45-0.15,0.53c-0.1,0.08-0.29,0.12-0.57,0.12h-1.31c-0.29,0-0.48-0.04-0.57-0.12
		c-0.1-0.08-0.15-0.26-0.15-0.53V16.77c0-0.27,0.05-0.45,0.15-0.53c0.1-0.08,0.29-0.12,0.57-0.12h8.35c0.27,0,0.45,0.05,0.53,0.15
		c0.08,0.1,0.12,0.29,0.12,0.57v0.99c0,0.29-0.04,0.48-0.12,0.57c-0.08,0.1-0.26,0.15-0.53,0.15h-6.32v3.96h5.74
		c0.27,0,0.45,0.05,0.53,0.15c0.08,0.1,0.12,0.29,0.12,0.57v0.99c0,0.29-0.04,0.48-0.12,0.57c-0.08,0.1-0.26,0.15-0.53,0.15H48.08z"
		/>
	<path d="M63.06,15.76c1.33,0,2.46,0.26,3.36,0.78s1.58,1.28,2.01,2.28c0.19,0.44,0.33,0.92,0.41,1.46
		c0.07,0.54,0.11,1.24,0.11,2.09v3.28c0,0.78-0.04,1.45-0.12,2.01c-0.08,0.56-0.21,1.08-0.39,1.54c-0.44,1.08-1.11,1.9-2.01,2.45
		s-2.03,0.83-3.36,0.83s-2.46-0.26-3.36-0.78s-1.58-1.28-2.01-2.28c-0.19-0.43-0.33-0.92-0.4-1.46c-0.08-0.54-0.11-1.24-0.11-2.09
		V22.6c0-0.78,0.04-1.45,0.12-2.01c0.08-0.56,0.21-1.08,0.39-1.54c0.44-1.08,1.11-1.9,2.01-2.45C60.6,16.04,61.72,15.76,63.06,15.76
		z M63.06,18.17c-1.11,0-1.9,0.32-2.37,0.95s-0.71,1.67-0.71,3.13v3.78c0,1.46,0.24,2.5,0.71,3.13s1.26,0.94,2.37,0.94
		s1.9-0.31,2.37-0.94c0.47-0.63,0.71-1.67,0.71-3.13v-3.78c0-1.45-0.24-2.5-0.71-3.13C64.96,18.48,64.17,18.17,63.06,18.17z"/>
	<path d="M77.28,15.76c1.33,0,2.46,0.26,3.36,0.78s1.58,1.28,2.01,2.28c0.19,0.44,0.33,0.92,0.41,1.46
		c0.07,0.54,0.11,1.24,0.11,2.09v3.28c0,0.78-0.04,1.45-0.12,2.01c-0.08,0.56-0.21,1.08-0.39,1.54c-0.44,1.08-1.11,1.9-2.01,2.45
		s-2.03,0.83-3.36,0.83s-2.46-0.26-3.36-0.78s-1.58-1.28-2.01-2.28c-0.19-0.43-0.33-0.92-0.4-1.46c-0.08-0.54-0.11-1.24-0.11-2.09
		V22.6c0-0.78,0.04-1.45,0.12-2.01c0.08-0.56,0.21-1.08,0.39-1.54c0.44-1.08,1.11-1.9,2.01-2.45
		C74.82,16.04,75.94,15.76,77.28,15.76z M77.28,18.17c-1.11,0-1.9,0.32-2.37,0.95s-0.71,1.67-0.71,3.13v3.78
		c0,1.46,0.24,2.5,0.71,3.13s1.26,0.94,2.37,0.94s1.9-0.31,2.37-0.94c0.47-0.63,0.71-1.67,0.71-3.13v-3.78
		c0-1.45-0.24-2.5-0.71-3.13C79.18,18.48,78.39,18.17,77.28,18.17z"/>
	<path d="M91.32,16.12c0.73,0,1.39,0.08,1.97,0.25c0.58,0.17,1.09,0.39,1.53,0.66s0.81,0.6,1.11,0.97c0.3,0.37,0.54,0.76,0.72,1.18
		c0.16,0.41,0.3,0.86,0.39,1.36c0.1,0.5,0.15,1.18,0.15,2.04v3.22c0,0.84-0.05,1.51-0.15,2c-0.1,0.5-0.23,0.94-0.39,1.33
		c-0.17,0.4-0.39,0.79-0.68,1.16c-0.29,0.37-0.63,0.69-1.03,0.97c-0.41,0.28-0.88,0.5-1.43,0.65s-1.17,0.24-1.86,0.24h-4.93
		c-0.29,0-0.48-0.04-0.57-0.12c-0.1-0.08-0.15-0.26-0.15-0.53V16.77c0-0.27,0.05-0.45,0.15-0.53c0.1-0.08,0.29-0.12,0.57-0.12H91.32
		z M88.75,29.71h2.52c0.51,0,0.96-0.06,1.34-0.19c0.38-0.13,0.71-0.34,0.97-0.64c0.26-0.3,0.46-0.7,0.6-1.2
		c0.13-0.5,0.2-1.13,0.2-1.88v-3.33c0-0.74-0.07-1.35-0.21-1.86c-0.14-0.5-0.35-0.9-0.61-1.2c-0.26-0.3-0.58-0.52-0.97-0.65
		c-0.38-0.13-0.82-0.2-1.32-0.2h-2.52V29.71z"/>
	<path d="M116.09,31.49c0,0.27-0.05,0.45-0.15,0.53c-0.1,0.08-0.29,0.12-0.57,0.12h-1.3c-0.29,0-0.48-0.04-0.57-0.12
		c-0.1-0.08-0.15-0.26-0.15-0.53v-6.53h-6.07v6.53c0,0.27-0.05,0.45-0.15,0.53c-0.1,0.08-0.29,0.12-0.57,0.12h-1.31
		c-0.29,0-0.48-0.04-0.57-0.12c-0.1-0.08-0.15-0.26-0.15-0.53V16.77c0-0.27,0.05-0.45,0.15-0.53c0.1-0.08,0.29-0.12,0.57-0.12h1.31
		c0.28,0,0.48,0.04,0.57,0.12c0.1,0.08,0.15,0.26,0.15,0.53v5.76h6.07v-5.76c0-0.27,0.05-0.45,0.15-0.53
		c0.1-0.08,0.29-0.12,0.57-0.12h1.3c0.29,0,0.48,0.04,0.57,0.12c0.1,0.08,0.15,0.26,0.15,0.53V31.49z"/>
	<path d="M120.19,16.12c0.25,0,0.43,0.03,0.53,0.1c0.1,0.07,0.2,0.21,0.3,0.42l3.26,6.64l3.22-6.64c0.1-0.21,0.21-0.35,0.3-0.42
		c0.1-0.07,0.27-0.1,0.53-0.1h1.55c0.38,0,0.56,0.12,0.56,0.36c0,0.11-0.02,0.2-0.07,0.29l-4.81,9.29v5.42
		c0,0.27-0.05,0.45-0.15,0.53c-0.1,0.08-0.29,0.12-0.57,0.12h-1.3c-0.29,0-0.48-0.04-0.57-0.12c-0.1-0.08-0.15-0.26-0.15-0.53v-5.42
		L118,16.77c-0.04-0.09-0.07-0.19-0.07-0.29c0-0.24,0.19-0.36,0.56-0.36H120.19z"/>
</g>
<g class="st1">
	<path d="M131.33,22.6c0-1.54,0.17-2.73,0.52-3.55c0.44-1.08,1.14-1.9,2.1-2.45c0.97-0.55,2.13-0.83,3.48-0.83
		c0.77,0,1.49,0.09,2.17,0.28c0.68,0.19,1.28,0.48,1.79,0.87c0.51,0.39,0.92,0.89,1.21,1.5c0.3,0.61,0.45,1.33,0.45,2.17
		c0,0.21-0.05,0.35-0.16,0.43c-0.1,0.08-0.29,0.11-0.56,0.11h-1.4c-0.27,0-0.45-0.04-0.55-0.11c-0.1-0.07-0.15-0.22-0.17-0.45
		c-0.06-0.85-0.33-1.47-0.81-1.84s-1.2-0.56-2.16-0.56c-0.56,0-1.03,0.06-1.42,0.19c-0.39,0.13-0.71,0.35-0.96,0.66
		c-0.25,0.31-0.43,0.73-0.55,1.26c-0.12,0.53-0.18,1.18-0.18,1.98v3.78c0,1.52,0.25,2.58,0.75,3.2c0.5,0.62,1.29,0.92,2.35,0.92
		c0.99,0,1.74-0.25,2.25-0.76s0.77-1.38,0.77-2.61v-0.43h-1.73c-0.27,0-0.45-0.05-0.53-0.15s-0.12-0.29-0.12-0.57v-0.99
		c0-0.29,0.04-0.48,0.12-0.57s0.26-0.15,0.53-0.15h3.8c0.29,0,0.48,0.04,0.57,0.12c0.1,0.08,0.15,0.26,0.15,0.53v2.54
		c0,0.74-0.12,1.43-0.35,2.08c-0.23,0.65-0.59,1.23-1.07,1.72c-0.48,0.5-1.09,0.88-1.82,1.17c-0.73,0.28-1.6,0.43-2.59,0.43
		c-1.46,0-2.61-0.27-3.45-0.8c-0.85-0.53-1.49-1.29-1.92-2.26c-0.19-0.43-0.33-0.92-0.4-1.45c-0.08-0.53-0.11-1.23-0.11-2.1V22.6z"
		/>
	<path d="M148.64,31.49c0,0.27-0.05,0.45-0.15,0.53c-0.1,0.08-0.29,0.12-0.57,0.12h-1.31c-0.29,0-0.48-0.04-0.57-0.12
		c-0.1-0.08-0.15-0.26-0.15-0.53V16.77c0-0.27,0.05-0.45,0.15-0.53c0.1-0.08,0.29-0.12,0.57-0.12h1.31c0.28,0,0.48,0.04,0.57,0.12
		c0.1,0.08,0.15,0.26,0.15,0.53V31.49z"/>
	<path d="M161.73,31.42c0,0.29-0.04,0.48-0.12,0.57c-0.08,0.1-0.26,0.15-0.53,0.15h-8.48c-0.29,0-0.48-0.04-0.57-0.12
		c-0.1-0.08-0.15-0.26-0.15-0.53V16.77c0-0.27,0.05-0.45,0.15-0.53c0.1-0.08,0.29-0.12,0.57-0.12h8.39c0.27,0,0.45,0.05,0.53,0.15
		c0.08,0.1,0.12,0.29,0.12,0.57v0.99c0,0.29-0.04,0.48-0.12,0.57c-0.08,0.1-0.26,0.15-0.53,0.15h-6.37v4.14h5.78
		c0.27,0,0.45,0.05,0.53,0.15c0.08,0.1,0.12,0.29,0.12,0.57v0.99c0,0.29-0.04,0.48-0.12,0.57c-0.08,0.1-0.26,0.15-0.53,0.15h-5.78
		v4.59h6.46c0.27,0,0.45,0.05,0.53,0.15c0.08,0.1,0.12,0.29,0.12,0.57V31.42z"/>
	<path d="M167.24,21.32v10.17c0,0.27-0.05,0.45-0.15,0.53c-0.1,0.08-0.29,0.12-0.57,0.12h-1.24c-0.29,0-0.48-0.04-0.57-0.12
		c-0.1-0.08-0.15-0.26-0.15-0.53V16.77c0-0.27,0.05-0.45,0.15-0.53c0.1-0.08,0.29-0.12,0.57-0.12h1.3c0.29,0,0.49,0.03,0.62,0.1
		c0.13,0.07,0.27,0.24,0.42,0.53L173,26.94V16.77c0-0.27,0.05-0.45,0.15-0.53c0.1-0.08,0.29-0.12,0.57-0.12h1.24
		c0.29,0,0.48,0.04,0.57,0.12c0.1,0.08,0.15,0.26,0.15,0.53v14.71c0,0.27-0.05,0.45-0.15,0.53c-0.1,0.08-0.29,0.12-0.57,0.12h-1.3
		c-0.29,0-0.49-0.03-0.62-0.1c-0.13-0.07-0.27-0.24-0.42-0.53L167.24,21.32z"/>
	<path d="M188.78,31.42c0,0.29-0.04,0.48-0.12,0.57c-0.08,0.1-0.26,0.15-0.53,0.15h-8.48c-0.29,0-0.48-0.04-0.57-0.12
		c-0.1-0.08-0.15-0.26-0.15-0.53V16.77c0-0.27,0.05-0.45,0.15-0.53c0.1-0.08,0.29-0.12,0.57-0.12h8.39c0.27,0,0.45,0.05,0.53,0.15
		c0.08,0.1,0.12,0.29,0.12,0.57v0.99c0,0.29-0.04,0.48-0.12,0.57c-0.08,0.1-0.26,0.15-0.53,0.15h-6.37v4.14h5.78
		c0.27,0,0.45,0.05,0.53,0.15s0.12,0.29,0.12,0.57v0.99c0,0.29-0.04,0.48-0.12,0.57s-0.26,0.15-0.53,0.15h-5.78v4.59h6.46
		c0.27,0,0.45,0.05,0.53,0.15c0.08,0.1,0.12,0.29,0.12,0.57V31.42z"/>
	<path d="M198.81,25.88v5.6c0,0.25-0.04,0.43-0.13,0.52s-0.29,0.13-0.58,0.13h-1.26c-0.3,0-0.49-0.04-0.58-0.13
		c-0.09-0.09-0.13-0.26-0.13-0.52V16.77c0-0.25,0.04-0.43,0.13-0.52c0.09-0.09,0.29-0.13,0.58-0.13h4.82c1.79,0,3.09,0.37,3.92,1.11
		c0.82,0.74,1.24,1.93,1.24,3.57v0.43c0,2.28-0.91,3.72-2.72,4.32l3.35,5.94c0.06,0.12,0.09,0.22,0.09,0.29
		c0,0.24-0.19,0.36-0.58,0.36h-1.69c-0.25,0-0.44-0.04-0.55-0.12c-0.11-0.08-0.24-0.26-0.39-0.53l-3.04-5.6H198.81z M198.81,23.55
		h2.81c0.87,0,1.49-0.18,1.84-0.53c0.36-0.35,0.54-0.96,0.54-1.81v-0.32c0-0.9-0.18-1.53-0.53-1.89c-0.35-0.36-0.97-0.54-1.86-0.54
		h-2.81V23.55z"/>
	<path d="M222.08,31.49c0.03,0.12,0.04,0.2,0.04,0.25c0,0.27-0.17,0.41-0.5,0.41h-1.57c-0.29,0-0.47-0.04-0.55-0.12
		c-0.08-0.08-0.17-0.26-0.26-0.53l-1.04-3.17h-5.89l-1.01,3.2c-0.09,0.27-0.18,0.44-0.26,0.52s-0.27,0.11-0.55,0.11H209
		c-0.33,0-0.5-0.13-0.5-0.41c0-0.04,0.01-0.13,0.04-0.25l5.06-14.96c0.06-0.18,0.14-0.29,0.25-0.34c0.1-0.04,0.26-0.07,0.47-0.07
		h2.02c0.21,0,0.37,0.02,0.47,0.07c0.1,0.04,0.19,0.16,0.25,0.34L222.08,31.49z M213.05,25.97h4.39l-2.21-6.84L213.05,25.97z"/>
</g>
<g class="st1">
	<path d="M225.82,18.55h-3.94c-0.27,0-0.45-0.05-0.53-0.15c-0.08-0.1-0.12-0.29-0.12-0.57v-0.99c0-0.29,0.04-0.48,0.12-0.57
		c0.08-0.1,0.26-0.15,0.53-0.15h10.62c0.27,0,0.45,0.05,0.53,0.15c0.08,0.1,0.12,0.29,0.12,0.57v0.99c0,0.29-0.04,0.48-0.12,0.57
		c-0.08,0.1-0.26,0.15-0.53,0.15h-3.94v12.94c0,0.27-0.05,0.45-0.15,0.53c-0.1,0.08-0.29,0.12-0.57,0.12h-1.3
		c-0.29,0-0.48-0.04-0.57-0.12c-0.1-0.08-0.15-0.26-0.15-0.53V18.55z"/>
	<path d="M237.97,31.49c0,0.27-0.05,0.45-0.15,0.53c-0.1,0.08-0.29,0.12-0.57,0.12h-1.31c-0.29,0-0.48-0.04-0.57-0.12
		c-0.1-0.08-0.15-0.26-0.15-0.53V16.77c0-0.27,0.05-0.45,0.15-0.53c0.1-0.08,0.29-0.12,0.57-0.12h1.31c0.28,0,0.48,0.04,0.57,0.12
		c0.1,0.08,0.15,0.26,0.15,0.53V31.49z"/>
	<path d="M243.89,21.32v10.17c0,0.27-0.05,0.45-0.15,0.53c-0.1,0.08-0.29,0.12-0.57,0.12h-1.24c-0.29,0-0.48-0.04-0.57-0.12
		c-0.1-0.08-0.15-0.26-0.15-0.53V16.77c0-0.27,0.05-0.45,0.15-0.53c0.1-0.08,0.29-0.12,0.57-0.12h1.3c0.29,0,0.49,0.03,0.62,0.1
		c0.13,0.07,0.27,0.24,0.42,0.53l5.38,10.19V16.77c0-0.27,0.05-0.45,0.15-0.53c0.1-0.08,0.29-0.12,0.57-0.12h1.24
		c0.29,0,0.48,0.04,0.57,0.12c0.1,0.08,0.15,0.26,0.15,0.53v14.71c0,0.27-0.05,0.45-0.15,0.53c-0.1,0.08-0.29,0.12-0.57,0.12h-1.3
		c-0.29,0-0.49-0.03-0.62-0.1c-0.13-0.07-0.27-0.24-0.42-0.53L243.89,21.32z"/>
	<path d="M255.16,22.6c0-1.54,0.17-2.73,0.52-3.55c0.43-1.08,1.14-1.9,2.1-2.45c0.97-0.55,2.13-0.83,3.48-0.83
		c0.76,0,1.49,0.09,2.17,0.28s1.28,0.48,1.79,0.87c0.51,0.39,0.92,0.89,1.21,1.5s0.45,1.33,0.45,2.17c0,0.21-0.05,0.35-0.16,0.43
		c-0.1,0.08-0.29,0.11-0.56,0.11h-1.39c-0.27,0-0.45-0.04-0.55-0.11c-0.1-0.07-0.15-0.22-0.17-0.45c-0.06-0.85-0.33-1.47-0.81-1.84
		c-0.48-0.38-1.2-0.56-2.16-0.56c-0.55,0-1.03,0.06-1.42,0.19c-0.39,0.13-0.71,0.35-0.96,0.66c-0.25,0.31-0.43,0.73-0.55,1.26
		s-0.18,1.18-0.18,1.98v3.78c0,1.52,0.25,2.58,0.75,3.2c0.5,0.62,1.29,0.92,2.35,0.92c0.99,0,1.74-0.25,2.25-0.76
		s0.77-1.38,0.77-2.61v-0.43h-1.73c-0.27,0-0.45-0.05-0.53-0.15c-0.08-0.1-0.12-0.29-0.12-0.57v-0.99c0-0.29,0.04-0.48,0.12-0.57
		c0.08-0.1,0.26-0.15,0.53-0.15h3.8c0.29,0,0.48,0.04,0.57,0.12c0.1,0.08,0.15,0.26,0.15,0.53v2.54c0,0.74-0.12,1.43-0.35,2.08
		c-0.23,0.65-0.59,1.23-1.07,1.72s-1.09,0.88-1.82,1.17c-0.74,0.28-1.6,0.43-2.59,0.43c-1.46,0-2.61-0.27-3.45-0.8
		c-0.85-0.53-1.49-1.29-1.92-2.26c-0.2-0.43-0.33-0.92-0.41-1.45c-0.08-0.53-0.11-1.23-0.11-2.1V22.6z"/>
</g>
<g>
	<path class="st0" d="M0.49,48.75V87c0.01,5.65,4.58,10.22,10.23,10.22h290c5.83,0.01,10.56-4.72,10.57-10.55c0,0,0-0.01,0-0.01
		V48.75H0.49z"/>
</g>
<g>
	<path d="M300.73,97.71c0,0-0.01,0-0.01,0h-290c-5.9,0-10.71-4.8-10.71-10.71V48.27h311.77v38.4c0,2.96-1.16,5.73-3.24,7.82
		C306.45,96.56,303.68,97.71,300.73,97.71z M0.98,49.24V87c0.01,5.37,4.38,9.73,9.75,9.73h290c0,0,0.01,0,0.01,0
		c2.69,0,5.21-1.04,7.12-2.94c1.91-1.9,2.96-4.43,2.96-7.12V49.24H0.98z"/>
</g>
<g class="st1">
	<path d="M127.82,80.44c0,0.28-0.04,0.46-0.12,0.56c-0.08,0.1-0.25,0.14-0.51,0.14h-8.25c-0.28,0-0.46-0.04-0.56-0.12
		c-0.1-0.08-0.14-0.25-0.14-0.51V66.19c0-0.26,0.05-0.43,0.14-0.51c0.09-0.08,0.28-0.12,0.56-0.12h8.17c0.26,0,0.43,0.05,0.51,0.14
		c0.08,0.09,0.12,0.28,0.12,0.56v0.96c0,0.28-0.04,0.46-0.12,0.56c-0.08,0.1-0.25,0.14-0.51,0.14h-6.19v4.03h5.63
		c0.26,0,0.43,0.05,0.51,0.14c0.08,0.1,0.12,0.28,0.12,0.56v0.96c0,0.28-0.04,0.46-0.12,0.56s-0.25,0.14-0.51,0.14h-5.63v4.47h6.28
		c0.26,0,0.43,0.05,0.51,0.14c0.08,0.09,0.12,0.28,0.12,0.56V80.44z"/>
	<path d="M131.76,65.55c0.26,0,0.44,0.04,0.55,0.12s0.23,0.26,0.39,0.54l2.6,4.42l2.69-4.42c0.16-0.26,0.29-0.44,0.38-0.53
		c0.09-0.09,0.28-0.13,0.56-0.13h1.64c0.32,0,0.48,0.13,0.48,0.39c0,0.09-0.04,0.19-0.11,0.31l-4.2,6.63l4.42,7.55
		c0.07,0.12,0.11,0.22,0.11,0.31c0,0.26-0.16,0.39-0.48,0.39h-1.73c-0.28,0-0.47-0.04-0.57-0.12c-0.1-0.08-0.23-0.26-0.37-0.54
		l-2.87-5.14l-2.87,5.14c-0.16,0.28-0.29,0.46-0.39,0.54c-0.1,0.08-0.28,0.12-0.55,0.12h-1.64c-0.32,0-0.48-0.13-0.48-0.39
		c0-0.09,0.04-0.19,0.11-0.31l4.42-7.49l-4.2-6.7c-0.07-0.12-0.11-0.22-0.11-0.31c0-0.26,0.16-0.39,0.48-0.39H131.76z"/>
	<path d="M152.78,80.44c0,0.28-0.04,0.46-0.12,0.56c-0.08,0.1-0.25,0.14-0.51,0.14h-8.25c-0.28,0-0.46-0.04-0.56-0.12
		c-0.1-0.08-0.14-0.25-0.14-0.51V66.19c0-0.26,0.05-0.43,0.14-0.51c0.09-0.08,0.28-0.12,0.56-0.12h8.17c0.26,0,0.43,0.05,0.51,0.14
		c0.08,0.09,0.12,0.28,0.12,0.56v0.96c0,0.28-0.04,0.46-0.12,0.56c-0.08,0.1-0.25,0.14-0.51,0.14h-6.19v4.03h5.63
		c0.26,0,0.43,0.05,0.51,0.14c0.08,0.1,0.12,0.28,0.12,0.56v0.96c0,0.28-0.04,0.46-0.12,0.56s-0.25,0.14-0.51,0.14h-5.63v4.47h6.28
		c0.26,0,0.43,0.05,0.51,0.14c0.08,0.09,0.12,0.28,0.12,0.56V80.44z"/>
	<path d="M161.45,76.59c-0.29,0-0.49-0.04-0.58-0.12c-0.09-0.08-0.2-0.25-0.32-0.51l-2.41-5.23v9.79c0,0.26-0.05,0.43-0.14,0.51
		s-0.28,0.12-0.56,0.12h-1.2c-0.28,0-0.46-0.04-0.56-0.12c-0.1-0.08-0.14-0.25-0.14-0.51V66.19c0-0.26,0.05-0.43,0.14-0.51
		c0.09-0.08,0.28-0.12,0.56-0.12h1.27c0.29,0,0.5,0.04,0.61,0.11c0.12,0.07,0.24,0.25,0.37,0.53l3.57,7.68l3.59-7.68
		c0.13-0.28,0.25-0.45,0.37-0.53c0.12-0.07,0.32-0.11,0.61-0.11h1.27c0.28,0,0.46,0.04,0.56,0.12s0.14,0.25,0.14,0.51v14.32
		c0,0.26-0.05,0.43-0.14,0.51s-0.28,0.12-0.56,0.12h-1.2c-0.28,0-0.46-0.04-0.56-0.12S166,80.77,166,80.51v-9.79l-2.41,5.23
		c-0.12,0.26-0.22,0.43-0.32,0.51c-0.09,0.08-0.29,0.12-0.58,0.12H161.45z"/>
	<path d="M174.38,75.36v5.14c0,0.26-0.05,0.43-0.14,0.51c-0.1,0.08-0.28,0.12-0.56,0.12h-1.23c-0.28,0-0.46-0.04-0.56-0.12
		s-0.14-0.25-0.14-0.51V66.19c0-0.26,0.05-0.43,0.14-0.51s0.28-0.12,0.56-0.12h4.36c0.86,0,1.62,0.08,2.28,0.25
		c0.66,0.17,1.2,0.44,1.64,0.82c0.44,0.38,0.77,0.87,0.99,1.47c0.22,0.6,0.33,1.34,0.33,2.21v0.44c0,1.59-0.44,2.76-1.32,3.5
		c-0.88,0.74-2.19,1.12-3.91,1.12H174.38z M174.38,73.08h2.43c0.55,0,1-0.06,1.32-0.19s0.58-0.3,0.75-0.51s0.29-0.47,0.35-0.77
		c0.06-0.29,0.09-0.6,0.09-0.92v-0.31c0-0.36-0.03-0.7-0.09-1.01c-0.06-0.31-0.18-0.58-0.35-0.81s-0.43-0.42-0.75-0.55
		c-0.33-0.13-0.77-0.2-1.32-0.2h-2.43V73.08z"/>
	<path d="M187.58,67.92h-3.83c-0.26,0-0.43-0.05-0.51-0.14c-0.08-0.09-0.12-0.28-0.12-0.56v-0.96c0-0.28,0.04-0.46,0.12-0.56
		s0.25-0.14,0.51-0.14h10.33c0.26,0,0.43,0.05,0.51,0.14s0.12,0.28,0.12,0.56v0.96c0,0.28-0.04,0.46-0.12,0.56
		c-0.08,0.1-0.25,0.14-0.51,0.14h-3.83v12.59c0,0.26-0.05,0.43-0.14,0.51c-0.1,0.08-0.28,0.12-0.56,0.12h-1.27
		c-0.28,0-0.46-0.04-0.56-0.12c-0.09-0.08-0.14-0.25-0.14-0.51V67.92z"/>
</g>
</svg>
